G75*
%MOIN*%
%OFA0B0*%
%FSLAX25Y25*%
%IPPOS*%
%LPD*%
%AMOC8*
5,1,8,0,0,1.08239X$1,22.5*
%
%ADD10C,0.13400*%
%ADD11R,0.07099X0.05918*%
%ADD12C,0.06000*%
%ADD13C,0.06800*%
%ADD14R,0.05918X0.07099*%
%ADD15OC8,0.07100*%
%ADD16C,0.07100*%
%ADD17R,0.08200X0.08200*%
%ADD18C,0.08200*%
%ADD19R,0.07099X0.04737*%
%ADD20R,0.25209X0.22060*%
%ADD21C,0.17800*%
%ADD22R,0.09600X0.05600*%
%ADD23R,0.09461X0.14973*%
%ADD24C,0.01990*%
%ADD25OC8,0.06800*%
%ADD26R,0.06600X0.02800*%
%ADD27R,0.02800X0.06600*%
%ADD28C,0.08600*%
%ADD29R,0.06693X0.07874*%
%ADD30R,0.06312X0.02375*%
%ADD31C,0.04146*%
D10*
X0013500Y0126200D03*
X0017500Y0363200D03*
X0218500Y0210200D03*
D11*
X0187500Y0236263D03*
X0187500Y0244137D03*
X0174500Y0295263D03*
X0174500Y0303137D03*
X0201500Y0332700D03*
X0201500Y0340574D03*
X0209500Y0340574D03*
X0209500Y0332700D03*
X0237500Y0277137D03*
X0237500Y0269263D03*
X0103500Y0364460D03*
X0103500Y0371940D03*
X0094264Y0372137D03*
X0094264Y0364263D03*
X0085028Y0364460D03*
X0085028Y0371940D03*
X0074972Y0371940D03*
X0074972Y0364460D03*
X0065736Y0364263D03*
X0065736Y0372137D03*
X0056500Y0371940D03*
X0056500Y0364460D03*
D12*
X0194000Y0317200D03*
X0213000Y0317200D03*
D13*
X0260500Y0343200D02*
X0266500Y0343200D01*
X0266500Y0353200D02*
X0260500Y0353200D01*
X0260500Y0363200D02*
X0266500Y0363200D01*
X0266500Y0373200D02*
X0260500Y0373200D01*
X0260500Y0383200D02*
X0266500Y0383200D01*
X0266500Y0393200D02*
X0260500Y0393200D01*
X0117500Y0296200D02*
X0111500Y0296200D01*
X0111500Y0286200D02*
X0117500Y0286200D01*
X0117500Y0276200D02*
X0111500Y0276200D01*
X0111500Y0266200D02*
X0117500Y0266200D01*
X0117500Y0256200D02*
X0111500Y0256200D01*
X0111500Y0246200D02*
X0117500Y0246200D01*
X0117500Y0236200D02*
X0111500Y0236200D01*
X0111500Y0226200D02*
X0117500Y0226200D01*
X0096500Y0243200D02*
X0090500Y0243200D01*
X0090500Y0253200D02*
X0096500Y0253200D01*
X0096500Y0263200D02*
X0090500Y0263200D01*
X0090500Y0273200D02*
X0096500Y0273200D01*
X0059400Y0188000D02*
X0059400Y0182000D01*
X0041600Y0182000D02*
X0041600Y0188000D01*
X0029400Y0188000D02*
X0029400Y0182000D01*
X0029400Y0162400D02*
X0029400Y0156400D01*
X0041600Y0156400D02*
X0041600Y0162400D01*
X0059400Y0162400D02*
X0059400Y0156400D01*
X0011600Y0156400D02*
X0011600Y0162400D01*
X0011600Y0182000D02*
X0011600Y0188000D01*
X0008700Y0384300D02*
X0014700Y0384300D01*
X0014700Y0402100D02*
X0008700Y0402100D01*
X0034300Y0402100D02*
X0040300Y0402100D01*
X0040300Y0384300D02*
X0034300Y0384300D01*
D14*
X0137760Y0358200D03*
X0145240Y0358200D03*
X0145240Y0348200D03*
X0137760Y0348200D03*
X0214563Y0244200D03*
X0222437Y0244200D03*
X0175000Y0150200D03*
X0167520Y0150200D03*
X0118240Y0193200D03*
X0110760Y0193200D03*
X0110760Y0202200D03*
X0118240Y0202200D03*
X0101240Y0211200D03*
X0093760Y0211200D03*
X0085437Y0211200D03*
X0077563Y0211200D03*
X0077760Y0202200D03*
X0085240Y0202200D03*
X0085437Y0193200D03*
X0077563Y0193200D03*
X0077760Y0184200D03*
X0085240Y0184200D03*
X0093760Y0184200D03*
X0101240Y0184200D03*
X0101054Y0193200D03*
X0093574Y0193200D03*
X0076240Y0151200D03*
X0068760Y0151200D03*
X0053874Y0220200D03*
X0046000Y0220200D03*
X0241760Y0138200D03*
X0241760Y0129200D03*
X0241760Y0120200D03*
X0249240Y0120200D03*
X0249240Y0129200D03*
X0249240Y0138200D03*
D15*
X0236500Y0337200D03*
X0072500Y0251200D03*
X0072500Y0227200D03*
X0064500Y0204200D03*
D16*
X0054500Y0204200D03*
X0062500Y0227200D03*
X0062500Y0251200D03*
X0236500Y0327200D03*
D17*
X0033516Y0140224D03*
D18*
X0043516Y0140224D03*
X0053516Y0140224D03*
X0063516Y0140224D03*
X0073516Y0140224D03*
X0083516Y0140224D03*
X0093516Y0140224D03*
X0103516Y0140224D03*
X0113516Y0140224D03*
X0123516Y0140224D03*
X0133516Y0140224D03*
X0143516Y0140224D03*
X0153516Y0140224D03*
X0163516Y0140224D03*
X0173516Y0140224D03*
X0183516Y0140224D03*
X0223500Y0353200D03*
X0223500Y0363200D03*
X0233500Y0363200D03*
X0233500Y0353200D03*
X0243500Y0353200D03*
X0243500Y0363200D03*
D19*
X0049398Y0246176D03*
X0049398Y0228224D03*
D20*
X0020657Y0237200D03*
D21*
X0047626Y0266696D03*
X0059437Y0285200D03*
X0035815Y0285200D03*
D22*
X0036700Y0217300D03*
X0036700Y0208200D03*
X0036700Y0199100D03*
D23*
X0012299Y0208200D03*
D24*
X0074127Y0340374D02*
X0076873Y0340374D01*
X0074127Y0340374D02*
X0074127Y0343120D01*
X0076873Y0343120D01*
X0076873Y0340374D01*
X0076873Y0342264D02*
X0074127Y0342264D01*
X0074127Y0347280D02*
X0076873Y0347280D01*
X0074127Y0347280D02*
X0074127Y0350026D01*
X0076873Y0350026D01*
X0076873Y0347280D01*
X0076873Y0349170D02*
X0074127Y0349170D01*
X0084127Y0347280D02*
X0086873Y0347280D01*
X0084127Y0347280D02*
X0084127Y0350026D01*
X0086873Y0350026D01*
X0086873Y0347280D01*
X0086873Y0349170D02*
X0084127Y0349170D01*
X0084127Y0340374D02*
X0086873Y0340374D01*
X0084127Y0340374D02*
X0084127Y0343120D01*
X0086873Y0343120D01*
X0086873Y0340374D01*
X0086873Y0342264D02*
X0084127Y0342264D01*
X0130420Y0209573D02*
X0130420Y0206827D01*
X0127674Y0206827D01*
X0127674Y0209573D01*
X0130420Y0209573D01*
X0130420Y0208717D02*
X0127674Y0208717D01*
X0130420Y0202073D02*
X0130420Y0199327D01*
X0127674Y0199327D01*
X0127674Y0202073D01*
X0130420Y0202073D01*
X0130420Y0201217D02*
X0127674Y0201217D01*
X0130420Y0194573D02*
X0130420Y0191827D01*
X0127674Y0191827D01*
X0127674Y0194573D01*
X0130420Y0194573D01*
X0130420Y0193717D02*
X0127674Y0193717D01*
X0137326Y0194573D02*
X0137326Y0191827D01*
X0134580Y0191827D01*
X0134580Y0194573D01*
X0137326Y0194573D01*
X0137326Y0193717D02*
X0134580Y0193717D01*
X0137326Y0199327D02*
X0137326Y0202073D01*
X0137326Y0199327D02*
X0134580Y0199327D01*
X0134580Y0202073D01*
X0137326Y0202073D01*
X0137326Y0201217D02*
X0134580Y0201217D01*
X0137326Y0206827D02*
X0137326Y0209573D01*
X0137326Y0206827D02*
X0134580Y0206827D01*
X0134580Y0209573D01*
X0137326Y0209573D01*
X0137326Y0208717D02*
X0134580Y0208717D01*
X0222127Y0135026D02*
X0224873Y0135026D01*
X0224873Y0132280D01*
X0222127Y0132280D01*
X0222127Y0135026D01*
X0222127Y0134170D02*
X0224873Y0134170D01*
X0224873Y0128120D02*
X0222127Y0128120D01*
X0224873Y0128120D02*
X0224873Y0125374D01*
X0222127Y0125374D01*
X0222127Y0128120D01*
X0222127Y0127264D02*
X0224873Y0127264D01*
D25*
X0223500Y0163200D03*
X0223500Y0173200D03*
X0213500Y0173200D03*
X0213500Y0163200D03*
X0203500Y0163200D03*
X0203500Y0173200D03*
X0193500Y0173200D03*
X0193500Y0163200D03*
X0183500Y0163200D03*
X0183500Y0173200D03*
X0173500Y0173200D03*
X0173500Y0163200D03*
X0163500Y0163200D03*
X0163500Y0173200D03*
X0153500Y0173200D03*
X0153500Y0163200D03*
X0143500Y0163200D03*
X0143500Y0173200D03*
X0133500Y0173200D03*
X0133500Y0163200D03*
X0113500Y0163200D03*
X0113500Y0173200D03*
X0103500Y0173200D03*
X0103500Y0163200D03*
X0093500Y0163200D03*
X0093500Y0173200D03*
X0083500Y0173200D03*
X0083500Y0163200D03*
X0253500Y0163200D03*
X0253500Y0173200D03*
X0253500Y0183200D03*
X0253500Y0193200D03*
X0253500Y0203200D03*
X0253500Y0213200D03*
X0253500Y0223200D03*
X0253500Y0233200D03*
X0263500Y0233200D03*
X0263500Y0223200D03*
X0263500Y0213200D03*
X0263500Y0203200D03*
X0263500Y0193200D03*
X0263500Y0183200D03*
X0263500Y0173200D03*
X0263500Y0163200D03*
X0263500Y0253200D03*
X0263500Y0263200D03*
X0263500Y0273200D03*
X0263500Y0283200D03*
X0263500Y0293200D03*
X0263500Y0303200D03*
X0263500Y0313200D03*
X0263500Y0323200D03*
X0253500Y0323200D03*
X0253500Y0313200D03*
X0253500Y0303200D03*
X0253500Y0293200D03*
X0253500Y0283200D03*
X0253500Y0273200D03*
X0253500Y0263200D03*
X0253500Y0253200D03*
X0243500Y0383200D03*
X0243500Y0393200D03*
X0233500Y0393200D03*
X0233500Y0383200D03*
X0223500Y0383200D03*
X0223500Y0393200D03*
X0213500Y0393200D03*
X0213500Y0383200D03*
X0203500Y0383200D03*
X0203500Y0393200D03*
X0193500Y0393200D03*
X0193500Y0383200D03*
X0183500Y0383200D03*
X0183500Y0393200D03*
X0173500Y0393200D03*
X0173500Y0383200D03*
X0153500Y0383200D03*
X0153500Y0393200D03*
X0143500Y0393200D03*
X0143500Y0383200D03*
X0133500Y0383200D03*
X0133500Y0393200D03*
X0123500Y0393200D03*
X0123500Y0383200D03*
X0103500Y0383200D03*
X0103500Y0393200D03*
X0093500Y0393200D03*
X0093500Y0383200D03*
X0083500Y0383200D03*
X0083500Y0393200D03*
X0073500Y0393200D03*
X0073500Y0383200D03*
X0063500Y0383200D03*
X0063500Y0393200D03*
X0053500Y0393200D03*
X0053500Y0383200D03*
D26*
X0180900Y0290900D03*
X0180900Y0287800D03*
X0180900Y0284600D03*
X0180900Y0281500D03*
X0180900Y0278300D03*
X0180900Y0275200D03*
X0180900Y0272100D03*
X0180900Y0268900D03*
X0180900Y0265800D03*
X0180900Y0262600D03*
X0180900Y0259500D03*
X0226100Y0259500D03*
X0226100Y0262600D03*
X0226100Y0265800D03*
X0226100Y0268900D03*
X0226100Y0272100D03*
X0226100Y0275200D03*
X0226100Y0278300D03*
X0226100Y0281500D03*
X0226100Y0284600D03*
X0226100Y0287800D03*
X0226100Y0290900D03*
D27*
X0219200Y0297800D03*
X0216100Y0297800D03*
X0212900Y0297800D03*
X0209800Y0297800D03*
X0206600Y0297800D03*
X0203500Y0297800D03*
X0200400Y0297800D03*
X0197200Y0297800D03*
X0194100Y0297800D03*
X0190900Y0297800D03*
X0187800Y0297800D03*
X0187800Y0252600D03*
X0190900Y0252600D03*
X0194100Y0252600D03*
X0197200Y0252600D03*
X0200400Y0252600D03*
X0203500Y0252600D03*
X0206600Y0252600D03*
X0209800Y0252600D03*
X0212900Y0252600D03*
X0216100Y0252600D03*
X0219200Y0252600D03*
D28*
X0021400Y0320300D02*
X0013600Y0320300D01*
X0013600Y0340100D02*
X0021400Y0340100D01*
D29*
X0271500Y0149704D03*
X0271500Y0120696D03*
D30*
X0260870Y0130082D03*
X0260870Y0132641D03*
X0260870Y0135200D03*
X0260870Y0137759D03*
X0260870Y0140318D03*
D31*
X0262839Y0142680D03*
X0262839Y0127720D03*
M02*
