%
M48
M72
T01C0.0135
T02C0.0138
T03C0.0320
T04C0.0335
T05C0.0400
T06C0.0520
T07C0.1180
T08C0.1260
%
T01
X8938Y17908
X16950Y30920
X24450Y29520
T02
X24850Y28720
X24350Y27814
X22650Y29520
X21950Y29120
X21950Y28682
X21250Y29120
X21250Y30320
X19725Y29225
X19150Y29221
X18650Y28720
X18750Y28120
X19250Y27520
X19250Y26820
X18750Y27201
X18150Y25120
X18050Y24420
X18450Y22320
X16150Y22320
X15350Y20420
X14850Y20020
X16050Y19320
X12450Y18520
X15750Y25120
X16150Y29220
X17750Y30839
X18350Y29720
X19050Y30420
X19350Y30820
X19450Y34020
X18850Y34420
X18350Y34020
X21750Y35820
X22950Y34539
X24400Y32170
X23331Y31920
X23050Y31320
X25450Y33020
X26950Y33020
X21550Y26420
X22350Y25320
X21456Y23820
X22250Y22620
X24050Y22020
X22850Y18220
X22350Y14020
X25650Y12720
X12750Y34020
X12350Y34420
X13337Y35307
X9450Y34820
X9050Y34220
X5550Y34820
T03
X6250Y25120
X7250Y25120
X7250Y22720
X6250Y22720
X6450Y20420
X5450Y20420
X19400Y31720
X21300Y31720
X23650Y32720
X23650Y33720
T04
X26284Y14268
X26284Y12772
T05
X26350Y16320
X26350Y17320
X26350Y18320
X26350Y19320
X26350Y20320
X26350Y21320
X26350Y22320
X26350Y23320
X25350Y23320
X25350Y22320
X25350Y21320
X25350Y20320
X25350Y19320
X25350Y18320
X25350Y17320
X25350Y16320
X22350Y16320
X22350Y17320
X21350Y17320
X21350Y16320
X20350Y16320
X20350Y17320
X19350Y17320
X19350Y16320
X18350Y16320
X18350Y17320
X17350Y17320
X17350Y16320
X16350Y16320
X16350Y17320
X15350Y17320
X15350Y16320
X14350Y16320
X14350Y17320
X13350Y17320
X13350Y16320
X13352Y14022
X12352Y14022
X11352Y14022
X10352Y14022
X9352Y14022
X8352Y14022
X7352Y14022
X6352Y14022
X5352Y14022
X4352Y14022
X3352Y14022
X2940Y15940
X4160Y15940
X5940Y15940
X5940Y18500
X4160Y18500
X2940Y18500
X1160Y18500
X1160Y15940
X8350Y16320
X8350Y17320
X9350Y17320
X9350Y16320
X10350Y16320
X10350Y17320
X11350Y17320
X11350Y16320
X14352Y14022
X15352Y14022
X16352Y14022
X17352Y14022
X18352Y14022
X11450Y22620
X11450Y23620
X11450Y24620
X11450Y25620
X11450Y26620
X11450Y27620
X11450Y28620
X11450Y29620
X9350Y27320
X9350Y26320
X9350Y25320
X9350Y24320
X9350Y38320
X9350Y39320
X8350Y39320
X8350Y38320
X7350Y38320
X7350Y39320
X6350Y39320
X6350Y38320
X5350Y38320
X5350Y39320
X3730Y38430
X3730Y40210
X1170Y40210
X1170Y38430
X10350Y38320
X10350Y39320
X12350Y39320
X12350Y38320
X13350Y38320
X13350Y39320
X14350Y39320
X14350Y38320
X15350Y38320
X15350Y39320
X17350Y39320
X17350Y38320
X18350Y38320
X18350Y39320
X19350Y39320
X19350Y38320
X20350Y38320
X20350Y39320
X21350Y39320
X21350Y38320
X22350Y38320
X22350Y39320
X23350Y39320
X23350Y38320
X24350Y38320
X24350Y39320
X26350Y39320
X26350Y38320
X26350Y37320
X26350Y36320
X26350Y35320
X26350Y34320
X26350Y32320
X26350Y31320
X26350Y30320
X26350Y29320
X26350Y28320
X26350Y27320
X26350Y26320
X26350Y25320
X25350Y25320
X25350Y26320
X25350Y27320
X25350Y28320
X25350Y29320
X25350Y30320
X25350Y31320
X25350Y32320
X24350Y35320
X24350Y36320
X23350Y36320
X23350Y35320
X22350Y35320
X22350Y36320
T06
X1750Y34010
X1750Y32030
T07
X3581Y28520
X4763Y26670
X5944Y28520
T08
X1350Y12620
X1750Y36320
X21850Y21020
M30
