G75*
%MOIN*%
%OFA0B0*%
%FSLAX25Y25*%
%IPPOS*%
%LPD*%
%AMOC8*
5,1,8,0,0,1.08239X$1,22.5*
%
%ADD10C,0.05200*%
%ADD11C,0.06000*%
%ADD12OC8,0.06300*%
%ADD13C,0.06300*%
%ADD14R,0.07400X0.07400*%
%ADD15C,0.07400*%
%ADD16C,0.17000*%
%ADD17OC8,0.06000*%
%ADD18C,0.07800*%
%ADD19C,0.01000*%
%ADD20C,0.03378*%
%ADD21C,0.04000*%
%ADD22C,0.01600*%
%ADD23C,0.03350*%
D10*
X0194000Y0317200D03*
X0213000Y0317200D03*
D11*
X0260500Y0343200D02*
X0266500Y0343200D01*
X0266500Y0353200D02*
X0260500Y0353200D01*
X0260500Y0363200D02*
X0266500Y0363200D01*
X0266500Y0373200D02*
X0260500Y0373200D01*
X0260500Y0383200D02*
X0266500Y0383200D01*
X0266500Y0393200D02*
X0260500Y0393200D01*
X0117500Y0296200D02*
X0111500Y0296200D01*
X0111500Y0286200D02*
X0117500Y0286200D01*
X0117500Y0276200D02*
X0111500Y0276200D01*
X0111500Y0266200D02*
X0117500Y0266200D01*
X0117500Y0256200D02*
X0111500Y0256200D01*
X0111500Y0246200D02*
X0117500Y0246200D01*
X0117500Y0236200D02*
X0111500Y0236200D01*
X0111500Y0226200D02*
X0117500Y0226200D01*
X0096500Y0243200D02*
X0090500Y0243200D01*
X0090500Y0253200D02*
X0096500Y0253200D01*
X0096500Y0263200D02*
X0090500Y0263200D01*
X0090500Y0273200D02*
X0096500Y0273200D01*
X0059400Y0188000D02*
X0059400Y0182000D01*
X0041600Y0182000D02*
X0041600Y0188000D01*
X0029400Y0188000D02*
X0029400Y0182000D01*
X0029400Y0162400D02*
X0029400Y0156400D01*
X0041600Y0156400D02*
X0041600Y0162400D01*
X0059400Y0162400D02*
X0059400Y0156400D01*
X0011600Y0156400D02*
X0011600Y0162400D01*
X0011600Y0182000D02*
X0011600Y0188000D01*
X0008700Y0384300D02*
X0014700Y0384300D01*
X0014700Y0402100D02*
X0008700Y0402100D01*
X0034300Y0402100D02*
X0040300Y0402100D01*
X0040300Y0384300D02*
X0034300Y0384300D01*
D12*
X0072500Y0251200D03*
X0072500Y0227200D03*
X0064500Y0204200D03*
X0236500Y0337200D03*
D13*
X0236500Y0327200D03*
X0062500Y0251200D03*
X0062500Y0227200D03*
X0054500Y0204200D03*
D14*
X0033516Y0140224D03*
D15*
X0043516Y0140224D03*
X0053516Y0140224D03*
X0063516Y0140224D03*
X0073516Y0140224D03*
X0083516Y0140224D03*
X0093516Y0140224D03*
X0103516Y0140224D03*
X0113516Y0140224D03*
X0123516Y0140224D03*
X0133516Y0140224D03*
X0143516Y0140224D03*
X0153516Y0140224D03*
X0163516Y0140224D03*
X0173516Y0140224D03*
X0183516Y0140224D03*
X0223500Y0353200D03*
X0223500Y0363200D03*
X0233500Y0363200D03*
X0233500Y0353200D03*
X0243500Y0353200D03*
X0243500Y0363200D03*
D16*
X0059437Y0285200D03*
X0047626Y0266696D03*
X0035815Y0285200D03*
D17*
X0053500Y0383200D03*
X0053500Y0393200D03*
X0063500Y0393200D03*
X0063500Y0383200D03*
X0073500Y0383200D03*
X0073500Y0393200D03*
X0083500Y0393200D03*
X0083500Y0383200D03*
X0093500Y0383200D03*
X0093500Y0393200D03*
X0103500Y0393200D03*
X0103500Y0383200D03*
X0123500Y0383200D03*
X0123500Y0393200D03*
X0133500Y0393200D03*
X0133500Y0383200D03*
X0143500Y0383200D03*
X0143500Y0393200D03*
X0153500Y0393200D03*
X0153500Y0383200D03*
X0173500Y0383200D03*
X0173500Y0393200D03*
X0183500Y0393200D03*
X0183500Y0383200D03*
X0193500Y0383200D03*
X0193500Y0393200D03*
X0203500Y0393200D03*
X0203500Y0383200D03*
X0213500Y0383200D03*
X0213500Y0393200D03*
X0223500Y0393200D03*
X0223500Y0383200D03*
X0233500Y0383200D03*
X0233500Y0393200D03*
X0243500Y0393200D03*
X0243500Y0383200D03*
X0253500Y0323200D03*
X0253500Y0313200D03*
X0253500Y0303200D03*
X0253500Y0293200D03*
X0253500Y0283200D03*
X0253500Y0273200D03*
X0253500Y0263200D03*
X0253500Y0253200D03*
X0263500Y0253200D03*
X0263500Y0263200D03*
X0263500Y0273200D03*
X0263500Y0283200D03*
X0263500Y0293200D03*
X0263500Y0303200D03*
X0263500Y0313200D03*
X0263500Y0323200D03*
X0263500Y0233200D03*
X0263500Y0223200D03*
X0263500Y0213200D03*
X0263500Y0203200D03*
X0263500Y0193200D03*
X0263500Y0183200D03*
X0263500Y0173200D03*
X0263500Y0163200D03*
X0253500Y0163200D03*
X0253500Y0173200D03*
X0253500Y0183200D03*
X0253500Y0193200D03*
X0253500Y0203200D03*
X0253500Y0213200D03*
X0253500Y0223200D03*
X0253500Y0233200D03*
X0223500Y0173200D03*
X0223500Y0163200D03*
X0213500Y0163200D03*
X0213500Y0173200D03*
X0203500Y0173200D03*
X0203500Y0163200D03*
X0193500Y0163200D03*
X0193500Y0173200D03*
X0183500Y0173200D03*
X0183500Y0163200D03*
X0173500Y0163200D03*
X0173500Y0173200D03*
X0163500Y0173200D03*
X0163500Y0163200D03*
X0153500Y0163200D03*
X0153500Y0173200D03*
X0143500Y0173200D03*
X0143500Y0163200D03*
X0133500Y0163200D03*
X0133500Y0173200D03*
X0113500Y0173200D03*
X0113500Y0163200D03*
X0103500Y0163200D03*
X0103500Y0173200D03*
X0093500Y0173200D03*
X0093500Y0163200D03*
X0083500Y0163200D03*
X0083500Y0173200D03*
D18*
X0021400Y0320300D02*
X0013600Y0320300D01*
X0013600Y0340100D02*
X0021400Y0340100D01*
D19*
X0055500Y0348200D02*
X0087990Y0348200D01*
X0094500Y0348200D01*
X0217500Y0348200D01*
X0217500Y0358200D01*
X0217500Y0348200D02*
X0220311Y0345389D01*
X0229500Y0345389D01*
X0233500Y0348200D02*
X0233500Y0353200D01*
X0233500Y0348200D02*
X0236500Y0345200D01*
X0247500Y0345200D01*
X0247500Y0313200D01*
X0230500Y0313200D01*
X0233311Y0319200D02*
X0241500Y0319200D01*
X0244000Y0321700D01*
X0247500Y0313200D02*
X0253500Y0313200D01*
X0263500Y0303200D02*
X0268500Y0303200D01*
X0273500Y0308200D01*
X0273500Y0358200D01*
X0268500Y0363200D01*
X0263500Y0363200D01*
X0255500Y0363200D01*
X0248500Y0370200D01*
X0236500Y0370200D01*
X0233500Y0367200D01*
X0233500Y0363200D01*
X0233500Y0383200D02*
X0233500Y0393200D01*
X0223500Y0393200D02*
X0223500Y0383200D01*
X0223500Y0393200D02*
X0223500Y0398200D01*
X0220500Y0401200D01*
X0078500Y0401200D01*
X0073500Y0396200D01*
X0073500Y0393200D01*
X0073500Y0383200D01*
X0037300Y0384300D02*
X0011700Y0384300D01*
X0109500Y0276200D02*
X0096500Y0263200D01*
X0093500Y0263200D01*
X0109500Y0276200D02*
X0114500Y0276200D01*
X0161500Y0292200D02*
X0161511Y0292211D01*
X0191500Y0292211D01*
X0197250Y0292247D02*
X0197250Y0295450D01*
X0195500Y0297200D01*
X0183500Y0297200D01*
X0190500Y0304200D02*
X0189500Y0305200D01*
X0173500Y0305200D01*
X0169500Y0309200D01*
X0177500Y0308389D02*
X0193311Y0308389D01*
X0193500Y0308200D01*
X0200500Y0283200D02*
X0192500Y0275200D01*
X0192500Y0268200D02*
X0240500Y0268200D01*
X0245500Y0263200D01*
X0247500Y0263200D01*
X0253500Y0263200D01*
X0252311Y0272011D02*
X0253500Y0273200D01*
X0252311Y0272011D02*
X0187500Y0272011D01*
X0200500Y0283200D02*
X0253500Y0283200D01*
X0248500Y0287200D02*
X0248122Y0286822D01*
X0219500Y0286822D01*
X0219500Y0291200D02*
X0251500Y0291200D01*
X0253500Y0293200D01*
X0244500Y0295200D02*
X0226500Y0295200D01*
X0235500Y0264200D02*
X0215500Y0264200D01*
X0235500Y0264200D02*
X0239500Y0260200D01*
X0239500Y0240200D01*
X0246500Y0233200D01*
X0253500Y0233200D01*
X0263500Y0233200D01*
X0263500Y0223200D02*
X0253500Y0223200D01*
X0247500Y0223200D01*
X0232500Y0238200D01*
X0214563Y0238200D01*
X0228500Y0182200D02*
X0172500Y0182200D01*
X0163500Y0173200D01*
X0163500Y0190200D01*
X0160500Y0193200D01*
X0153500Y0200200D02*
X0153500Y0173200D01*
X0148500Y0188200D02*
X0133500Y0173200D01*
X0124500Y0185200D02*
X0095500Y0185200D01*
X0089384Y0179084D01*
X0041600Y0185000D02*
X0041600Y0159400D01*
X0029400Y0159400D02*
X0029400Y0185000D01*
X0148500Y0188200D02*
X0148500Y0200200D01*
X0153500Y0200200D02*
X0153500Y0204200D01*
X0164689Y0251200D02*
X0165500Y0251200D01*
X0183500Y0340200D02*
X0127500Y0340200D01*
X0123500Y0344200D02*
X0188500Y0344200D01*
X0194500Y0340200D02*
X0233500Y0340200D01*
X0236500Y0337200D01*
X0247500Y0345200D02*
X0253500Y0345200D01*
X0261500Y0353200D01*
X0263500Y0353200D01*
X0269500Y0330200D02*
X0254500Y0330200D01*
X0243500Y0383200D02*
X0243500Y0393200D01*
X0213500Y0393200D02*
X0213500Y0383200D01*
X0203500Y0383200D02*
X0203500Y0393200D01*
X0193500Y0393200D02*
X0193500Y0383200D01*
X0183500Y0383200D02*
X0183500Y0393200D01*
X0173500Y0393200D02*
X0173500Y0383200D01*
X0133500Y0383200D02*
X0133500Y0353200D01*
X0133374Y0353074D01*
D20*
X0133374Y0353074D03*
X0123500Y0344200D03*
X0127500Y0340200D03*
X0094500Y0348200D03*
X0090500Y0342200D03*
X0055500Y0348200D03*
X0157500Y0251200D03*
X0180500Y0244200D03*
X0181500Y0251200D03*
X0192500Y0268200D03*
X0192500Y0275200D03*
X0187500Y0272011D03*
X0187500Y0281200D03*
X0186500Y0287200D03*
X0191500Y0292211D03*
X0197250Y0292247D03*
X0190500Y0304200D03*
X0193500Y0308200D03*
X0183500Y0297200D03*
X0177500Y0308389D03*
X0161500Y0292200D03*
X0183500Y0340200D03*
X0188500Y0344200D03*
X0194500Y0340200D03*
X0217500Y0358200D03*
X0229500Y0345389D03*
X0244000Y0321700D03*
X0233311Y0319200D03*
X0230500Y0313200D03*
X0226500Y0295200D03*
X0219500Y0291200D03*
X0219500Y0286822D03*
X0212500Y0291200D03*
X0212500Y0303200D03*
X0215500Y0264200D03*
X0223500Y0253200D03*
X0214563Y0238200D03*
X0222500Y0226200D03*
X0240500Y0220200D03*
X0228500Y0182200D03*
X0223500Y0140200D03*
X0256500Y0127200D03*
X0184500Y0223200D03*
X0161500Y0223200D03*
X0153500Y0204200D03*
X0148500Y0200200D03*
X0160500Y0193200D03*
X0124500Y0185200D03*
X0243500Y0278137D03*
X0248500Y0287200D03*
X0254500Y0330200D03*
X0269500Y0330200D03*
D21*
X0234500Y0226200D02*
X0222500Y0226200D01*
X0234500Y0226200D02*
X0240500Y0220200D01*
X0253500Y0193200D02*
X0217500Y0193200D01*
X0199500Y0211200D01*
X0057500Y0211200D01*
X0054500Y0208200D01*
X0054500Y0204200D01*
X0062500Y0227200D02*
X0055500Y0234200D01*
X0055500Y0255200D01*
X0059437Y0259137D01*
X0059437Y0285200D01*
X0157500Y0251200D02*
X0164689Y0251200D01*
X0165500Y0251200D02*
X0181500Y0251200D01*
X0184500Y0223200D02*
X0161500Y0223200D01*
X0253500Y0193200D02*
X0253500Y0183200D01*
X0253500Y0193200D02*
X0263500Y0193200D01*
X0263500Y0183200D01*
D22*
X0003800Y0116200D02*
X0003800Y0405900D01*
X0005712Y0405900D01*
X0004631Y0404819D01*
X0003900Y0403055D01*
X0003900Y0401145D01*
X0004631Y0399381D01*
X0005981Y0398031D01*
X0007745Y0397300D01*
X0015655Y0397300D01*
X0017419Y0398031D01*
X0018769Y0399381D01*
X0019500Y0401145D01*
X0019500Y0403055D01*
X0018769Y0404819D01*
X0017688Y0405900D01*
X0031312Y0405900D01*
X0030231Y0404819D01*
X0029500Y0403055D01*
X0029500Y0401145D01*
X0030231Y0399381D01*
X0031581Y0398031D01*
X0033345Y0397300D01*
X0041255Y0397300D01*
X0043019Y0398031D01*
X0044369Y0399381D01*
X0045100Y0401145D01*
X0045100Y0403055D01*
X0044369Y0404819D01*
X0043288Y0405900D01*
X0281200Y0405900D01*
X0281200Y0116200D01*
X0003800Y0116200D01*
X0003800Y0116813D02*
X0281200Y0116813D01*
X0281200Y0118412D02*
X0015864Y0118412D01*
X0015111Y0118100D02*
X0018088Y0119333D01*
X0020367Y0121612D01*
X0021600Y0124589D01*
X0021600Y0127811D01*
X0020367Y0130788D01*
X0018088Y0133067D01*
X0015111Y0134300D01*
X0011889Y0134300D01*
X0008912Y0133067D01*
X0006633Y0130788D01*
X0005400Y0127811D01*
X0005400Y0124589D01*
X0006633Y0121612D01*
X0008912Y0119333D01*
X0011889Y0118100D01*
X0015111Y0118100D01*
X0011136Y0118412D02*
X0003800Y0118412D01*
X0003800Y0120010D02*
X0008234Y0120010D01*
X0006636Y0121609D02*
X0003800Y0121609D01*
X0003800Y0123207D02*
X0005972Y0123207D01*
X0005400Y0124806D02*
X0003800Y0124806D01*
X0003800Y0126404D02*
X0005400Y0126404D01*
X0005479Y0128003D02*
X0003800Y0128003D01*
X0003800Y0129601D02*
X0006142Y0129601D01*
X0007045Y0131200D02*
X0003800Y0131200D01*
X0003800Y0132799D02*
X0008643Y0132799D01*
X0003800Y0134397D02*
X0281200Y0134397D01*
X0281200Y0132799D02*
X0018357Y0132799D01*
X0019955Y0131200D02*
X0281200Y0131200D01*
X0281200Y0129601D02*
X0265819Y0129601D01*
X0265783Y0129687D02*
X0264806Y0130664D01*
X0263529Y0131193D01*
X0262148Y0131193D01*
X0260871Y0130664D01*
X0259894Y0129687D01*
X0259365Y0128411D01*
X0259365Y0127029D01*
X0259894Y0125752D01*
X0260871Y0124775D01*
X0262148Y0124246D01*
X0263529Y0124246D01*
X0264806Y0124775D01*
X0265783Y0125752D01*
X0266312Y0127029D01*
X0266312Y0128411D01*
X0265783Y0129687D01*
X0266312Y0128003D02*
X0281200Y0128003D01*
X0281200Y0126404D02*
X0266053Y0126404D01*
X0264837Y0124806D02*
X0281200Y0124806D01*
X0281200Y0123207D02*
X0021028Y0123207D01*
X0021600Y0124806D02*
X0260840Y0124806D01*
X0259624Y0126404D02*
X0021600Y0126404D01*
X0021521Y0128003D02*
X0259365Y0128003D01*
X0259859Y0129601D02*
X0020858Y0129601D01*
X0020364Y0121609D02*
X0281200Y0121609D01*
X0281200Y0120010D02*
X0018766Y0120010D01*
X0029070Y0134724D02*
X0028016Y0135778D01*
X0028016Y0144669D01*
X0029070Y0145724D01*
X0037961Y0145724D01*
X0039016Y0144669D01*
X0039016Y0143387D01*
X0039321Y0143807D01*
X0039933Y0144419D01*
X0040633Y0144928D01*
X0041404Y0145321D01*
X0042228Y0145588D01*
X0043083Y0145724D01*
X0043316Y0145724D01*
X0043316Y0140424D01*
X0043716Y0140424D01*
X0043716Y0145724D01*
X0043949Y0145724D01*
X0044804Y0145588D01*
X0045627Y0145321D01*
X0046398Y0144928D01*
X0047099Y0144419D01*
X0047711Y0143807D01*
X0048220Y0143106D01*
X0048516Y0142525D01*
X0048853Y0143339D01*
X0050400Y0144886D01*
X0052422Y0145724D01*
X0054610Y0145724D01*
X0056631Y0144886D01*
X0058178Y0143339D01*
X0058516Y0142525D01*
X0058853Y0143339D01*
X0060400Y0144886D01*
X0062422Y0145724D01*
X0064610Y0145724D01*
X0066631Y0144886D01*
X0068178Y0143339D01*
X0068516Y0142525D01*
X0068853Y0143339D01*
X0070400Y0144886D01*
X0072422Y0145724D01*
X0074610Y0145724D01*
X0076631Y0144886D01*
X0078178Y0143339D01*
X0078516Y0142525D01*
X0078853Y0143339D01*
X0080400Y0144886D01*
X0082422Y0145724D01*
X0084610Y0145724D01*
X0086631Y0144886D01*
X0088178Y0143339D01*
X0088516Y0142525D01*
X0088853Y0143339D01*
X0090400Y0144886D01*
X0092422Y0145724D01*
X0094610Y0145724D01*
X0096631Y0144886D01*
X0098178Y0143339D01*
X0098516Y0142525D01*
X0098853Y0143339D01*
X0100400Y0144886D01*
X0102422Y0145724D01*
X0104610Y0145724D01*
X0106631Y0144886D01*
X0108178Y0143339D01*
X0108516Y0142525D01*
X0108853Y0143339D01*
X0110400Y0144886D01*
X0112422Y0145724D01*
X0114610Y0145724D01*
X0116631Y0144886D01*
X0118178Y0143339D01*
X0118516Y0142525D01*
X0118853Y0143339D01*
X0120400Y0144886D01*
X0122422Y0145724D01*
X0124610Y0145724D01*
X0126631Y0144886D01*
X0128178Y0143339D01*
X0128516Y0142525D01*
X0128853Y0143339D01*
X0130400Y0144886D01*
X0132422Y0145724D01*
X0134610Y0145724D01*
X0136631Y0144886D01*
X0138178Y0143339D01*
X0138516Y0142525D01*
X0138853Y0143339D01*
X0140400Y0144886D01*
X0142422Y0145724D01*
X0144610Y0145724D01*
X0146631Y0144886D01*
X0148178Y0143339D01*
X0148516Y0142525D01*
X0148853Y0143339D01*
X0150400Y0144886D01*
X0152422Y0145724D01*
X0154610Y0145724D01*
X0156631Y0144886D01*
X0158178Y0143339D01*
X0158516Y0142525D01*
X0158853Y0143339D01*
X0160400Y0144886D01*
X0162422Y0145724D01*
X0164610Y0145724D01*
X0166631Y0144886D01*
X0168178Y0143339D01*
X0168516Y0142525D01*
X0168812Y0143106D01*
X0169321Y0143807D01*
X0169933Y0144419D01*
X0170633Y0144928D01*
X0171404Y0145321D01*
X0172228Y0145588D01*
X0173083Y0145724D01*
X0173316Y0145724D01*
X0173316Y0140424D01*
X0173716Y0140424D01*
X0173716Y0145724D01*
X0173949Y0145724D01*
X0174804Y0145588D01*
X0175627Y0145321D01*
X0176398Y0144928D01*
X0177099Y0144419D01*
X0177711Y0143807D01*
X0178220Y0143106D01*
X0178516Y0142525D01*
X0178853Y0143339D01*
X0180400Y0144886D01*
X0182422Y0145724D01*
X0184610Y0145724D01*
X0186631Y0144886D01*
X0188178Y0143339D01*
X0189016Y0141318D01*
X0189016Y0139130D01*
X0188178Y0137108D01*
X0186631Y0135561D01*
X0184610Y0134724D01*
X0182422Y0134724D01*
X0180400Y0135561D01*
X0178853Y0137108D01*
X0178516Y0137922D01*
X0178220Y0137341D01*
X0177711Y0136641D01*
X0177099Y0136028D01*
X0176398Y0135520D01*
X0175627Y0135127D01*
X0174804Y0134859D01*
X0173949Y0134724D01*
X0173716Y0134724D01*
X0173716Y0140024D01*
X0173316Y0140024D01*
X0173316Y0134724D01*
X0173083Y0134724D01*
X0172228Y0134859D01*
X0171404Y0135127D01*
X0170633Y0135520D01*
X0169933Y0136028D01*
X0169321Y0136641D01*
X0168812Y0137341D01*
X0168516Y0137922D01*
X0168178Y0137108D01*
X0166631Y0135561D01*
X0164610Y0134724D01*
X0162422Y0134724D01*
X0160400Y0135561D01*
X0158853Y0137108D01*
X0158516Y0137923D01*
X0158178Y0137108D01*
X0156631Y0135561D01*
X0154610Y0134724D01*
X0152422Y0134724D01*
X0150400Y0135561D01*
X0148853Y0137108D01*
X0148516Y0137923D01*
X0148178Y0137108D01*
X0146631Y0135561D01*
X0144610Y0134724D01*
X0142422Y0134724D01*
X0140400Y0135561D01*
X0138853Y0137108D01*
X0138516Y0137923D01*
X0138178Y0137108D01*
X0136631Y0135561D01*
X0134610Y0134724D01*
X0132422Y0134724D01*
X0130400Y0135561D01*
X0128853Y0137108D01*
X0128516Y0137923D01*
X0128178Y0137108D01*
X0126631Y0135561D01*
X0124610Y0134724D01*
X0122422Y0134724D01*
X0120400Y0135561D01*
X0118853Y0137108D01*
X0118516Y0137923D01*
X0118178Y0137108D01*
X0116631Y0135561D01*
X0114610Y0134724D01*
X0112422Y0134724D01*
X0110400Y0135561D01*
X0108853Y0137108D01*
X0108516Y0137923D01*
X0108178Y0137108D01*
X0106631Y0135561D01*
X0104610Y0134724D01*
X0102422Y0134724D01*
X0100400Y0135561D01*
X0098853Y0137108D01*
X0098516Y0137923D01*
X0098178Y0137108D01*
X0096631Y0135561D01*
X0094610Y0134724D01*
X0092422Y0134724D01*
X0090400Y0135561D01*
X0088853Y0137108D01*
X0088516Y0137923D01*
X0088178Y0137108D01*
X0086631Y0135561D01*
X0084610Y0134724D01*
X0082422Y0134724D01*
X0080400Y0135561D01*
X0078853Y0137108D01*
X0078516Y0137923D01*
X0078178Y0137108D01*
X0076631Y0135561D01*
X0074610Y0134724D01*
X0072422Y0134724D01*
X0070400Y0135561D01*
X0068853Y0137108D01*
X0068516Y0137923D01*
X0068178Y0137108D01*
X0066631Y0135561D01*
X0064610Y0134724D01*
X0062422Y0134724D01*
X0060400Y0135561D01*
X0058853Y0137108D01*
X0058516Y0137923D01*
X0058178Y0137108D01*
X0056631Y0135561D01*
X0054610Y0134724D01*
X0052422Y0134724D01*
X0050400Y0135561D01*
X0048853Y0137108D01*
X0048516Y0137922D01*
X0048220Y0137341D01*
X0047711Y0136641D01*
X0047099Y0136028D01*
X0046398Y0135520D01*
X0045627Y0135127D01*
X0044804Y0134859D01*
X0043949Y0134724D01*
X0043716Y0134724D01*
X0043716Y0140024D01*
X0043316Y0140024D01*
X0043316Y0134724D01*
X0043083Y0134724D01*
X0042228Y0134859D01*
X0041404Y0135127D01*
X0040633Y0135520D01*
X0039933Y0136028D01*
X0039321Y0136641D01*
X0039016Y0137060D01*
X0039016Y0135778D01*
X0037961Y0134724D01*
X0029070Y0134724D01*
X0028016Y0135996D02*
X0003800Y0135996D01*
X0003800Y0137594D02*
X0028016Y0137594D01*
X0028016Y0139193D02*
X0003800Y0139193D01*
X0003800Y0140791D02*
X0028016Y0140791D01*
X0028016Y0142390D02*
X0003800Y0142390D01*
X0003800Y0143988D02*
X0028016Y0143988D01*
X0028933Y0145587D02*
X0003800Y0145587D01*
X0003800Y0147185D02*
X0281200Y0147185D01*
X0281200Y0145587D02*
X0264844Y0145587D01*
X0264806Y0145625D02*
X0263529Y0146154D01*
X0262148Y0146154D01*
X0260871Y0145625D01*
X0259894Y0144648D01*
X0259365Y0143371D01*
X0259365Y0141989D01*
X0259894Y0140713D01*
X0260871Y0139736D01*
X0262148Y0139207D01*
X0263529Y0139207D01*
X0264806Y0139736D01*
X0265783Y0140713D01*
X0266312Y0141989D01*
X0266312Y0143371D01*
X0265783Y0144648D01*
X0264806Y0145625D01*
X0266056Y0143988D02*
X0281200Y0143988D01*
X0281200Y0142390D02*
X0266312Y0142390D01*
X0265815Y0140791D02*
X0281200Y0140791D01*
X0281200Y0139193D02*
X0189016Y0139193D01*
X0189016Y0140791D02*
X0259862Y0140791D01*
X0259365Y0142390D02*
X0188572Y0142390D01*
X0187529Y0143988D02*
X0259621Y0143988D01*
X0260833Y0145587D02*
X0184941Y0145587D01*
X0182091Y0145587D02*
X0174809Y0145587D01*
X0173716Y0145587D02*
X0173316Y0145587D01*
X0172223Y0145587D02*
X0164941Y0145587D01*
X0162091Y0145587D02*
X0154941Y0145587D01*
X0152091Y0145587D02*
X0144941Y0145587D01*
X0142091Y0145587D02*
X0134941Y0145587D01*
X0132091Y0145587D02*
X0124941Y0145587D01*
X0122091Y0145587D02*
X0114941Y0145587D01*
X0112091Y0145587D02*
X0104941Y0145587D01*
X0102091Y0145587D02*
X0094941Y0145587D01*
X0092091Y0145587D02*
X0084941Y0145587D01*
X0082091Y0145587D02*
X0074941Y0145587D01*
X0072091Y0145587D02*
X0064941Y0145587D01*
X0062091Y0145587D02*
X0054941Y0145587D01*
X0052091Y0145587D02*
X0044809Y0145587D01*
X0043716Y0145587D02*
X0043316Y0145587D01*
X0042223Y0145587D02*
X0038098Y0145587D01*
X0039016Y0143988D02*
X0039502Y0143988D01*
X0043316Y0143988D02*
X0043716Y0143988D01*
X0043716Y0142390D02*
X0043316Y0142390D01*
X0043316Y0140791D02*
X0043716Y0140791D01*
X0043716Y0139193D02*
X0043316Y0139193D01*
X0043316Y0137594D02*
X0043716Y0137594D01*
X0043716Y0135996D02*
X0043316Y0135996D01*
X0039978Y0135996D02*
X0039016Y0135996D01*
X0047053Y0135996D02*
X0049966Y0135996D01*
X0048652Y0137594D02*
X0048349Y0137594D01*
X0047529Y0143988D02*
X0049502Y0143988D01*
X0044319Y0152331D02*
X0045669Y0153681D01*
X0046400Y0155445D01*
X0046400Y0163355D01*
X0045669Y0165119D01*
X0044319Y0166469D01*
X0043900Y0166643D01*
X0043900Y0177757D01*
X0044319Y0177931D01*
X0045669Y0179281D01*
X0046400Y0181045D01*
X0046400Y0188955D01*
X0045669Y0190719D01*
X0044319Y0192069D01*
X0042555Y0192800D01*
X0040645Y0192800D01*
X0038881Y0192069D01*
X0037531Y0190719D01*
X0036800Y0188955D01*
X0036800Y0181045D01*
X0037531Y0179281D01*
X0038881Y0177931D01*
X0039300Y0177757D01*
X0039300Y0166643D01*
X0038881Y0166469D01*
X0037531Y0165119D01*
X0036800Y0163355D01*
X0036800Y0155445D01*
X0037531Y0153681D01*
X0038881Y0152331D01*
X0040645Y0151600D01*
X0042555Y0151600D01*
X0044319Y0152331D01*
X0043474Y0151981D02*
X0057526Y0151981D01*
X0056681Y0152331D02*
X0058445Y0151600D01*
X0060355Y0151600D01*
X0062119Y0152331D01*
X0063469Y0153681D01*
X0064200Y0155445D01*
X0064200Y0163355D01*
X0063469Y0165119D01*
X0062119Y0166469D01*
X0060355Y0167200D01*
X0058445Y0167200D01*
X0056681Y0166469D01*
X0055331Y0165119D01*
X0054600Y0163355D01*
X0054600Y0155445D01*
X0055331Y0153681D01*
X0056681Y0152331D01*
X0055433Y0153579D02*
X0045567Y0153579D01*
X0046289Y0155178D02*
X0054711Y0155178D01*
X0054600Y0156776D02*
X0046400Y0156776D01*
X0046400Y0158375D02*
X0054600Y0158375D01*
X0054600Y0159973D02*
X0046400Y0159973D01*
X0046400Y0161572D02*
X0054600Y0161572D01*
X0054600Y0163170D02*
X0046400Y0163170D01*
X0045814Y0164769D02*
X0055186Y0164769D01*
X0056579Y0166367D02*
X0044421Y0166367D01*
X0043900Y0167966D02*
X0081478Y0167966D01*
X0081512Y0168000D02*
X0078700Y0165188D01*
X0078700Y0163400D01*
X0083300Y0163400D01*
X0083300Y0168000D01*
X0081512Y0168000D01*
X0081512Y0168400D02*
X0083300Y0168400D01*
X0083300Y0173000D01*
X0083700Y0173000D01*
X0083700Y0173400D01*
X0088300Y0173400D01*
X0088300Y0175188D01*
X0085488Y0178000D01*
X0083700Y0178000D01*
X0083700Y0173400D01*
X0083300Y0173400D01*
X0083300Y0178000D01*
X0081512Y0178000D01*
X0078700Y0175188D01*
X0078700Y0173400D01*
X0083300Y0173400D01*
X0083300Y0173000D01*
X0078700Y0173000D01*
X0078700Y0171212D01*
X0081512Y0168400D01*
X0080348Y0169564D02*
X0043900Y0169564D01*
X0043900Y0171163D02*
X0078749Y0171163D01*
X0078700Y0172761D02*
X0043900Y0172761D01*
X0043900Y0174360D02*
X0078700Y0174360D01*
X0079470Y0175958D02*
X0043900Y0175958D01*
X0043900Y0177557D02*
X0057584Y0177557D01*
X0058445Y0177200D02*
X0060355Y0177200D01*
X0062119Y0177931D01*
X0063469Y0179281D01*
X0064200Y0181045D01*
X0064200Y0188955D01*
X0063469Y0190719D01*
X0062119Y0192069D01*
X0060355Y0192800D01*
X0058445Y0192800D01*
X0056681Y0192069D01*
X0055331Y0190719D01*
X0054600Y0188955D01*
X0054600Y0181045D01*
X0055331Y0179281D01*
X0056681Y0177931D01*
X0058445Y0177200D01*
X0061216Y0177557D02*
X0081069Y0177557D01*
X0083300Y0177557D02*
X0083700Y0177557D01*
X0083700Y0175958D02*
X0083300Y0175958D01*
X0083300Y0174360D02*
X0083700Y0174360D01*
X0083700Y0173000D02*
X0088300Y0173000D01*
X0088300Y0171212D01*
X0085488Y0168400D01*
X0083700Y0168400D01*
X0083700Y0173000D01*
X0083700Y0172761D02*
X0083300Y0172761D01*
X0083300Y0171163D02*
X0083700Y0171163D01*
X0083700Y0169564D02*
X0083300Y0169564D01*
X0083300Y0167966D02*
X0083700Y0167966D01*
X0083700Y0168000D02*
X0085488Y0168000D01*
X0088300Y0165188D01*
X0088300Y0163400D01*
X0083700Y0163400D01*
X0083700Y0163000D01*
X0088300Y0163000D01*
X0088300Y0161212D01*
X0085488Y0158400D01*
X0083700Y0158400D01*
X0083700Y0163000D01*
X0083300Y0163000D01*
X0083300Y0158400D01*
X0081512Y0158400D01*
X0078700Y0161212D01*
X0078700Y0163000D01*
X0083300Y0163000D01*
X0083300Y0163400D01*
X0083700Y0163400D01*
X0083700Y0168000D01*
X0083700Y0166367D02*
X0083300Y0166367D01*
X0083300Y0164769D02*
X0083700Y0164769D01*
X0083700Y0163170D02*
X0093300Y0163170D01*
X0093300Y0163000D02*
X0088700Y0163000D01*
X0088700Y0161212D01*
X0091512Y0158400D01*
X0093300Y0158400D01*
X0093300Y0163000D01*
X0093700Y0163000D01*
X0093700Y0163400D01*
X0098300Y0163400D01*
X0098300Y0165188D01*
X0095488Y0168000D01*
X0093700Y0168000D01*
X0093700Y0163400D01*
X0093300Y0163400D01*
X0093300Y0168000D01*
X0091512Y0168000D01*
X0088700Y0165188D01*
X0088700Y0163400D01*
X0093300Y0163400D01*
X0093300Y0163000D01*
X0093700Y0163000D02*
X0093700Y0158400D01*
X0095488Y0158400D01*
X0098300Y0161212D01*
X0098300Y0163000D01*
X0093700Y0163000D01*
X0093700Y0163170D02*
X0098700Y0163170D01*
X0098700Y0161572D02*
X0098300Y0161572D01*
X0098700Y0161212D02*
X0101512Y0158400D01*
X0105488Y0158400D01*
X0108300Y0161212D01*
X0108300Y0165188D01*
X0105488Y0168000D01*
X0101512Y0168000D01*
X0098700Y0165188D01*
X0098700Y0161212D01*
X0099939Y0159973D02*
X0097061Y0159973D01*
X0093700Y0159973D02*
X0093300Y0159973D01*
X0093300Y0161572D02*
X0093700Y0161572D01*
X0093700Y0164769D02*
X0093300Y0164769D01*
X0093300Y0166367D02*
X0093700Y0166367D01*
X0093700Y0167966D02*
X0093300Y0167966D01*
X0093300Y0168400D02*
X0093300Y0173000D01*
X0093700Y0173000D01*
X0093700Y0173400D01*
X0093300Y0173400D01*
X0093300Y0178000D01*
X0092696Y0178000D01*
X0092859Y0178393D01*
X0092859Y0179306D01*
X0096453Y0182900D01*
X0121866Y0182900D01*
X0122524Y0182242D01*
X0123806Y0181711D01*
X0125194Y0181711D01*
X0126476Y0182242D01*
X0127458Y0183224D01*
X0127989Y0184506D01*
X0127989Y0185894D01*
X0127458Y0187176D01*
X0126476Y0188158D01*
X0125194Y0188689D01*
X0123806Y0188689D01*
X0122524Y0188158D01*
X0121866Y0187500D01*
X0094547Y0187500D01*
X0093200Y0186153D01*
X0089606Y0182559D01*
X0088693Y0182559D01*
X0087416Y0182030D01*
X0086438Y0181052D01*
X0085909Y0179775D01*
X0085909Y0178393D01*
X0086438Y0177116D01*
X0087416Y0176138D01*
X0088693Y0175609D01*
X0089121Y0175609D01*
X0088700Y0175188D01*
X0088700Y0173400D01*
X0093300Y0173400D01*
X0093300Y0173000D01*
X0088700Y0173000D01*
X0088700Y0171212D01*
X0091512Y0168400D01*
X0093300Y0168400D01*
X0093700Y0168400D02*
X0095488Y0168400D01*
X0098300Y0171212D01*
X0098300Y0173000D01*
X0093700Y0173000D01*
X0093700Y0168400D01*
X0093700Y0169564D02*
X0093300Y0169564D01*
X0093300Y0171163D02*
X0093700Y0171163D01*
X0093700Y0172761D02*
X0093300Y0172761D01*
X0093700Y0173400D02*
X0098300Y0173400D01*
X0098300Y0175188D01*
X0095488Y0178000D01*
X0093700Y0178000D01*
X0093700Y0173400D01*
X0093700Y0174360D02*
X0093300Y0174360D01*
X0093300Y0175958D02*
X0093700Y0175958D01*
X0093700Y0177557D02*
X0093300Y0177557D01*
X0092859Y0179155D02*
X0136203Y0179155D01*
X0135047Y0178000D02*
X0131512Y0178000D01*
X0128700Y0175188D01*
X0128700Y0171212D01*
X0131512Y0168400D01*
X0135488Y0168400D01*
X0138300Y0171212D01*
X0138300Y0174747D01*
X0138700Y0175147D01*
X0138700Y0171212D01*
X0141512Y0168400D01*
X0145488Y0168400D01*
X0148300Y0171212D01*
X0148300Y0175188D01*
X0145488Y0178000D01*
X0141553Y0178000D01*
X0149453Y0185900D01*
X0150800Y0187247D01*
X0150800Y0197566D01*
X0151200Y0197966D01*
X0151200Y0177688D01*
X0148700Y0175188D01*
X0148700Y0171212D01*
X0151512Y0168400D01*
X0155488Y0168400D01*
X0158300Y0171212D01*
X0158300Y0175188D01*
X0155800Y0177688D01*
X0155800Y0201566D01*
X0156458Y0202224D01*
X0156989Y0203506D01*
X0156989Y0204894D01*
X0156458Y0206176D01*
X0155476Y0207158D01*
X0154892Y0207400D01*
X0197926Y0207400D01*
X0214279Y0191047D01*
X0215347Y0189979D01*
X0216744Y0189400D01*
X0249700Y0189400D01*
X0249700Y0186188D01*
X0248700Y0185188D01*
X0248700Y0181212D01*
X0251512Y0178400D01*
X0255488Y0178400D01*
X0258300Y0181212D01*
X0258300Y0185188D01*
X0257300Y0186188D01*
X0257300Y0189400D01*
X0259700Y0189400D01*
X0259700Y0186188D01*
X0258700Y0185188D01*
X0258700Y0181212D01*
X0261512Y0178400D01*
X0265488Y0178400D01*
X0268300Y0181212D01*
X0268300Y0185188D01*
X0267300Y0186188D01*
X0267300Y0190212D01*
X0268300Y0191212D01*
X0268300Y0195188D01*
X0265488Y0198000D01*
X0261512Y0198000D01*
X0260512Y0197000D01*
X0256488Y0197000D01*
X0255488Y0198000D01*
X0251512Y0198000D01*
X0250512Y0197000D01*
X0219074Y0197000D01*
X0201653Y0214421D01*
X0200256Y0215000D01*
X0056744Y0215000D01*
X0055347Y0214421D01*
X0051279Y0210353D01*
X0050700Y0208956D01*
X0050700Y0207400D01*
X0050304Y0207004D01*
X0049550Y0205185D01*
X0049550Y0203215D01*
X0050304Y0201396D01*
X0051696Y0200004D01*
X0053515Y0199250D01*
X0055485Y0199250D01*
X0057304Y0200004D01*
X0058696Y0201396D01*
X0059450Y0203215D01*
X0059450Y0205185D01*
X0058696Y0207004D01*
X0058687Y0207013D01*
X0059074Y0207400D01*
X0060700Y0207400D01*
X0059550Y0206250D01*
X0059550Y0202150D01*
X0062450Y0199250D01*
X0066550Y0199250D01*
X0069450Y0202150D01*
X0069450Y0206250D01*
X0068300Y0207400D01*
X0152108Y0207400D01*
X0151524Y0207158D01*
X0150542Y0206176D01*
X0150011Y0204894D01*
X0150011Y0203506D01*
X0150089Y0203318D01*
X0149194Y0203689D01*
X0147806Y0203689D01*
X0146524Y0203158D01*
X0145542Y0202176D01*
X0145011Y0200894D01*
X0145011Y0199506D01*
X0145542Y0198224D01*
X0146200Y0197566D01*
X0146200Y0189153D01*
X0135047Y0178000D01*
X0137801Y0180754D02*
X0094307Y0180754D01*
X0095905Y0182352D02*
X0122413Y0182352D01*
X0126587Y0182352D02*
X0139400Y0182352D01*
X0140998Y0183951D02*
X0127759Y0183951D01*
X0127989Y0185549D02*
X0142597Y0185549D01*
X0144195Y0187148D02*
X0127470Y0187148D01*
X0131069Y0177557D02*
X0115931Y0177557D01*
X0115488Y0178000D02*
X0111512Y0178000D01*
X0108700Y0175188D01*
X0108700Y0171212D01*
X0111512Y0168400D01*
X0115488Y0168400D01*
X0118300Y0171212D01*
X0118300Y0175188D01*
X0115488Y0178000D01*
X0117530Y0175958D02*
X0129470Y0175958D01*
X0128700Y0174360D02*
X0118300Y0174360D01*
X0118300Y0172761D02*
X0128700Y0172761D01*
X0128749Y0171163D02*
X0118251Y0171163D01*
X0116652Y0169564D02*
X0130348Y0169564D01*
X0131512Y0168000D02*
X0128700Y0165188D01*
X0128700Y0161212D01*
X0131512Y0158400D01*
X0135488Y0158400D01*
X0138300Y0161212D01*
X0138300Y0165188D01*
X0135488Y0168000D01*
X0131512Y0168000D01*
X0131478Y0167966D02*
X0115522Y0167966D01*
X0115488Y0168000D02*
X0111512Y0168000D01*
X0108700Y0165188D01*
X0108700Y0161212D01*
X0111512Y0158400D01*
X0115488Y0158400D01*
X0118300Y0161212D01*
X0118300Y0165188D01*
X0115488Y0168000D01*
X0117121Y0166367D02*
X0129879Y0166367D01*
X0128700Y0164769D02*
X0118300Y0164769D01*
X0118300Y0163170D02*
X0128700Y0163170D01*
X0128700Y0161572D02*
X0118300Y0161572D01*
X0117061Y0159973D02*
X0129939Y0159973D01*
X0135522Y0167966D02*
X0141478Y0167966D01*
X0141512Y0168000D02*
X0138700Y0165188D01*
X0138700Y0161212D01*
X0141512Y0158400D01*
X0145488Y0158400D01*
X0148300Y0161212D01*
X0148300Y0165188D01*
X0145488Y0168000D01*
X0141512Y0168000D01*
X0140348Y0169564D02*
X0136652Y0169564D01*
X0138251Y0171163D02*
X0138749Y0171163D01*
X0138700Y0172761D02*
X0138300Y0172761D01*
X0138300Y0174360D02*
X0138700Y0174360D01*
X0142708Y0179155D02*
X0151200Y0179155D01*
X0151200Y0180754D02*
X0144307Y0180754D01*
X0145905Y0182352D02*
X0151200Y0182352D01*
X0151200Y0183951D02*
X0147504Y0183951D01*
X0149102Y0185549D02*
X0151200Y0185549D01*
X0151200Y0187148D02*
X0150701Y0187148D01*
X0150800Y0188746D02*
X0151200Y0188746D01*
X0151200Y0190345D02*
X0150800Y0190345D01*
X0150800Y0191943D02*
X0151200Y0191943D01*
X0151200Y0193542D02*
X0150800Y0193542D01*
X0150800Y0195140D02*
X0151200Y0195140D01*
X0151200Y0196739D02*
X0150800Y0196739D01*
X0155800Y0196739D02*
X0208587Y0196739D01*
X0206989Y0198337D02*
X0155800Y0198337D01*
X0155800Y0199936D02*
X0205390Y0199936D01*
X0203791Y0201534D02*
X0155800Y0201534D01*
X0156834Y0203133D02*
X0202193Y0203133D01*
X0200594Y0204732D02*
X0156989Y0204732D01*
X0156304Y0206330D02*
X0198996Y0206330D01*
X0203350Y0212724D02*
X0210778Y0212724D01*
X0210400Y0211811D02*
X0210400Y0208589D01*
X0211633Y0205612D01*
X0213912Y0203333D01*
X0216889Y0202100D01*
X0220111Y0202100D01*
X0223088Y0203333D01*
X0225367Y0205612D01*
X0226600Y0208589D01*
X0226600Y0211811D01*
X0225367Y0214788D01*
X0223088Y0217067D01*
X0220111Y0218300D01*
X0216889Y0218300D01*
X0213912Y0217067D01*
X0211633Y0214788D01*
X0210400Y0211811D01*
X0210400Y0211126D02*
X0204948Y0211126D01*
X0206547Y0209527D02*
X0210400Y0209527D01*
X0210673Y0207929D02*
X0208145Y0207929D01*
X0209744Y0206330D02*
X0211336Y0206330D01*
X0211342Y0204732D02*
X0212513Y0204732D01*
X0212941Y0203133D02*
X0214395Y0203133D01*
X0214539Y0201534D02*
X0248700Y0201534D01*
X0248700Y0201212D02*
X0248700Y0205188D01*
X0251512Y0208000D01*
X0255488Y0208000D01*
X0258300Y0205188D01*
X0258300Y0201212D01*
X0255488Y0198400D01*
X0251512Y0198400D01*
X0248700Y0201212D01*
X0249976Y0199936D02*
X0216138Y0199936D01*
X0217737Y0198337D02*
X0281200Y0198337D01*
X0281200Y0196739D02*
X0266749Y0196739D01*
X0265488Y0198400D02*
X0261512Y0198400D01*
X0258700Y0201212D01*
X0258700Y0205188D01*
X0261512Y0208000D01*
X0265488Y0208000D01*
X0268300Y0205188D01*
X0268300Y0201212D01*
X0265488Y0198400D01*
X0267024Y0199936D02*
X0281200Y0199936D01*
X0281200Y0201534D02*
X0268300Y0201534D01*
X0268300Y0203133D02*
X0281200Y0203133D01*
X0281200Y0204732D02*
X0268300Y0204732D01*
X0267158Y0206330D02*
X0281200Y0206330D01*
X0281200Y0207929D02*
X0265560Y0207929D01*
X0265488Y0208400D02*
X0268300Y0211212D01*
X0268300Y0215188D01*
X0265488Y0218000D01*
X0261512Y0218000D01*
X0258700Y0215188D01*
X0258700Y0211212D01*
X0261512Y0208400D01*
X0265488Y0208400D01*
X0266615Y0209527D02*
X0281200Y0209527D01*
X0281200Y0211126D02*
X0268214Y0211126D01*
X0268300Y0212724D02*
X0281200Y0212724D01*
X0281200Y0214323D02*
X0268300Y0214323D01*
X0267567Y0215921D02*
X0281200Y0215921D01*
X0281200Y0217520D02*
X0265969Y0217520D01*
X0265488Y0218400D02*
X0261512Y0218400D01*
X0259012Y0220900D01*
X0257988Y0220900D01*
X0255488Y0218400D01*
X0251512Y0218400D01*
X0249012Y0220900D01*
X0246547Y0220900D01*
X0231547Y0235900D01*
X0217197Y0235900D01*
X0216539Y0235242D01*
X0215257Y0234711D01*
X0213869Y0234711D01*
X0212587Y0235242D01*
X0211605Y0236224D01*
X0211074Y0237506D01*
X0211074Y0238894D01*
X0211605Y0240176D01*
X0212587Y0241158D01*
X0213869Y0241689D01*
X0215257Y0241689D01*
X0216539Y0241158D01*
X0217197Y0240500D01*
X0233453Y0240500D01*
X0248453Y0225500D01*
X0249012Y0225500D01*
X0251512Y0228000D01*
X0255488Y0228000D01*
X0257988Y0225500D01*
X0259012Y0225500D01*
X0261512Y0228000D01*
X0265488Y0228000D01*
X0268300Y0225188D01*
X0268300Y0221212D01*
X0265488Y0218400D01*
X0266206Y0219118D02*
X0281200Y0219118D01*
X0281200Y0220717D02*
X0267805Y0220717D01*
X0268300Y0222315D02*
X0281200Y0222315D01*
X0281200Y0223914D02*
X0268300Y0223914D01*
X0267976Y0225512D02*
X0281200Y0225512D01*
X0281200Y0227111D02*
X0266378Y0227111D01*
X0265488Y0228400D02*
X0268300Y0231212D01*
X0268300Y0235188D01*
X0265488Y0238000D01*
X0261512Y0238000D01*
X0259012Y0235500D01*
X0257988Y0235500D01*
X0255488Y0238000D01*
X0251512Y0238000D01*
X0249012Y0235500D01*
X0247453Y0235500D01*
X0241800Y0241153D01*
X0241800Y0261153D01*
X0237800Y0265153D01*
X0237053Y0265900D01*
X0239547Y0265900D01*
X0243200Y0262247D01*
X0244547Y0260900D01*
X0249012Y0260900D01*
X0251512Y0258400D01*
X0255488Y0258400D01*
X0258300Y0261212D01*
X0258300Y0265188D01*
X0255488Y0268000D01*
X0251512Y0268000D01*
X0249012Y0265500D01*
X0246453Y0265500D01*
X0242242Y0269711D01*
X0250201Y0269711D01*
X0251512Y0268400D01*
X0255488Y0268400D01*
X0258300Y0271212D01*
X0258300Y0275188D01*
X0255488Y0278000D01*
X0251512Y0278000D01*
X0248700Y0275188D01*
X0248700Y0274311D01*
X0195908Y0274311D01*
X0195989Y0274506D01*
X0195989Y0275436D01*
X0201453Y0280900D01*
X0249012Y0280900D01*
X0251512Y0278400D01*
X0255488Y0278400D01*
X0258300Y0281212D01*
X0258300Y0285188D01*
X0255488Y0288000D01*
X0251945Y0288000D01*
X0251779Y0288400D01*
X0255488Y0288400D01*
X0258300Y0291212D01*
X0258300Y0295188D01*
X0255488Y0298000D01*
X0251512Y0298000D01*
X0248700Y0295188D01*
X0248700Y0293500D01*
X0247557Y0293500D01*
X0247975Y0294509D01*
X0247975Y0295891D01*
X0247446Y0297168D01*
X0246468Y0298146D01*
X0245191Y0298675D01*
X0243809Y0298675D01*
X0242532Y0298146D01*
X0241886Y0297500D01*
X0229134Y0297500D01*
X0228476Y0298158D01*
X0227194Y0298689D01*
X0225806Y0298689D01*
X0224524Y0298158D01*
X0223542Y0297176D01*
X0223011Y0295894D01*
X0223011Y0294506D01*
X0223428Y0293500D01*
X0222134Y0293500D01*
X0221476Y0294158D01*
X0220194Y0294689D01*
X0218806Y0294689D01*
X0217524Y0294158D01*
X0216542Y0293176D01*
X0216011Y0291894D01*
X0216011Y0290506D01*
X0216542Y0289224D01*
X0216755Y0289011D01*
X0216542Y0288798D01*
X0216011Y0287516D01*
X0216011Y0286128D01*
X0216271Y0285500D01*
X0199547Y0285500D01*
X0192736Y0278689D01*
X0191806Y0278689D01*
X0190524Y0278158D01*
X0189542Y0277176D01*
X0189011Y0275894D01*
X0189011Y0275162D01*
X0188194Y0275500D01*
X0186806Y0275500D01*
X0185524Y0274969D01*
X0184542Y0273987D01*
X0184011Y0272705D01*
X0184011Y0271317D01*
X0184542Y0270035D01*
X0185524Y0269053D01*
X0186806Y0268522D01*
X0188194Y0268522D01*
X0189011Y0268860D01*
X0189011Y0267506D01*
X0189542Y0266224D01*
X0190524Y0265242D01*
X0191806Y0264711D01*
X0193194Y0264711D01*
X0194476Y0265242D01*
X0195134Y0265900D01*
X0212428Y0265900D01*
X0212011Y0264894D01*
X0212011Y0263506D01*
X0212542Y0262224D01*
X0213524Y0261242D01*
X0214806Y0260711D01*
X0216194Y0260711D01*
X0217476Y0261242D01*
X0218134Y0261900D01*
X0234547Y0261900D01*
X0237200Y0259247D01*
X0237200Y0239247D01*
X0244200Y0232247D01*
X0245547Y0230900D01*
X0249012Y0230900D01*
X0251512Y0228400D01*
X0255488Y0228400D01*
X0257988Y0230900D01*
X0259012Y0230900D01*
X0261512Y0228400D01*
X0265488Y0228400D01*
X0265797Y0228709D02*
X0281200Y0228709D01*
X0281200Y0230308D02*
X0267396Y0230308D01*
X0268300Y0231906D02*
X0281200Y0231906D01*
X0281200Y0233505D02*
X0268300Y0233505D01*
X0268300Y0235103D02*
X0281200Y0235103D01*
X0281200Y0236702D02*
X0266786Y0236702D01*
X0260214Y0236702D02*
X0256786Y0236702D01*
X0257396Y0230308D02*
X0259604Y0230308D01*
X0261203Y0228709D02*
X0255797Y0228709D01*
X0256378Y0227111D02*
X0260622Y0227111D01*
X0259024Y0225512D02*
X0257976Y0225512D01*
X0257805Y0220717D02*
X0259195Y0220717D01*
X0260794Y0219118D02*
X0256206Y0219118D01*
X0255488Y0218000D02*
X0251512Y0218000D01*
X0248700Y0215188D01*
X0248700Y0211212D01*
X0251512Y0208400D01*
X0255488Y0208400D01*
X0258300Y0211212D01*
X0258300Y0215188D01*
X0255488Y0218000D01*
X0255969Y0217520D02*
X0261031Y0217520D01*
X0259433Y0215921D02*
X0257567Y0215921D01*
X0258300Y0214323D02*
X0258700Y0214323D01*
X0258700Y0212724D02*
X0258300Y0212724D01*
X0258214Y0211126D02*
X0258786Y0211126D01*
X0260385Y0209527D02*
X0256615Y0209527D01*
X0255560Y0207929D02*
X0261440Y0207929D01*
X0259842Y0206330D02*
X0257158Y0206330D01*
X0258300Y0204732D02*
X0258700Y0204732D01*
X0258700Y0203133D02*
X0258300Y0203133D01*
X0258300Y0201534D02*
X0258700Y0201534D01*
X0259976Y0199936D02*
X0257024Y0199936D01*
X0248700Y0203133D02*
X0222605Y0203133D01*
X0224487Y0204732D02*
X0248700Y0204732D01*
X0249842Y0206330D02*
X0225664Y0206330D01*
X0226326Y0207929D02*
X0251440Y0207929D01*
X0250385Y0209527D02*
X0226600Y0209527D01*
X0226600Y0211126D02*
X0248786Y0211126D01*
X0248700Y0212724D02*
X0226222Y0212724D01*
X0225560Y0214323D02*
X0248700Y0214323D01*
X0249433Y0215921D02*
X0224234Y0215921D01*
X0221995Y0217520D02*
X0237806Y0217520D01*
X0238347Y0216979D02*
X0239744Y0216400D01*
X0241256Y0216400D01*
X0242653Y0216979D01*
X0243721Y0218047D01*
X0244300Y0219444D01*
X0244300Y0220956D01*
X0243721Y0222353D01*
X0236653Y0229421D01*
X0235256Y0230000D01*
X0233744Y0230000D01*
X0221744Y0230000D01*
X0220347Y0229421D01*
X0219279Y0228353D01*
X0218700Y0226956D01*
X0218700Y0225444D01*
X0219279Y0224047D01*
X0220347Y0222979D01*
X0221744Y0222400D01*
X0232926Y0222400D01*
X0238347Y0216979D01*
X0236208Y0219118D02*
X0003800Y0219118D01*
X0003800Y0217520D02*
X0215005Y0217520D01*
X0212766Y0215921D02*
X0003800Y0215921D01*
X0003800Y0214323D02*
X0055249Y0214323D01*
X0053650Y0212724D02*
X0003800Y0212724D01*
X0003800Y0211126D02*
X0052052Y0211126D01*
X0050937Y0209527D02*
X0003800Y0209527D01*
X0003800Y0207929D02*
X0050700Y0207929D01*
X0050024Y0206330D02*
X0003800Y0206330D01*
X0003800Y0204732D02*
X0049550Y0204732D01*
X0049584Y0203133D02*
X0003800Y0203133D01*
X0003800Y0201534D02*
X0050246Y0201534D01*
X0051859Y0199936D02*
X0003800Y0199936D01*
X0003800Y0198337D02*
X0145495Y0198337D01*
X0145011Y0199936D02*
X0067236Y0199936D01*
X0068835Y0201534D02*
X0145276Y0201534D01*
X0146499Y0203133D02*
X0069450Y0203133D01*
X0069450Y0204732D02*
X0150011Y0204732D01*
X0150696Y0206330D02*
X0069370Y0206330D01*
X0061764Y0199936D02*
X0057141Y0199936D01*
X0058754Y0201534D02*
X0060165Y0201534D01*
X0059550Y0203133D02*
X0059416Y0203133D01*
X0059450Y0204732D02*
X0059550Y0204732D01*
X0059630Y0206330D02*
X0058976Y0206330D01*
X0056555Y0191943D02*
X0044445Y0191943D01*
X0045824Y0190345D02*
X0055176Y0190345D01*
X0054600Y0188746D02*
X0046400Y0188746D01*
X0046400Y0187148D02*
X0054600Y0187148D01*
X0054600Y0185549D02*
X0046400Y0185549D01*
X0046400Y0183951D02*
X0054600Y0183951D01*
X0054600Y0182352D02*
X0046400Y0182352D01*
X0046279Y0180754D02*
X0054721Y0180754D01*
X0055456Y0179155D02*
X0045544Y0179155D01*
X0039300Y0177557D02*
X0031700Y0177557D01*
X0031700Y0177757D02*
X0032119Y0177931D01*
X0033469Y0179281D01*
X0034200Y0181045D01*
X0034200Y0188955D01*
X0033469Y0190719D01*
X0032119Y0192069D01*
X0030355Y0192800D01*
X0028445Y0192800D01*
X0026681Y0192069D01*
X0025331Y0190719D01*
X0024600Y0188955D01*
X0024600Y0181045D01*
X0025331Y0179281D01*
X0026681Y0177931D01*
X0027100Y0177757D01*
X0027100Y0166643D01*
X0026681Y0166469D01*
X0025331Y0165119D01*
X0024600Y0163355D01*
X0024600Y0155445D01*
X0025331Y0153681D01*
X0026681Y0152331D01*
X0028445Y0151600D01*
X0030355Y0151600D01*
X0032119Y0152331D01*
X0033469Y0153681D01*
X0034200Y0155445D01*
X0034200Y0163355D01*
X0033469Y0165119D01*
X0032119Y0166469D01*
X0031700Y0166643D01*
X0031700Y0177757D01*
X0031700Y0175958D02*
X0039300Y0175958D01*
X0039300Y0174360D02*
X0031700Y0174360D01*
X0031700Y0172761D02*
X0039300Y0172761D01*
X0039300Y0171163D02*
X0031700Y0171163D01*
X0031700Y0169564D02*
X0039300Y0169564D01*
X0039300Y0167966D02*
X0031700Y0167966D01*
X0032221Y0166367D02*
X0038779Y0166367D01*
X0037386Y0164769D02*
X0033614Y0164769D01*
X0034200Y0163170D02*
X0036800Y0163170D01*
X0036800Y0161572D02*
X0034200Y0161572D01*
X0034200Y0159973D02*
X0036800Y0159973D01*
X0036800Y0158375D02*
X0034200Y0158375D01*
X0034200Y0156776D02*
X0036800Y0156776D01*
X0036911Y0155178D02*
X0034089Y0155178D01*
X0033367Y0153579D02*
X0037633Y0153579D01*
X0039726Y0151981D02*
X0031274Y0151981D01*
X0027526Y0151981D02*
X0013474Y0151981D01*
X0014319Y0152331D02*
X0015669Y0153681D01*
X0016400Y0155445D01*
X0016400Y0163355D01*
X0015669Y0165119D01*
X0014319Y0166469D01*
X0012555Y0167200D01*
X0010645Y0167200D01*
X0008881Y0166469D01*
X0007531Y0165119D01*
X0006800Y0163355D01*
X0006800Y0155445D01*
X0007531Y0153681D01*
X0008881Y0152331D01*
X0010645Y0151600D01*
X0012555Y0151600D01*
X0014319Y0152331D01*
X0015567Y0153579D02*
X0025433Y0153579D01*
X0024711Y0155178D02*
X0016289Y0155178D01*
X0016400Y0156776D02*
X0024600Y0156776D01*
X0024600Y0158375D02*
X0016400Y0158375D01*
X0016400Y0159973D02*
X0024600Y0159973D01*
X0024600Y0161572D02*
X0016400Y0161572D01*
X0016400Y0163170D02*
X0024600Y0163170D01*
X0025186Y0164769D02*
X0015814Y0164769D01*
X0014421Y0166367D02*
X0026579Y0166367D01*
X0027100Y0167966D02*
X0003800Y0167966D01*
X0003800Y0169564D02*
X0027100Y0169564D01*
X0027100Y0171163D02*
X0003800Y0171163D01*
X0003800Y0172761D02*
X0027100Y0172761D01*
X0027100Y0174360D02*
X0003800Y0174360D01*
X0003800Y0175958D02*
X0027100Y0175958D01*
X0027100Y0177557D02*
X0013416Y0177557D01*
X0012555Y0177200D02*
X0014319Y0177931D01*
X0015669Y0179281D01*
X0016400Y0181045D01*
X0016400Y0188955D01*
X0015669Y0190719D01*
X0014319Y0192069D01*
X0012555Y0192800D01*
X0010645Y0192800D01*
X0008881Y0192069D01*
X0007531Y0190719D01*
X0006800Y0188955D01*
X0006800Y0181045D01*
X0007531Y0179281D01*
X0008881Y0177931D01*
X0010645Y0177200D01*
X0012555Y0177200D01*
X0009784Y0177557D02*
X0003800Y0177557D01*
X0003800Y0179155D02*
X0007656Y0179155D01*
X0006921Y0180754D02*
X0003800Y0180754D01*
X0003800Y0182352D02*
X0006800Y0182352D01*
X0006800Y0183951D02*
X0003800Y0183951D01*
X0003800Y0185549D02*
X0006800Y0185549D01*
X0006800Y0187148D02*
X0003800Y0187148D01*
X0003800Y0188746D02*
X0006800Y0188746D01*
X0007376Y0190345D02*
X0003800Y0190345D01*
X0003800Y0191943D02*
X0008755Y0191943D01*
X0003800Y0193542D02*
X0146200Y0193542D01*
X0146200Y0195140D02*
X0003800Y0195140D01*
X0003800Y0196739D02*
X0146200Y0196739D01*
X0146200Y0191943D02*
X0062245Y0191943D01*
X0063624Y0190345D02*
X0146200Y0190345D01*
X0145794Y0188746D02*
X0064200Y0188746D01*
X0064200Y0187148D02*
X0094195Y0187148D01*
X0092597Y0185549D02*
X0064200Y0185549D01*
X0064200Y0183951D02*
X0090998Y0183951D01*
X0088194Y0182352D02*
X0064200Y0182352D01*
X0064079Y0180754D02*
X0086314Y0180754D01*
X0085909Y0179155D02*
X0063344Y0179155D01*
X0062221Y0166367D02*
X0079879Y0166367D01*
X0078700Y0164769D02*
X0063614Y0164769D01*
X0064200Y0163170D02*
X0083300Y0163170D01*
X0083300Y0161572D02*
X0083700Y0161572D01*
X0083700Y0159973D02*
X0083300Y0159973D01*
X0079939Y0159973D02*
X0064200Y0159973D01*
X0064200Y0158375D02*
X0281200Y0158375D01*
X0281200Y0159973D02*
X0267061Y0159973D01*
X0268300Y0161212D02*
X0265488Y0158400D01*
X0263700Y0158400D01*
X0263700Y0163000D01*
X0263700Y0163400D01*
X0263300Y0163400D01*
X0263300Y0168000D01*
X0261512Y0168000D01*
X0258700Y0165188D01*
X0258700Y0163400D01*
X0263300Y0163400D01*
X0263300Y0163000D01*
X0258700Y0163000D01*
X0258700Y0161212D01*
X0261512Y0158400D01*
X0263300Y0158400D01*
X0263300Y0163000D01*
X0263700Y0163000D01*
X0268300Y0163000D01*
X0268300Y0161212D01*
X0268300Y0161572D02*
X0281200Y0161572D01*
X0281200Y0163170D02*
X0263700Y0163170D01*
X0263700Y0163400D02*
X0268300Y0163400D01*
X0268300Y0165188D01*
X0265488Y0168000D01*
X0263700Y0168000D01*
X0263700Y0163400D01*
X0263300Y0163170D02*
X0253700Y0163170D01*
X0253700Y0163000D02*
X0253700Y0163400D01*
X0253300Y0163400D01*
X0253300Y0168000D01*
X0251512Y0168000D01*
X0248700Y0165188D01*
X0248700Y0163400D01*
X0253300Y0163400D01*
X0253300Y0163000D01*
X0248700Y0163000D01*
X0248700Y0161212D01*
X0251512Y0158400D01*
X0253300Y0158400D01*
X0253300Y0163000D01*
X0253700Y0163000D01*
X0258300Y0163000D01*
X0258300Y0161212D01*
X0255488Y0158400D01*
X0253700Y0158400D01*
X0253700Y0163000D01*
X0253700Y0163400D02*
X0258300Y0163400D01*
X0258300Y0165188D01*
X0255488Y0168000D01*
X0253700Y0168000D01*
X0253700Y0163400D01*
X0253300Y0163170D02*
X0228300Y0163170D01*
X0228300Y0161572D02*
X0248700Y0161572D01*
X0249939Y0159973D02*
X0227061Y0159973D01*
X0228300Y0161212D02*
X0225488Y0158400D01*
X0221512Y0158400D01*
X0218700Y0161212D01*
X0218700Y0165188D01*
X0221512Y0168000D01*
X0225488Y0168000D01*
X0228300Y0165188D01*
X0228300Y0161212D01*
X0228300Y0164769D02*
X0248700Y0164769D01*
X0249879Y0166367D02*
X0227121Y0166367D01*
X0225522Y0167966D02*
X0251478Y0167966D01*
X0251512Y0168400D02*
X0248700Y0171212D01*
X0248700Y0173000D01*
X0253300Y0173000D01*
X0253300Y0173400D01*
X0253300Y0178000D01*
X0251512Y0178000D01*
X0248700Y0175188D01*
X0248700Y0173400D01*
X0253300Y0173400D01*
X0253700Y0173400D01*
X0253700Y0178000D01*
X0255488Y0178000D01*
X0258300Y0175188D01*
X0258300Y0173400D01*
X0253700Y0173400D01*
X0253700Y0173000D01*
X0258300Y0173000D01*
X0258300Y0171212D01*
X0255488Y0168400D01*
X0253700Y0168400D01*
X0253700Y0173000D01*
X0253300Y0173000D01*
X0253300Y0168400D01*
X0251512Y0168400D01*
X0250348Y0169564D02*
X0226652Y0169564D01*
X0225488Y0168400D02*
X0228300Y0171212D01*
X0228300Y0175188D01*
X0225488Y0178000D01*
X0221512Y0178000D01*
X0218700Y0175188D01*
X0218700Y0171212D01*
X0221512Y0168400D01*
X0225488Y0168400D01*
X0228251Y0171163D02*
X0248749Y0171163D01*
X0248700Y0172761D02*
X0228300Y0172761D01*
X0228300Y0174360D02*
X0248700Y0174360D01*
X0249470Y0175958D02*
X0227530Y0175958D01*
X0225931Y0177557D02*
X0251069Y0177557D01*
X0250756Y0179155D02*
X0230267Y0179155D01*
X0230476Y0179242D02*
X0231458Y0180224D01*
X0231989Y0181506D01*
X0231989Y0182894D01*
X0231458Y0184176D01*
X0230476Y0185158D01*
X0229194Y0185689D01*
X0227806Y0185689D01*
X0226524Y0185158D01*
X0225866Y0184500D01*
X0171547Y0184500D01*
X0170200Y0183153D01*
X0165800Y0178753D01*
X0165800Y0191153D01*
X0164453Y0192500D01*
X0163989Y0192964D01*
X0163989Y0193894D01*
X0163458Y0195176D01*
X0162476Y0196158D01*
X0161194Y0196689D01*
X0159806Y0196689D01*
X0158524Y0196158D01*
X0157542Y0195176D01*
X0157011Y0193894D01*
X0157011Y0192506D01*
X0157542Y0191224D01*
X0158524Y0190242D01*
X0159806Y0189711D01*
X0160736Y0189711D01*
X0161200Y0189247D01*
X0161200Y0177688D01*
X0158700Y0175188D01*
X0158700Y0171212D01*
X0161512Y0168400D01*
X0165488Y0168400D01*
X0168300Y0171212D01*
X0168300Y0174747D01*
X0168700Y0175147D01*
X0168700Y0171212D01*
X0171512Y0168400D01*
X0175488Y0168400D01*
X0178300Y0171212D01*
X0178300Y0175188D01*
X0175488Y0178000D01*
X0171553Y0178000D01*
X0173453Y0179900D01*
X0225866Y0179900D01*
X0226524Y0179242D01*
X0227806Y0178711D01*
X0229194Y0178711D01*
X0230476Y0179242D01*
X0231677Y0180754D02*
X0249158Y0180754D01*
X0248700Y0182352D02*
X0231989Y0182352D01*
X0231551Y0183951D02*
X0248700Y0183951D01*
X0249061Y0185549D02*
X0229531Y0185549D01*
X0227469Y0185549D02*
X0165800Y0185549D01*
X0165800Y0183951D02*
X0170998Y0183951D01*
X0169400Y0182352D02*
X0165800Y0182352D01*
X0165800Y0180754D02*
X0167801Y0180754D01*
X0166203Y0179155D02*
X0165800Y0179155D01*
X0168300Y0174360D02*
X0168700Y0174360D01*
X0168700Y0172761D02*
X0168300Y0172761D01*
X0168251Y0171163D02*
X0168749Y0171163D01*
X0170348Y0169564D02*
X0166652Y0169564D01*
X0165488Y0168000D02*
X0161512Y0168000D01*
X0158700Y0165188D01*
X0158700Y0161212D01*
X0161512Y0158400D01*
X0165488Y0158400D01*
X0168300Y0161212D01*
X0168300Y0165188D01*
X0165488Y0168000D01*
X0165522Y0167966D02*
X0171478Y0167966D01*
X0171512Y0168000D02*
X0168700Y0165188D01*
X0168700Y0161212D01*
X0171512Y0158400D01*
X0175488Y0158400D01*
X0178300Y0161212D01*
X0178300Y0165188D01*
X0175488Y0168000D01*
X0171512Y0168000D01*
X0169879Y0166367D02*
X0167121Y0166367D01*
X0168300Y0164769D02*
X0168700Y0164769D01*
X0168700Y0163170D02*
X0168300Y0163170D01*
X0168300Y0161572D02*
X0168700Y0161572D01*
X0169939Y0159973D02*
X0167061Y0159973D01*
X0159939Y0159973D02*
X0157061Y0159973D01*
X0158300Y0161212D02*
X0155488Y0158400D01*
X0151512Y0158400D01*
X0148700Y0161212D01*
X0148700Y0165188D01*
X0151512Y0168000D01*
X0155488Y0168000D01*
X0158300Y0165188D01*
X0158300Y0161212D01*
X0158300Y0161572D02*
X0158700Y0161572D01*
X0158700Y0163170D02*
X0158300Y0163170D01*
X0158300Y0164769D02*
X0158700Y0164769D01*
X0159879Y0166367D02*
X0157121Y0166367D01*
X0155522Y0167966D02*
X0161478Y0167966D01*
X0160348Y0169564D02*
X0156652Y0169564D01*
X0158251Y0171163D02*
X0158749Y0171163D01*
X0158700Y0172761D02*
X0158300Y0172761D01*
X0158300Y0174360D02*
X0158700Y0174360D01*
X0159470Y0175958D02*
X0157530Y0175958D01*
X0155931Y0177557D02*
X0161069Y0177557D01*
X0161200Y0179155D02*
X0155800Y0179155D01*
X0155800Y0180754D02*
X0161200Y0180754D01*
X0161200Y0182352D02*
X0155800Y0182352D01*
X0155800Y0183951D02*
X0161200Y0183951D01*
X0161200Y0185549D02*
X0155800Y0185549D01*
X0155800Y0187148D02*
X0161200Y0187148D01*
X0161200Y0188746D02*
X0155800Y0188746D01*
X0155800Y0190345D02*
X0158421Y0190345D01*
X0157244Y0191943D02*
X0155800Y0191943D01*
X0155800Y0193542D02*
X0157011Y0193542D01*
X0157527Y0195140D02*
X0155800Y0195140D01*
X0149453Y0185900D02*
X0149453Y0185900D01*
X0151069Y0177557D02*
X0145931Y0177557D01*
X0147530Y0175958D02*
X0149470Y0175958D01*
X0148700Y0174360D02*
X0148300Y0174360D01*
X0148300Y0172761D02*
X0148700Y0172761D01*
X0148749Y0171163D02*
X0148251Y0171163D01*
X0146652Y0169564D02*
X0150348Y0169564D01*
X0151478Y0167966D02*
X0145522Y0167966D01*
X0147121Y0166367D02*
X0149879Y0166367D01*
X0148700Y0164769D02*
X0148300Y0164769D01*
X0148300Y0163170D02*
X0148700Y0163170D01*
X0148700Y0161572D02*
X0148300Y0161572D01*
X0147061Y0159973D02*
X0149939Y0159973D01*
X0149502Y0143988D02*
X0147529Y0143988D01*
X0148380Y0137594D02*
X0148652Y0137594D01*
X0149966Y0135996D02*
X0147066Y0135996D01*
X0139966Y0135996D02*
X0137066Y0135996D01*
X0138380Y0137594D02*
X0138652Y0137594D01*
X0139502Y0143988D02*
X0137529Y0143988D01*
X0129502Y0143988D02*
X0127529Y0143988D01*
X0128380Y0137594D02*
X0128652Y0137594D01*
X0129966Y0135996D02*
X0127066Y0135996D01*
X0119966Y0135996D02*
X0117066Y0135996D01*
X0118380Y0137594D02*
X0118652Y0137594D01*
X0119502Y0143988D02*
X0117529Y0143988D01*
X0109502Y0143988D02*
X0107529Y0143988D01*
X0108380Y0137594D02*
X0108652Y0137594D01*
X0109966Y0135996D02*
X0107066Y0135996D01*
X0099966Y0135996D02*
X0097066Y0135996D01*
X0098380Y0137594D02*
X0098652Y0137594D01*
X0099502Y0143988D02*
X0097529Y0143988D01*
X0089502Y0143988D02*
X0087529Y0143988D01*
X0088380Y0137594D02*
X0088652Y0137594D01*
X0089966Y0135996D02*
X0087066Y0135996D01*
X0079966Y0135996D02*
X0077066Y0135996D01*
X0078380Y0137594D02*
X0078652Y0137594D01*
X0079502Y0143988D02*
X0077529Y0143988D01*
X0069502Y0143988D02*
X0067529Y0143988D01*
X0068380Y0137594D02*
X0068652Y0137594D01*
X0069966Y0135996D02*
X0067066Y0135996D01*
X0059966Y0135996D02*
X0057066Y0135996D01*
X0058380Y0137594D02*
X0058652Y0137594D01*
X0059502Y0143988D02*
X0057529Y0143988D01*
X0061274Y0151981D02*
X0281200Y0151981D01*
X0281200Y0153579D02*
X0063367Y0153579D01*
X0064089Y0155178D02*
X0281200Y0155178D01*
X0281200Y0156776D02*
X0064200Y0156776D01*
X0064200Y0161572D02*
X0078700Y0161572D01*
X0085522Y0167966D02*
X0091478Y0167966D01*
X0090348Y0169564D02*
X0086652Y0169564D01*
X0088251Y0171163D02*
X0088749Y0171163D01*
X0088700Y0172761D02*
X0088300Y0172761D01*
X0088300Y0174360D02*
X0088700Y0174360D01*
X0087850Y0175958D02*
X0087530Y0175958D01*
X0086255Y0177557D02*
X0085931Y0177557D01*
X0087121Y0166367D02*
X0089879Y0166367D01*
X0088700Y0164769D02*
X0088300Y0164769D01*
X0088300Y0161572D02*
X0088700Y0161572D01*
X0089939Y0159973D02*
X0087061Y0159973D01*
X0095522Y0167966D02*
X0101478Y0167966D01*
X0101512Y0168400D02*
X0105488Y0168400D01*
X0108300Y0171212D01*
X0108300Y0175188D01*
X0105488Y0178000D01*
X0101512Y0178000D01*
X0098700Y0175188D01*
X0098700Y0171212D01*
X0101512Y0168400D01*
X0100348Y0169564D02*
X0096652Y0169564D01*
X0098251Y0171163D02*
X0098749Y0171163D01*
X0098700Y0172761D02*
X0098300Y0172761D01*
X0098300Y0174360D02*
X0098700Y0174360D01*
X0099470Y0175958D02*
X0097530Y0175958D01*
X0095931Y0177557D02*
X0101069Y0177557D01*
X0105931Y0177557D02*
X0111069Y0177557D01*
X0109470Y0175958D02*
X0107530Y0175958D01*
X0108300Y0174360D02*
X0108700Y0174360D01*
X0108700Y0172761D02*
X0108300Y0172761D01*
X0108251Y0171163D02*
X0108749Y0171163D01*
X0110348Y0169564D02*
X0106652Y0169564D01*
X0105522Y0167966D02*
X0111478Y0167966D01*
X0109879Y0166367D02*
X0107121Y0166367D01*
X0108300Y0164769D02*
X0108700Y0164769D01*
X0108700Y0163170D02*
X0108300Y0163170D01*
X0108300Y0161572D02*
X0108700Y0161572D01*
X0109939Y0159973D02*
X0107061Y0159973D01*
X0099879Y0166367D02*
X0097121Y0166367D01*
X0098300Y0164769D02*
X0098700Y0164769D01*
X0137121Y0166367D02*
X0139879Y0166367D01*
X0138700Y0164769D02*
X0138300Y0164769D01*
X0138300Y0163170D02*
X0138700Y0163170D01*
X0138700Y0161572D02*
X0138300Y0161572D01*
X0137061Y0159973D02*
X0139939Y0159973D01*
X0157529Y0143988D02*
X0159502Y0143988D01*
X0158652Y0137594D02*
X0158380Y0137594D01*
X0157066Y0135996D02*
X0159966Y0135996D01*
X0167066Y0135996D02*
X0169978Y0135996D01*
X0168683Y0137594D02*
X0168380Y0137594D01*
X0173316Y0137594D02*
X0173716Y0137594D01*
X0173716Y0135996D02*
X0173316Y0135996D01*
X0173316Y0139193D02*
X0173716Y0139193D01*
X0173716Y0140791D02*
X0173316Y0140791D01*
X0173316Y0142390D02*
X0173716Y0142390D01*
X0173716Y0143988D02*
X0173316Y0143988D01*
X0169502Y0143988D02*
X0167529Y0143988D01*
X0177529Y0143988D02*
X0179502Y0143988D01*
X0178652Y0137594D02*
X0178349Y0137594D01*
X0177053Y0135996D02*
X0179966Y0135996D01*
X0187066Y0135996D02*
X0281200Y0135996D01*
X0281200Y0137594D02*
X0188380Y0137594D01*
X0185488Y0158400D02*
X0181512Y0158400D01*
X0178700Y0161212D01*
X0178700Y0165188D01*
X0181512Y0168000D01*
X0185488Y0168000D01*
X0188300Y0165188D01*
X0188300Y0161212D01*
X0185488Y0158400D01*
X0187061Y0159973D02*
X0189939Y0159973D01*
X0188700Y0161212D02*
X0191512Y0158400D01*
X0195488Y0158400D01*
X0198300Y0161212D01*
X0198300Y0165188D01*
X0195488Y0168000D01*
X0191512Y0168000D01*
X0188700Y0165188D01*
X0188700Y0161212D01*
X0188700Y0161572D02*
X0188300Y0161572D01*
X0188300Y0163170D02*
X0188700Y0163170D01*
X0188700Y0164769D02*
X0188300Y0164769D01*
X0187121Y0166367D02*
X0189879Y0166367D01*
X0191478Y0167966D02*
X0185522Y0167966D01*
X0185488Y0168400D02*
X0188300Y0171212D01*
X0188300Y0175188D01*
X0185488Y0178000D01*
X0181512Y0178000D01*
X0178700Y0175188D01*
X0178700Y0171212D01*
X0181512Y0168400D01*
X0185488Y0168400D01*
X0186652Y0169564D02*
X0190348Y0169564D01*
X0191512Y0168400D02*
X0188700Y0171212D01*
X0188700Y0175188D01*
X0191512Y0178000D01*
X0195488Y0178000D01*
X0198300Y0175188D01*
X0198300Y0171212D01*
X0195488Y0168400D01*
X0191512Y0168400D01*
X0188749Y0171163D02*
X0188251Y0171163D01*
X0188300Y0172761D02*
X0188700Y0172761D01*
X0188700Y0174360D02*
X0188300Y0174360D01*
X0187530Y0175958D02*
X0189470Y0175958D01*
X0191069Y0177557D02*
X0185931Y0177557D01*
X0181069Y0177557D02*
X0175931Y0177557D01*
X0177530Y0175958D02*
X0179470Y0175958D01*
X0178700Y0174360D02*
X0178300Y0174360D01*
X0178300Y0172761D02*
X0178700Y0172761D01*
X0178749Y0171163D02*
X0178251Y0171163D01*
X0176652Y0169564D02*
X0180348Y0169564D01*
X0181478Y0167966D02*
X0175522Y0167966D01*
X0177121Y0166367D02*
X0179879Y0166367D01*
X0178700Y0164769D02*
X0178300Y0164769D01*
X0178300Y0163170D02*
X0178700Y0163170D01*
X0178700Y0161572D02*
X0178300Y0161572D01*
X0177061Y0159973D02*
X0179939Y0159973D01*
X0197061Y0159973D02*
X0199939Y0159973D01*
X0198700Y0161212D02*
X0201512Y0158400D01*
X0205488Y0158400D01*
X0208300Y0161212D01*
X0208300Y0165188D01*
X0205488Y0168000D01*
X0201512Y0168000D01*
X0198700Y0165188D01*
X0198700Y0161212D01*
X0198700Y0161572D02*
X0198300Y0161572D01*
X0198300Y0163170D02*
X0198700Y0163170D01*
X0198700Y0164769D02*
X0198300Y0164769D01*
X0197121Y0166367D02*
X0199879Y0166367D01*
X0201478Y0167966D02*
X0195522Y0167966D01*
X0196652Y0169564D02*
X0200348Y0169564D01*
X0201512Y0168400D02*
X0198700Y0171212D01*
X0198700Y0175188D01*
X0201512Y0178000D01*
X0205488Y0178000D01*
X0208300Y0175188D01*
X0208300Y0171212D01*
X0205488Y0168400D01*
X0201512Y0168400D01*
X0198749Y0171163D02*
X0198251Y0171163D01*
X0198300Y0172761D02*
X0198700Y0172761D01*
X0198700Y0174360D02*
X0198300Y0174360D01*
X0197530Y0175958D02*
X0199470Y0175958D01*
X0201069Y0177557D02*
X0195931Y0177557D01*
X0205931Y0177557D02*
X0211069Y0177557D01*
X0211512Y0178000D02*
X0208700Y0175188D01*
X0208700Y0171212D01*
X0211512Y0168400D01*
X0215488Y0168400D01*
X0218300Y0171212D01*
X0218300Y0175188D01*
X0215488Y0178000D01*
X0211512Y0178000D01*
X0209470Y0175958D02*
X0207530Y0175958D01*
X0208300Y0174360D02*
X0208700Y0174360D01*
X0208700Y0172761D02*
X0208300Y0172761D01*
X0208251Y0171163D02*
X0208749Y0171163D01*
X0210348Y0169564D02*
X0206652Y0169564D01*
X0205522Y0167966D02*
X0211478Y0167966D01*
X0211512Y0168000D02*
X0208700Y0165188D01*
X0208700Y0161212D01*
X0211512Y0158400D01*
X0215488Y0158400D01*
X0218300Y0161212D01*
X0218300Y0165188D01*
X0215488Y0168000D01*
X0211512Y0168000D01*
X0209879Y0166367D02*
X0207121Y0166367D01*
X0208300Y0164769D02*
X0208700Y0164769D01*
X0208700Y0163170D02*
X0208300Y0163170D01*
X0208300Y0161572D02*
X0208700Y0161572D01*
X0209939Y0159973D02*
X0207061Y0159973D01*
X0215522Y0167966D02*
X0221478Y0167966D01*
X0220348Y0169564D02*
X0216652Y0169564D01*
X0218251Y0171163D02*
X0218749Y0171163D01*
X0218700Y0172761D02*
X0218300Y0172761D01*
X0218300Y0174360D02*
X0218700Y0174360D01*
X0219470Y0175958D02*
X0217530Y0175958D01*
X0215931Y0177557D02*
X0221069Y0177557D01*
X0226733Y0179155D02*
X0172708Y0179155D01*
X0165800Y0187148D02*
X0249700Y0187148D01*
X0249700Y0188746D02*
X0165800Y0188746D01*
X0165800Y0190345D02*
X0214981Y0190345D01*
X0213383Y0191943D02*
X0165009Y0191943D01*
X0163989Y0193542D02*
X0211784Y0193542D01*
X0210186Y0195140D02*
X0163473Y0195140D01*
X0160744Y0219400D02*
X0185256Y0219400D01*
X0186653Y0219979D01*
X0187721Y0221047D01*
X0188300Y0222444D01*
X0188300Y0223956D01*
X0187721Y0225353D01*
X0186653Y0226421D01*
X0185256Y0227000D01*
X0160744Y0227000D01*
X0159347Y0226421D01*
X0158279Y0225353D01*
X0157700Y0223956D01*
X0157700Y0222444D01*
X0158279Y0221047D01*
X0159347Y0219979D01*
X0160744Y0219400D01*
X0158609Y0220717D02*
X0003800Y0220717D01*
X0003800Y0222315D02*
X0061358Y0222315D01*
X0061515Y0222250D02*
X0063485Y0222250D01*
X0065304Y0223004D01*
X0066696Y0224396D01*
X0067450Y0226215D01*
X0067450Y0228185D01*
X0066696Y0230004D01*
X0065304Y0231396D01*
X0063485Y0232150D01*
X0062924Y0232150D01*
X0059300Y0235774D01*
X0059300Y0247406D01*
X0059906Y0246966D01*
X0060600Y0246613D01*
X0061341Y0246372D01*
X0062110Y0246250D01*
X0062500Y0246250D01*
X0062890Y0246250D01*
X0063659Y0246372D01*
X0064400Y0246613D01*
X0065094Y0246966D01*
X0065725Y0247424D01*
X0066276Y0247975D01*
X0066734Y0248606D01*
X0067087Y0249300D01*
X0067328Y0250041D01*
X0067450Y0250810D01*
X0067450Y0251200D01*
X0067450Y0251590D01*
X0067328Y0252359D01*
X0067087Y0253100D01*
X0066734Y0253794D01*
X0066276Y0254425D01*
X0065725Y0254976D01*
X0065094Y0255434D01*
X0064400Y0255787D01*
X0063659Y0256028D01*
X0062890Y0256150D01*
X0062500Y0256150D01*
X0062500Y0251200D01*
X0062500Y0251200D01*
X0067450Y0251200D01*
X0062500Y0251200D01*
X0062500Y0251200D01*
X0062500Y0256150D01*
X0062110Y0256150D01*
X0061770Y0256096D01*
X0062658Y0256984D01*
X0063237Y0258381D01*
X0063237Y0275555D01*
X0063413Y0275602D01*
X0065761Y0276958D01*
X0067679Y0278876D01*
X0069035Y0281224D01*
X0069737Y0283844D01*
X0069737Y0286556D01*
X0069035Y0289176D01*
X0067679Y0291524D01*
X0065761Y0293442D01*
X0063413Y0294798D01*
X0060793Y0295500D01*
X0058081Y0295500D01*
X0055461Y0294798D01*
X0053113Y0293442D01*
X0051195Y0291524D01*
X0049839Y0289176D01*
X0049137Y0286556D01*
X0049137Y0283844D01*
X0049839Y0281224D01*
X0051195Y0278876D01*
X0053113Y0276958D01*
X0055461Y0275602D01*
X0055637Y0275555D01*
X0055637Y0273251D01*
X0053950Y0274938D01*
X0051602Y0276294D01*
X0048982Y0276996D01*
X0046270Y0276996D01*
X0043650Y0276294D01*
X0041302Y0274938D01*
X0039384Y0273020D01*
X0038028Y0270672D01*
X0037326Y0268052D01*
X0037326Y0265340D01*
X0038028Y0262720D01*
X0039384Y0260372D01*
X0041302Y0258454D01*
X0043650Y0257098D01*
X0046270Y0256396D01*
X0048982Y0256396D01*
X0051602Y0257098D01*
X0052601Y0257675D01*
X0052279Y0257353D01*
X0051700Y0255956D01*
X0051700Y0233444D01*
X0052279Y0232047D01*
X0057550Y0226776D01*
X0057550Y0226215D01*
X0058304Y0224396D01*
X0059696Y0223004D01*
X0061515Y0222250D01*
X0063642Y0222315D02*
X0070384Y0222315D01*
X0070450Y0222250D02*
X0074550Y0222250D01*
X0077450Y0225150D01*
X0077450Y0229250D01*
X0074550Y0232150D01*
X0070450Y0232150D01*
X0067550Y0229250D01*
X0067550Y0225150D01*
X0070450Y0222250D01*
X0068786Y0223914D02*
X0066214Y0223914D01*
X0067159Y0225512D02*
X0067550Y0225512D01*
X0067550Y0227111D02*
X0067450Y0227111D01*
X0067550Y0228709D02*
X0067233Y0228709D01*
X0066393Y0230308D02*
X0068607Y0230308D01*
X0070206Y0231906D02*
X0064073Y0231906D01*
X0061569Y0233505D02*
X0107421Y0233505D01*
X0107431Y0233481D02*
X0108781Y0232131D01*
X0110545Y0231400D01*
X0118455Y0231400D01*
X0120219Y0232131D01*
X0121569Y0233481D01*
X0122300Y0235245D01*
X0122300Y0237155D01*
X0121569Y0238919D01*
X0120219Y0240269D01*
X0118455Y0241000D01*
X0110545Y0241000D01*
X0108781Y0240269D01*
X0107431Y0238919D01*
X0106700Y0237155D01*
X0106700Y0235245D01*
X0107431Y0233481D01*
X0106759Y0235103D02*
X0059971Y0235103D01*
X0059300Y0236702D02*
X0106700Y0236702D01*
X0107174Y0238300D02*
X0059300Y0238300D01*
X0059300Y0239899D02*
X0087013Y0239899D01*
X0086431Y0240481D02*
X0087781Y0239131D01*
X0089545Y0238400D01*
X0097455Y0238400D01*
X0099219Y0239131D01*
X0100569Y0240481D01*
X0101300Y0242245D01*
X0101300Y0244155D01*
X0100569Y0245919D01*
X0099219Y0247269D01*
X0097455Y0248000D01*
X0089545Y0248000D01*
X0087781Y0247269D01*
X0086431Y0245919D01*
X0085700Y0244155D01*
X0085700Y0242245D01*
X0086431Y0240481D01*
X0086010Y0241497D02*
X0059300Y0241497D01*
X0059300Y0243096D02*
X0085700Y0243096D01*
X0085923Y0244694D02*
X0059300Y0244694D01*
X0059300Y0246293D02*
X0061840Y0246293D01*
X0062500Y0246293D02*
X0062500Y0246293D01*
X0062500Y0246250D02*
X0062500Y0251200D01*
X0062500Y0251200D01*
X0062500Y0246250D01*
X0063160Y0246293D02*
X0070407Y0246293D01*
X0070450Y0246250D02*
X0074550Y0246250D01*
X0077450Y0249150D01*
X0077450Y0253250D01*
X0074550Y0256150D01*
X0070450Y0256150D01*
X0067550Y0253250D01*
X0067550Y0249150D01*
X0070450Y0246250D01*
X0068808Y0247891D02*
X0066192Y0247891D01*
X0067149Y0249490D02*
X0067550Y0249490D01*
X0067550Y0251088D02*
X0067450Y0251088D01*
X0067550Y0252687D02*
X0067222Y0252687D01*
X0066377Y0254285D02*
X0068585Y0254285D01*
X0070184Y0255884D02*
X0064103Y0255884D01*
X0062500Y0255884D02*
X0062500Y0255884D01*
X0062500Y0254285D02*
X0062500Y0254285D01*
X0062500Y0252687D02*
X0062500Y0252687D01*
X0062500Y0251088D02*
X0062500Y0251088D01*
X0062500Y0249490D02*
X0062500Y0249490D01*
X0062500Y0247891D02*
X0062500Y0247891D01*
X0062865Y0257482D02*
X0088332Y0257482D01*
X0088657Y0257648D02*
X0087984Y0257305D01*
X0087373Y0256861D01*
X0086839Y0256327D01*
X0086395Y0255716D01*
X0086052Y0255043D01*
X0085818Y0254324D01*
X0085700Y0253578D01*
X0085700Y0253400D01*
X0093300Y0253400D01*
X0093300Y0258000D01*
X0090122Y0258000D01*
X0089376Y0257882D01*
X0088657Y0257648D01*
X0089545Y0258400D02*
X0087781Y0259131D01*
X0086431Y0260481D01*
X0085700Y0262245D01*
X0085700Y0264155D01*
X0086431Y0265919D01*
X0087781Y0267269D01*
X0089545Y0268000D01*
X0097455Y0268000D01*
X0097874Y0267826D01*
X0099149Y0269102D01*
X0097455Y0268400D01*
X0089545Y0268400D01*
X0087781Y0269131D01*
X0086431Y0270481D01*
X0085700Y0272245D01*
X0085700Y0274155D01*
X0086431Y0275919D01*
X0087781Y0277269D01*
X0089545Y0278000D01*
X0097455Y0278000D01*
X0099219Y0277269D01*
X0100569Y0275919D01*
X0101300Y0274155D01*
X0101300Y0272245D01*
X0100598Y0270551D01*
X0106700Y0276653D01*
X0106700Y0277155D01*
X0107431Y0278919D01*
X0108781Y0280269D01*
X0110545Y0281000D01*
X0118455Y0281000D01*
X0120219Y0280269D01*
X0121569Y0278919D01*
X0122300Y0277155D01*
X0122300Y0275245D01*
X0121569Y0273481D01*
X0120219Y0272131D01*
X0118455Y0271400D01*
X0110545Y0271400D01*
X0108781Y0272131D01*
X0108732Y0272180D01*
X0101126Y0264574D01*
X0101300Y0264155D01*
X0101300Y0262245D01*
X0100569Y0260481D01*
X0099219Y0259131D01*
X0097455Y0258400D01*
X0089545Y0258400D01*
X0087901Y0259081D02*
X0063237Y0259081D01*
X0063237Y0260679D02*
X0086349Y0260679D01*
X0085700Y0262278D02*
X0063237Y0262278D01*
X0063237Y0263876D02*
X0085700Y0263876D01*
X0086247Y0265475D02*
X0063237Y0265475D01*
X0063237Y0267073D02*
X0087585Y0267073D01*
X0088889Y0268672D02*
X0063237Y0268672D01*
X0063237Y0270270D02*
X0086641Y0270270D01*
X0085856Y0271869D02*
X0063237Y0271869D01*
X0063237Y0273468D02*
X0085700Y0273468D01*
X0086077Y0275066D02*
X0063237Y0275066D01*
X0065253Y0276665D02*
X0087176Y0276665D01*
X0098111Y0268672D02*
X0098719Y0268672D01*
X0101144Y0271869D02*
X0101916Y0271869D01*
X0101300Y0273468D02*
X0103515Y0273468D01*
X0105113Y0275066D02*
X0100923Y0275066D01*
X0099824Y0276665D02*
X0106700Y0276665D01*
X0107159Y0278263D02*
X0067066Y0278263D01*
X0068248Y0279862D02*
X0108373Y0279862D01*
X0108781Y0282131D02*
X0110545Y0281400D01*
X0118455Y0281400D01*
X0120219Y0282131D01*
X0121569Y0283481D01*
X0122300Y0285245D01*
X0122300Y0287155D01*
X0121569Y0288919D01*
X0120219Y0290269D01*
X0118455Y0291000D01*
X0110545Y0291000D01*
X0108781Y0290269D01*
X0107431Y0288919D01*
X0106700Y0287155D01*
X0106700Y0285245D01*
X0107431Y0283481D01*
X0108781Y0282131D01*
X0107853Y0283059D02*
X0069527Y0283059D01*
X0069737Y0284657D02*
X0106944Y0284657D01*
X0106700Y0286256D02*
X0069737Y0286256D01*
X0069389Y0287854D02*
X0106990Y0287854D01*
X0107964Y0289453D02*
X0068875Y0289453D01*
X0067952Y0291051D02*
X0158199Y0291051D01*
X0158011Y0291506D02*
X0158542Y0290224D01*
X0159524Y0289242D01*
X0160806Y0288711D01*
X0162194Y0288711D01*
X0163476Y0289242D01*
X0164145Y0289911D01*
X0188866Y0289911D01*
X0189524Y0289253D01*
X0190806Y0288722D01*
X0192194Y0288722D01*
X0193476Y0289253D01*
X0194393Y0290170D01*
X0195274Y0289289D01*
X0196556Y0288758D01*
X0197944Y0288758D01*
X0199226Y0289289D01*
X0200208Y0290271D01*
X0200739Y0291553D01*
X0200739Y0292941D01*
X0200208Y0294224D01*
X0199550Y0294881D01*
X0199550Y0296403D01*
X0196453Y0299500D01*
X0186134Y0299500D01*
X0185476Y0300158D01*
X0184194Y0300689D01*
X0182806Y0300689D01*
X0181524Y0300158D01*
X0180542Y0299176D01*
X0180011Y0297894D01*
X0180011Y0296506D01*
X0180542Y0295224D01*
X0181255Y0294511D01*
X0164123Y0294511D01*
X0163476Y0295158D01*
X0162194Y0295689D01*
X0160806Y0295689D01*
X0159524Y0295158D01*
X0158542Y0294176D01*
X0158011Y0292894D01*
X0158011Y0291506D01*
X0158011Y0292650D02*
X0120738Y0292650D01*
X0120627Y0292539D02*
X0121161Y0293073D01*
X0121605Y0293684D01*
X0121948Y0294357D01*
X0122182Y0295076D01*
X0122300Y0295822D01*
X0122300Y0296000D01*
X0114700Y0296000D01*
X0114700Y0296400D01*
X0114300Y0296400D01*
X0114300Y0301000D01*
X0111122Y0301000D01*
X0110376Y0300882D01*
X0109657Y0300648D01*
X0108984Y0300305D01*
X0108373Y0299861D01*
X0107839Y0299327D01*
X0107395Y0298716D01*
X0107052Y0298043D01*
X0106818Y0297324D01*
X0106700Y0296578D01*
X0106700Y0296400D01*
X0114300Y0296400D01*
X0114300Y0296000D01*
X0114700Y0296000D01*
X0114700Y0291400D01*
X0117878Y0291400D01*
X0118624Y0291518D01*
X0119343Y0291752D01*
X0120016Y0292095D01*
X0120627Y0292539D01*
X0121893Y0294248D02*
X0158614Y0294248D01*
X0159313Y0289453D02*
X0121036Y0289453D01*
X0122010Y0287854D02*
X0216151Y0287854D01*
X0216011Y0286256D02*
X0122300Y0286256D01*
X0122056Y0284657D02*
X0186729Y0284657D01*
X0186806Y0284689D02*
X0185524Y0284158D01*
X0184542Y0283176D01*
X0184011Y0281894D01*
X0184011Y0280506D01*
X0184542Y0279224D01*
X0185524Y0278242D01*
X0186806Y0277711D01*
X0188194Y0277711D01*
X0189476Y0278242D01*
X0190458Y0279224D01*
X0190989Y0280506D01*
X0190989Y0281894D01*
X0190458Y0283176D01*
X0189476Y0284158D01*
X0188194Y0284689D01*
X0186806Y0284689D01*
X0188271Y0284657D02*
X0198704Y0284657D01*
X0197106Y0283059D02*
X0190507Y0283059D01*
X0190989Y0281460D02*
X0195507Y0281460D01*
X0193909Y0279862D02*
X0190722Y0279862D01*
X0190778Y0278263D02*
X0189497Y0278263D01*
X0189330Y0276665D02*
X0122300Y0276665D01*
X0122226Y0275066D02*
X0185758Y0275066D01*
X0184327Y0273468D02*
X0121556Y0273468D01*
X0119587Y0271869D02*
X0184011Y0271869D01*
X0184445Y0270270D02*
X0120216Y0270270D01*
X0120219Y0270269D02*
X0118455Y0271000D01*
X0110545Y0271000D01*
X0108781Y0270269D01*
X0107431Y0268919D01*
X0106700Y0267155D01*
X0106700Y0265245D01*
X0107431Y0263481D01*
X0108781Y0262131D01*
X0110545Y0261400D01*
X0118455Y0261400D01*
X0120219Y0262131D01*
X0121569Y0263481D01*
X0122300Y0265245D01*
X0122300Y0267155D01*
X0121569Y0268919D01*
X0120219Y0270269D01*
X0121672Y0268672D02*
X0186444Y0268672D01*
X0188556Y0268672D02*
X0189011Y0268672D01*
X0189190Y0267073D02*
X0122300Y0267073D01*
X0122300Y0265475D02*
X0190291Y0265475D01*
X0194709Y0265475D02*
X0212252Y0265475D01*
X0212011Y0263876D02*
X0121733Y0263876D01*
X0120366Y0262278D02*
X0212520Y0262278D01*
X0198816Y0278263D02*
X0281200Y0278263D01*
X0281200Y0276665D02*
X0266824Y0276665D01*
X0265488Y0278000D02*
X0261512Y0278000D01*
X0258700Y0275188D01*
X0258700Y0271212D01*
X0261512Y0268400D01*
X0265488Y0268400D01*
X0268300Y0271212D01*
X0268300Y0275188D01*
X0265488Y0278000D01*
X0265488Y0278400D02*
X0268300Y0281212D01*
X0268300Y0285188D01*
X0265488Y0288000D01*
X0261512Y0288000D01*
X0258700Y0285188D01*
X0258700Y0281212D01*
X0261512Y0278400D01*
X0265488Y0278400D01*
X0266950Y0279862D02*
X0281200Y0279862D01*
X0281200Y0281460D02*
X0268300Y0281460D01*
X0268300Y0283059D02*
X0281200Y0283059D01*
X0281200Y0284657D02*
X0268300Y0284657D01*
X0267233Y0286256D02*
X0281200Y0286256D01*
X0281200Y0287854D02*
X0265634Y0287854D01*
X0265488Y0288400D02*
X0268300Y0291212D01*
X0268300Y0295188D01*
X0265488Y0298000D01*
X0261512Y0298000D01*
X0258700Y0295188D01*
X0258700Y0291212D01*
X0261512Y0288400D01*
X0265488Y0288400D01*
X0266541Y0289453D02*
X0281200Y0289453D01*
X0281200Y0291051D02*
X0268139Y0291051D01*
X0268300Y0292650D02*
X0281200Y0292650D01*
X0281200Y0294248D02*
X0268300Y0294248D01*
X0267642Y0295847D02*
X0281200Y0295847D01*
X0281200Y0297445D02*
X0266043Y0297445D01*
X0265488Y0298400D02*
X0267988Y0300900D01*
X0269453Y0300900D01*
X0274453Y0305900D01*
X0275800Y0307247D01*
X0275800Y0359153D01*
X0271300Y0363653D01*
X0271300Y0364155D01*
X0270569Y0365919D01*
X0269219Y0367269D01*
X0267455Y0368000D01*
X0259545Y0368000D01*
X0257781Y0367269D01*
X0256431Y0365919D01*
X0256314Y0365638D01*
X0249453Y0372500D01*
X0235547Y0372500D01*
X0234200Y0371153D01*
X0231282Y0368234D01*
X0230384Y0367863D01*
X0228837Y0366315D01*
X0228500Y0365501D01*
X0228204Y0366083D01*
X0227695Y0366783D01*
X0227083Y0367395D01*
X0226383Y0367904D01*
X0225611Y0368297D01*
X0224788Y0368565D01*
X0223933Y0368700D01*
X0223700Y0368700D01*
X0223700Y0363400D01*
X0223300Y0363400D01*
X0223300Y0368700D01*
X0223067Y0368700D01*
X0222212Y0368565D01*
X0221389Y0368297D01*
X0220617Y0367904D01*
X0219917Y0367395D01*
X0219305Y0366783D01*
X0218796Y0366083D01*
X0218403Y0365311D01*
X0218135Y0364488D01*
X0218000Y0363633D01*
X0218000Y0363400D01*
X0223300Y0363400D01*
X0223300Y0363000D01*
X0218000Y0363000D01*
X0218000Y0362767D01*
X0218135Y0361912D01*
X0218210Y0361682D01*
X0218194Y0361689D01*
X0216806Y0361689D01*
X0215524Y0361158D01*
X0214542Y0360176D01*
X0214011Y0358894D01*
X0214011Y0357506D01*
X0214542Y0356224D01*
X0215200Y0355566D01*
X0215200Y0350500D01*
X0135734Y0350500D01*
X0136332Y0351098D01*
X0136863Y0352380D01*
X0136863Y0353768D01*
X0136332Y0355051D01*
X0135800Y0355583D01*
X0135800Y0378712D01*
X0138300Y0381212D01*
X0138300Y0385188D01*
X0135488Y0388000D01*
X0131512Y0388000D01*
X0128700Y0385188D01*
X0128700Y0381212D01*
X0131200Y0378712D01*
X0131200Y0355834D01*
X0130416Y0355051D01*
X0129885Y0353768D01*
X0129885Y0352380D01*
X0130416Y0351098D01*
X0131014Y0350500D01*
X0097134Y0350500D01*
X0096476Y0351158D01*
X0095194Y0351689D01*
X0093806Y0351689D01*
X0092524Y0351158D01*
X0091866Y0350500D01*
X0058134Y0350500D01*
X0057476Y0351158D01*
X0056194Y0351689D01*
X0054806Y0351689D01*
X0053524Y0351158D01*
X0052542Y0350176D01*
X0052011Y0348894D01*
X0052011Y0347506D01*
X0052542Y0346224D01*
X0053524Y0345242D01*
X0054806Y0344711D01*
X0056194Y0344711D01*
X0057476Y0345242D01*
X0058134Y0345900D01*
X0091866Y0345900D01*
X0092524Y0345242D01*
X0093806Y0344711D01*
X0095194Y0344711D01*
X0096476Y0345242D01*
X0097134Y0345900D01*
X0120428Y0345900D01*
X0120011Y0344894D01*
X0120011Y0343506D01*
X0120542Y0342224D01*
X0121524Y0341242D01*
X0122806Y0340711D01*
X0124011Y0340711D01*
X0124011Y0339506D01*
X0124542Y0338224D01*
X0125524Y0337242D01*
X0126806Y0336711D01*
X0128194Y0336711D01*
X0129476Y0337242D01*
X0130134Y0337900D01*
X0180866Y0337900D01*
X0181524Y0337242D01*
X0182806Y0336711D01*
X0184194Y0336711D01*
X0185476Y0337242D01*
X0186458Y0338224D01*
X0186989Y0339506D01*
X0186989Y0340894D01*
X0186911Y0341082D01*
X0187806Y0340711D01*
X0189194Y0340711D01*
X0190476Y0341242D01*
X0191458Y0342224D01*
X0191989Y0343506D01*
X0191989Y0344894D01*
X0191572Y0345900D01*
X0216547Y0345900D01*
X0219358Y0343089D01*
X0226866Y0343089D01*
X0227455Y0342500D01*
X0197134Y0342500D01*
X0196476Y0343158D01*
X0195194Y0343689D01*
X0193806Y0343689D01*
X0192524Y0343158D01*
X0191542Y0342176D01*
X0191011Y0340894D01*
X0191011Y0339506D01*
X0191542Y0338224D01*
X0192524Y0337242D01*
X0193806Y0336711D01*
X0195194Y0336711D01*
X0196476Y0337242D01*
X0197134Y0337900D01*
X0231550Y0337900D01*
X0231550Y0335150D01*
X0234450Y0332250D01*
X0238550Y0332250D01*
X0241450Y0335150D01*
X0241450Y0339250D01*
X0238550Y0342150D01*
X0234803Y0342150D01*
X0234453Y0342500D01*
X0231545Y0342500D01*
X0232458Y0343413D01*
X0232989Y0344695D01*
X0232989Y0345458D01*
X0234200Y0344247D01*
X0235547Y0342900D01*
X0245200Y0342900D01*
X0245200Y0324979D01*
X0244694Y0325189D01*
X0243306Y0325189D01*
X0242024Y0324658D01*
X0241042Y0323676D01*
X0240511Y0322394D01*
X0240511Y0321500D01*
X0235945Y0321500D01*
X0235287Y0322158D01*
X0234005Y0322689D01*
X0232617Y0322689D01*
X0231335Y0322158D01*
X0230353Y0321176D01*
X0229822Y0319894D01*
X0229822Y0318506D01*
X0230353Y0317224D01*
X0230888Y0316689D01*
X0229806Y0316689D01*
X0228524Y0316158D01*
X0227542Y0315176D01*
X0227011Y0313894D01*
X0227011Y0312506D01*
X0227542Y0311224D01*
X0228524Y0310242D01*
X0229806Y0309711D01*
X0231194Y0309711D01*
X0232476Y0310242D01*
X0233134Y0310900D01*
X0249012Y0310900D01*
X0251512Y0308400D01*
X0255488Y0308400D01*
X0258300Y0311212D01*
X0258300Y0315188D01*
X0255488Y0318000D01*
X0251512Y0318000D01*
X0249800Y0316288D01*
X0249800Y0320112D01*
X0251512Y0318400D01*
X0255488Y0318400D01*
X0258300Y0321212D01*
X0258300Y0325188D01*
X0256313Y0327175D01*
X0256476Y0327242D01*
X0257134Y0327900D01*
X0261412Y0327900D01*
X0258700Y0325188D01*
X0258700Y0321212D01*
X0261512Y0318400D01*
X0265488Y0318400D01*
X0268300Y0321212D01*
X0268300Y0325188D01*
X0265588Y0327900D01*
X0266866Y0327900D01*
X0267524Y0327242D01*
X0268806Y0326711D01*
X0270194Y0326711D01*
X0271200Y0327128D01*
X0271200Y0309153D01*
X0267768Y0305720D01*
X0265488Y0308000D01*
X0261512Y0308000D01*
X0258700Y0305188D01*
X0258700Y0301212D01*
X0261512Y0298400D01*
X0265488Y0298400D01*
X0266132Y0299044D02*
X0281200Y0299044D01*
X0281200Y0300642D02*
X0267730Y0300642D01*
X0270793Y0302241D02*
X0281200Y0302241D01*
X0281200Y0303839D02*
X0272392Y0303839D01*
X0273990Y0305438D02*
X0281200Y0305438D01*
X0281200Y0307036D02*
X0275589Y0307036D01*
X0275800Y0308635D02*
X0281200Y0308635D01*
X0281200Y0310233D02*
X0275800Y0310233D01*
X0275800Y0311832D02*
X0281200Y0311832D01*
X0281200Y0313430D02*
X0275800Y0313430D01*
X0275800Y0315029D02*
X0281200Y0315029D01*
X0281200Y0316627D02*
X0275800Y0316627D01*
X0275800Y0318226D02*
X0281200Y0318226D01*
X0281200Y0319824D02*
X0275800Y0319824D01*
X0275800Y0321423D02*
X0281200Y0321423D01*
X0281200Y0323021D02*
X0275800Y0323021D01*
X0275800Y0324620D02*
X0281200Y0324620D01*
X0281200Y0326218D02*
X0275800Y0326218D01*
X0275800Y0327817D02*
X0281200Y0327817D01*
X0281200Y0329415D02*
X0275800Y0329415D01*
X0275800Y0331014D02*
X0281200Y0331014D01*
X0281200Y0332612D02*
X0275800Y0332612D01*
X0275800Y0334211D02*
X0281200Y0334211D01*
X0281200Y0335809D02*
X0275800Y0335809D01*
X0275800Y0337408D02*
X0281200Y0337408D01*
X0281200Y0339006D02*
X0275800Y0339006D01*
X0275800Y0340605D02*
X0281200Y0340605D01*
X0281200Y0342203D02*
X0275800Y0342203D01*
X0275800Y0343802D02*
X0281200Y0343802D01*
X0281200Y0345401D02*
X0275800Y0345401D01*
X0275800Y0346999D02*
X0281200Y0346999D01*
X0281200Y0348598D02*
X0275800Y0348598D01*
X0275800Y0350196D02*
X0281200Y0350196D01*
X0281200Y0351795D02*
X0275800Y0351795D01*
X0275800Y0353393D02*
X0281200Y0353393D01*
X0281200Y0354992D02*
X0275800Y0354992D01*
X0275800Y0356590D02*
X0281200Y0356590D01*
X0281200Y0358189D02*
X0275800Y0358189D01*
X0275166Y0359787D02*
X0281200Y0359787D01*
X0281200Y0361386D02*
X0273567Y0361386D01*
X0271969Y0362984D02*
X0281200Y0362984D01*
X0281200Y0364583D02*
X0271123Y0364583D01*
X0270307Y0366181D02*
X0281200Y0366181D01*
X0281200Y0367780D02*
X0267987Y0367780D01*
X0267455Y0368400D02*
X0269219Y0369131D01*
X0270569Y0370481D01*
X0271300Y0372245D01*
X0271300Y0374155D01*
X0270569Y0375919D01*
X0269219Y0377269D01*
X0267455Y0378000D01*
X0259545Y0378000D01*
X0257781Y0377269D01*
X0256431Y0375919D01*
X0255700Y0374155D01*
X0255700Y0372245D01*
X0256431Y0370481D01*
X0257781Y0369131D01*
X0259545Y0368400D01*
X0267455Y0368400D01*
X0269466Y0369378D02*
X0281200Y0369378D01*
X0281200Y0370977D02*
X0270775Y0370977D01*
X0271300Y0372575D02*
X0281200Y0372575D01*
X0281200Y0374174D02*
X0271292Y0374174D01*
X0270630Y0375772D02*
X0281200Y0375772D01*
X0281200Y0377371D02*
X0268974Y0377371D01*
X0268343Y0378752D02*
X0269016Y0379095D01*
X0269627Y0379539D01*
X0270161Y0380073D01*
X0270605Y0380684D01*
X0270948Y0381357D01*
X0271182Y0382076D01*
X0271300Y0382822D01*
X0271300Y0383000D01*
X0263700Y0383000D01*
X0263700Y0383400D01*
X0263300Y0383400D01*
X0263300Y0388000D01*
X0260122Y0388000D01*
X0259376Y0387882D01*
X0258657Y0387648D01*
X0257984Y0387305D01*
X0257373Y0386861D01*
X0256839Y0386327D01*
X0256395Y0385716D01*
X0256052Y0385043D01*
X0255818Y0384324D01*
X0255700Y0383578D01*
X0255700Y0383400D01*
X0263300Y0383400D01*
X0263300Y0383000D01*
X0263700Y0383000D01*
X0263700Y0378400D01*
X0266878Y0378400D01*
X0267624Y0378518D01*
X0268343Y0378752D01*
X0268770Y0378969D02*
X0281200Y0378969D01*
X0281200Y0380568D02*
X0270521Y0380568D01*
X0271196Y0382166D02*
X0281200Y0382166D01*
X0281200Y0383765D02*
X0271270Y0383765D01*
X0271300Y0383578D02*
X0271182Y0384324D01*
X0270948Y0385043D01*
X0270605Y0385716D01*
X0270161Y0386327D01*
X0269627Y0386861D01*
X0269016Y0387305D01*
X0268343Y0387648D01*
X0267624Y0387882D01*
X0266878Y0388000D01*
X0263700Y0388000D01*
X0263700Y0383400D01*
X0271300Y0383400D01*
X0271300Y0383578D01*
X0270785Y0385363D02*
X0281200Y0385363D01*
X0281200Y0386962D02*
X0269489Y0386962D01*
X0269219Y0389131D02*
X0270569Y0390481D01*
X0271300Y0392245D01*
X0271300Y0394155D01*
X0270569Y0395919D01*
X0269219Y0397269D01*
X0267455Y0398000D01*
X0259545Y0398000D01*
X0257781Y0397269D01*
X0256431Y0395919D01*
X0255700Y0394155D01*
X0255700Y0392245D01*
X0256431Y0390481D01*
X0257781Y0389131D01*
X0259545Y0388400D01*
X0267455Y0388400D01*
X0269219Y0389131D01*
X0270247Y0390159D02*
X0281200Y0390159D01*
X0281200Y0391757D02*
X0271098Y0391757D01*
X0271300Y0393356D02*
X0281200Y0393356D01*
X0281200Y0394954D02*
X0270969Y0394954D01*
X0269935Y0396553D02*
X0281200Y0396553D01*
X0281200Y0398151D02*
X0225800Y0398151D01*
X0225800Y0397688D02*
X0225800Y0399153D01*
X0221453Y0403500D01*
X0077547Y0403500D01*
X0072047Y0398000D01*
X0071512Y0398000D01*
X0068700Y0395188D01*
X0068700Y0391212D01*
X0071200Y0388712D01*
X0071200Y0387688D01*
X0068700Y0385188D01*
X0068700Y0381212D01*
X0071512Y0378400D01*
X0075488Y0378400D01*
X0078300Y0381212D01*
X0078300Y0385188D01*
X0075800Y0387688D01*
X0075800Y0388712D01*
X0078300Y0391212D01*
X0078300Y0395188D01*
X0077020Y0396468D01*
X0079453Y0398900D01*
X0219547Y0398900D01*
X0220980Y0397468D01*
X0218700Y0395188D01*
X0218700Y0391212D01*
X0221200Y0388712D01*
X0221200Y0387688D01*
X0218700Y0385188D01*
X0218700Y0381212D01*
X0221512Y0378400D01*
X0225488Y0378400D01*
X0228300Y0381212D01*
X0228300Y0385188D01*
X0225800Y0387688D01*
X0225800Y0388712D01*
X0228300Y0391212D01*
X0228300Y0395188D01*
X0225800Y0397688D01*
X0226935Y0396553D02*
X0230065Y0396553D01*
X0228700Y0395188D02*
X0231512Y0398000D01*
X0235488Y0398000D01*
X0238300Y0395188D01*
X0238300Y0391212D01*
X0235800Y0388712D01*
X0235800Y0387688D01*
X0238300Y0385188D01*
X0238300Y0381212D01*
X0235488Y0378400D01*
X0231512Y0378400D01*
X0228700Y0381212D01*
X0228700Y0385188D01*
X0231200Y0387688D01*
X0231200Y0388712D01*
X0228700Y0391212D01*
X0228700Y0395188D01*
X0228700Y0394954D02*
X0228300Y0394954D01*
X0228300Y0393356D02*
X0228700Y0393356D01*
X0228700Y0391757D02*
X0228300Y0391757D01*
X0227247Y0390159D02*
X0229753Y0390159D01*
X0231200Y0388560D02*
X0225800Y0388560D01*
X0226526Y0386962D02*
X0230474Y0386962D01*
X0228875Y0385363D02*
X0228125Y0385363D01*
X0228300Y0383765D02*
X0228700Y0383765D01*
X0228700Y0382166D02*
X0228300Y0382166D01*
X0227656Y0380568D02*
X0229344Y0380568D01*
X0230943Y0378969D02*
X0226057Y0378969D01*
X0220943Y0378969D02*
X0216057Y0378969D01*
X0215488Y0378400D02*
X0218300Y0381212D01*
X0218300Y0385188D01*
X0215800Y0387688D01*
X0215800Y0388712D01*
X0218300Y0391212D01*
X0218300Y0395188D01*
X0215488Y0398000D01*
X0211512Y0398000D01*
X0208700Y0395188D01*
X0208700Y0391212D01*
X0211200Y0388712D01*
X0211200Y0387688D01*
X0208700Y0385188D01*
X0208700Y0381212D01*
X0211512Y0378400D01*
X0215488Y0378400D01*
X0217656Y0380568D02*
X0219344Y0380568D01*
X0218700Y0382166D02*
X0218300Y0382166D01*
X0218300Y0383765D02*
X0218700Y0383765D01*
X0218875Y0385363D02*
X0218125Y0385363D01*
X0216526Y0386962D02*
X0220474Y0386962D01*
X0221200Y0388560D02*
X0215800Y0388560D01*
X0217247Y0390159D02*
X0219753Y0390159D01*
X0218700Y0391757D02*
X0218300Y0391757D01*
X0218300Y0393356D02*
X0218700Y0393356D01*
X0218700Y0394954D02*
X0218300Y0394954D01*
X0216935Y0396553D02*
X0220065Y0396553D01*
X0220296Y0398151D02*
X0078704Y0398151D01*
X0080065Y0396553D02*
X0077106Y0396553D01*
X0078300Y0394954D02*
X0078700Y0394954D01*
X0078700Y0395188D02*
X0078700Y0393400D01*
X0083300Y0393400D01*
X0083300Y0398000D01*
X0081512Y0398000D01*
X0078700Y0395188D01*
X0078300Y0393356D02*
X0083300Y0393356D01*
X0083300Y0393400D02*
X0083300Y0393000D01*
X0083700Y0393000D01*
X0083700Y0393400D01*
X0088300Y0393400D01*
X0088300Y0395188D01*
X0085488Y0398000D01*
X0083700Y0398000D01*
X0083700Y0393400D01*
X0083300Y0393400D01*
X0083300Y0393000D02*
X0078700Y0393000D01*
X0078700Y0391212D01*
X0081512Y0388400D01*
X0083300Y0388400D01*
X0083300Y0393000D01*
X0083700Y0393000D02*
X0083700Y0388400D01*
X0085488Y0388400D01*
X0088300Y0391212D01*
X0088300Y0393000D01*
X0083700Y0393000D01*
X0083700Y0393356D02*
X0088700Y0393356D01*
X0088700Y0394954D02*
X0088300Y0394954D01*
X0088700Y0395188D02*
X0088700Y0391212D01*
X0091512Y0388400D01*
X0095488Y0388400D01*
X0098300Y0391212D01*
X0098300Y0395188D01*
X0095488Y0398000D01*
X0091512Y0398000D01*
X0088700Y0395188D01*
X0090065Y0396553D02*
X0086935Y0396553D01*
X0083700Y0396553D02*
X0083300Y0396553D01*
X0083300Y0394954D02*
X0083700Y0394954D01*
X0083700Y0391757D02*
X0083300Y0391757D01*
X0083300Y0390159D02*
X0083700Y0390159D01*
X0083700Y0388560D02*
X0083300Y0388560D01*
X0081512Y0388000D02*
X0085488Y0388000D01*
X0088300Y0385188D01*
X0088300Y0381212D01*
X0085488Y0378400D01*
X0081512Y0378400D01*
X0078700Y0381212D01*
X0078700Y0385188D01*
X0081512Y0388000D01*
X0081351Y0388560D02*
X0075800Y0388560D01*
X0076526Y0386962D02*
X0080474Y0386962D01*
X0078875Y0385363D02*
X0078125Y0385363D01*
X0078300Y0383765D02*
X0078700Y0383765D01*
X0078700Y0382166D02*
X0078300Y0382166D01*
X0077656Y0380568D02*
X0079344Y0380568D01*
X0080943Y0378969D02*
X0076057Y0378969D01*
X0070943Y0378969D02*
X0066057Y0378969D01*
X0065488Y0378400D02*
X0068300Y0381212D01*
X0068300Y0385188D01*
X0065488Y0388000D01*
X0061512Y0388000D01*
X0058700Y0385188D01*
X0058700Y0381212D01*
X0061512Y0378400D01*
X0065488Y0378400D01*
X0067656Y0380568D02*
X0069344Y0380568D01*
X0068700Y0382166D02*
X0068300Y0382166D01*
X0068300Y0383765D02*
X0068700Y0383765D01*
X0068875Y0385363D02*
X0068125Y0385363D01*
X0066526Y0386962D02*
X0070474Y0386962D01*
X0071200Y0388560D02*
X0065649Y0388560D01*
X0065488Y0388400D02*
X0068300Y0391212D01*
X0068300Y0395188D01*
X0065488Y0398000D01*
X0061512Y0398000D01*
X0058700Y0395188D01*
X0058700Y0391212D01*
X0061512Y0388400D01*
X0065488Y0388400D01*
X0067247Y0390159D02*
X0069753Y0390159D01*
X0068700Y0391757D02*
X0068300Y0391757D01*
X0068300Y0393356D02*
X0068700Y0393356D01*
X0068700Y0394954D02*
X0068300Y0394954D01*
X0066935Y0396553D02*
X0070065Y0396553D01*
X0072199Y0398151D02*
X0043140Y0398151D01*
X0044522Y0399750D02*
X0073797Y0399750D01*
X0075396Y0401348D02*
X0045100Y0401348D01*
X0045100Y0402947D02*
X0076994Y0402947D01*
X0078300Y0391757D02*
X0078700Y0391757D01*
X0079753Y0390159D02*
X0077247Y0390159D01*
X0085649Y0388560D02*
X0091351Y0388560D01*
X0091512Y0388000D02*
X0088700Y0385188D01*
X0088700Y0383400D01*
X0093300Y0383400D01*
X0093300Y0388000D01*
X0091512Y0388000D01*
X0090474Y0386962D02*
X0086526Y0386962D01*
X0088125Y0385363D02*
X0088875Y0385363D01*
X0088700Y0383765D02*
X0088300Y0383765D01*
X0088700Y0383000D02*
X0088700Y0381212D01*
X0091512Y0378400D01*
X0093300Y0378400D01*
X0093300Y0383000D01*
X0093700Y0383000D01*
X0093700Y0383400D01*
X0098300Y0383400D01*
X0098300Y0385188D01*
X0095488Y0388000D01*
X0093700Y0388000D01*
X0093700Y0383400D01*
X0093300Y0383400D01*
X0093300Y0383000D01*
X0088700Y0383000D01*
X0088700Y0382166D02*
X0088300Y0382166D01*
X0087656Y0380568D02*
X0089344Y0380568D01*
X0090943Y0378969D02*
X0086057Y0378969D01*
X0093300Y0378969D02*
X0093700Y0378969D01*
X0093700Y0378400D02*
X0095488Y0378400D01*
X0098300Y0381212D01*
X0098300Y0383000D01*
X0093700Y0383000D01*
X0093700Y0378400D01*
X0093700Y0380568D02*
X0093300Y0380568D01*
X0093300Y0382166D02*
X0093700Y0382166D01*
X0093700Y0383765D02*
X0093300Y0383765D01*
X0093300Y0385363D02*
X0093700Y0385363D01*
X0093700Y0386962D02*
X0093300Y0386962D01*
X0095649Y0388560D02*
X0101351Y0388560D01*
X0101512Y0388400D02*
X0105488Y0388400D01*
X0108300Y0391212D01*
X0108300Y0395188D01*
X0105488Y0398000D01*
X0101512Y0398000D01*
X0098700Y0395188D01*
X0098700Y0391212D01*
X0101512Y0388400D01*
X0101512Y0388000D02*
X0098700Y0385188D01*
X0098700Y0381212D01*
X0101512Y0378400D01*
X0105488Y0378400D01*
X0108300Y0381212D01*
X0108300Y0385188D01*
X0105488Y0388000D01*
X0101512Y0388000D01*
X0100474Y0386962D02*
X0096526Y0386962D01*
X0098125Y0385363D02*
X0098875Y0385363D01*
X0098700Y0383765D02*
X0098300Y0383765D01*
X0098300Y0382166D02*
X0098700Y0382166D01*
X0099344Y0380568D02*
X0097656Y0380568D01*
X0096057Y0378969D02*
X0100943Y0378969D01*
X0106057Y0378969D02*
X0120943Y0378969D01*
X0121512Y0378400D02*
X0118700Y0381212D01*
X0118700Y0385188D01*
X0121512Y0388000D01*
X0125488Y0388000D01*
X0128300Y0385188D01*
X0128300Y0381212D01*
X0125488Y0378400D01*
X0121512Y0378400D01*
X0119344Y0380568D02*
X0107656Y0380568D01*
X0108300Y0382166D02*
X0118700Y0382166D01*
X0118700Y0383765D02*
X0108300Y0383765D01*
X0108125Y0385363D02*
X0118875Y0385363D01*
X0120474Y0386962D02*
X0106526Y0386962D01*
X0105649Y0388560D02*
X0121351Y0388560D01*
X0121512Y0388400D02*
X0125488Y0388400D01*
X0128300Y0391212D01*
X0128300Y0395188D01*
X0125488Y0398000D01*
X0121512Y0398000D01*
X0118700Y0395188D01*
X0118700Y0391212D01*
X0121512Y0388400D01*
X0119753Y0390159D02*
X0107247Y0390159D01*
X0108300Y0391757D02*
X0118700Y0391757D01*
X0118700Y0393356D02*
X0108300Y0393356D01*
X0108300Y0394954D02*
X0118700Y0394954D01*
X0120065Y0396553D02*
X0106935Y0396553D01*
X0100065Y0396553D02*
X0096935Y0396553D01*
X0098300Y0394954D02*
X0098700Y0394954D01*
X0098700Y0393356D02*
X0098300Y0393356D01*
X0098300Y0391757D02*
X0098700Y0391757D01*
X0099753Y0390159D02*
X0097247Y0390159D01*
X0089753Y0390159D02*
X0087247Y0390159D01*
X0088300Y0391757D02*
X0088700Y0391757D01*
X0061351Y0388560D02*
X0055649Y0388560D01*
X0055488Y0388400D02*
X0058300Y0391212D01*
X0058300Y0395188D01*
X0055488Y0398000D01*
X0051512Y0398000D01*
X0048700Y0395188D01*
X0048700Y0391212D01*
X0051512Y0388400D01*
X0055488Y0388400D01*
X0055488Y0388000D02*
X0051512Y0388000D01*
X0048700Y0385188D01*
X0048700Y0381212D01*
X0051512Y0378400D01*
X0055488Y0378400D01*
X0058300Y0381212D01*
X0058300Y0385188D01*
X0055488Y0388000D01*
X0056526Y0386962D02*
X0060474Y0386962D01*
X0058875Y0385363D02*
X0058125Y0385363D01*
X0058300Y0383765D02*
X0058700Y0383765D01*
X0058700Y0382166D02*
X0058300Y0382166D01*
X0057656Y0380568D02*
X0059344Y0380568D01*
X0060943Y0378969D02*
X0056057Y0378969D01*
X0050943Y0378969D02*
X0003800Y0378969D01*
X0003800Y0377371D02*
X0131200Y0377371D01*
X0131200Y0375772D02*
X0003800Y0375772D01*
X0003800Y0374174D02*
X0131200Y0374174D01*
X0131200Y0372575D02*
X0003800Y0372575D01*
X0003800Y0370977D02*
X0015108Y0370977D01*
X0015889Y0371300D02*
X0012912Y0370067D01*
X0010633Y0367788D01*
X0009400Y0364811D01*
X0009400Y0361589D01*
X0010633Y0358612D01*
X0012912Y0356333D01*
X0015889Y0355100D01*
X0019111Y0355100D01*
X0022088Y0356333D01*
X0024367Y0358612D01*
X0025600Y0361589D01*
X0025600Y0364811D01*
X0024367Y0367788D01*
X0022088Y0370067D01*
X0019111Y0371300D01*
X0015889Y0371300D01*
X0012223Y0369378D02*
X0003800Y0369378D01*
X0003800Y0367780D02*
X0010630Y0367780D01*
X0009967Y0366181D02*
X0003800Y0366181D01*
X0003800Y0364583D02*
X0009400Y0364583D01*
X0009400Y0362984D02*
X0003800Y0362984D01*
X0003800Y0361386D02*
X0009484Y0361386D01*
X0010146Y0359787D02*
X0003800Y0359787D01*
X0003800Y0358189D02*
X0011056Y0358189D01*
X0012655Y0356590D02*
X0003800Y0356590D01*
X0003800Y0354992D02*
X0130392Y0354992D01*
X0129885Y0353393D02*
X0003800Y0353393D01*
X0003800Y0351795D02*
X0130128Y0351795D01*
X0131200Y0356590D02*
X0022345Y0356590D01*
X0023944Y0358189D02*
X0131200Y0358189D01*
X0131200Y0359787D02*
X0024854Y0359787D01*
X0025516Y0361386D02*
X0131200Y0361386D01*
X0131200Y0362984D02*
X0025600Y0362984D01*
X0025600Y0364583D02*
X0131200Y0364583D01*
X0131200Y0366181D02*
X0025033Y0366181D01*
X0024370Y0367780D02*
X0131200Y0367780D01*
X0131200Y0369378D02*
X0022777Y0369378D01*
X0019892Y0370977D02*
X0131200Y0370977D01*
X0135800Y0370977D02*
X0234024Y0370977D01*
X0232426Y0369378D02*
X0135800Y0369378D01*
X0135800Y0367780D02*
X0220446Y0367780D01*
X0218868Y0366181D02*
X0135800Y0366181D01*
X0135800Y0364583D02*
X0218166Y0364583D01*
X0218000Y0362984D02*
X0135800Y0362984D01*
X0135800Y0361386D02*
X0216074Y0361386D01*
X0214381Y0359787D02*
X0135800Y0359787D01*
X0135800Y0358189D02*
X0214011Y0358189D01*
X0214390Y0356590D02*
X0135800Y0356590D01*
X0136356Y0354992D02*
X0215200Y0354992D01*
X0215200Y0353393D02*
X0136863Y0353393D01*
X0136621Y0351795D02*
X0215200Y0351795D01*
X0217047Y0345401D02*
X0191779Y0345401D01*
X0191989Y0343802D02*
X0218645Y0343802D01*
X0231550Y0337408D02*
X0196642Y0337408D01*
X0192358Y0337408D02*
X0185642Y0337408D01*
X0186782Y0339006D02*
X0191218Y0339006D01*
X0191011Y0340605D02*
X0186989Y0340605D01*
X0191438Y0342203D02*
X0191569Y0342203D01*
X0181358Y0337408D02*
X0129642Y0337408D01*
X0125358Y0337408D02*
X0026455Y0337408D01*
X0026232Y0336871D02*
X0027100Y0338966D01*
X0027100Y0341234D01*
X0026232Y0343329D01*
X0024629Y0344932D01*
X0022534Y0345800D01*
X0012466Y0345800D01*
X0010371Y0344932D01*
X0008768Y0343329D01*
X0007900Y0341234D01*
X0007900Y0338966D01*
X0008768Y0336871D01*
X0010371Y0335268D01*
X0012466Y0334400D01*
X0022534Y0334400D01*
X0024629Y0335268D01*
X0026232Y0336871D01*
X0025170Y0335809D02*
X0231550Y0335809D01*
X0232489Y0334211D02*
X0003800Y0334211D01*
X0003800Y0335809D02*
X0009830Y0335809D01*
X0008545Y0337408D02*
X0003800Y0337408D01*
X0003800Y0339006D02*
X0007900Y0339006D01*
X0007900Y0340605D02*
X0003800Y0340605D01*
X0003800Y0342203D02*
X0008302Y0342203D01*
X0009241Y0343802D02*
X0003800Y0343802D01*
X0003800Y0345401D02*
X0011502Y0345401D01*
X0003800Y0346999D02*
X0052221Y0346999D01*
X0052011Y0348598D02*
X0003800Y0348598D01*
X0003800Y0350196D02*
X0052562Y0350196D01*
X0053365Y0345401D02*
X0023498Y0345401D01*
X0025759Y0343802D02*
X0120011Y0343802D01*
X0120221Y0345401D02*
X0096635Y0345401D01*
X0092365Y0345401D02*
X0057635Y0345401D01*
X0049344Y0380568D02*
X0043356Y0380568D01*
X0043019Y0380231D02*
X0044369Y0381581D01*
X0045100Y0383345D01*
X0045100Y0385255D01*
X0044369Y0387019D01*
X0043019Y0388369D01*
X0041255Y0389100D01*
X0033345Y0389100D01*
X0031581Y0388369D01*
X0030231Y0387019D01*
X0030057Y0386600D01*
X0018943Y0386600D01*
X0018769Y0387019D01*
X0017419Y0388369D01*
X0015655Y0389100D01*
X0007745Y0389100D01*
X0005981Y0388369D01*
X0004631Y0387019D01*
X0003900Y0385255D01*
X0003900Y0383345D01*
X0004631Y0381581D01*
X0005981Y0380231D01*
X0007745Y0379500D01*
X0015655Y0379500D01*
X0017419Y0380231D01*
X0018769Y0381581D01*
X0018943Y0382000D01*
X0030057Y0382000D01*
X0030231Y0381581D01*
X0031581Y0380231D01*
X0033345Y0379500D01*
X0041255Y0379500D01*
X0043019Y0380231D01*
X0044612Y0382166D02*
X0048700Y0382166D01*
X0048700Y0383765D02*
X0045100Y0383765D01*
X0045055Y0385363D02*
X0048875Y0385363D01*
X0050474Y0386962D02*
X0044393Y0386962D01*
X0042558Y0388560D02*
X0051351Y0388560D01*
X0049753Y0390159D02*
X0003800Y0390159D01*
X0003800Y0391757D02*
X0048700Y0391757D01*
X0048700Y0393356D02*
X0003800Y0393356D01*
X0003800Y0394954D02*
X0048700Y0394954D01*
X0050065Y0396553D02*
X0003800Y0396553D01*
X0003800Y0398151D02*
X0005860Y0398151D01*
X0004478Y0399750D02*
X0003800Y0399750D01*
X0003800Y0401348D02*
X0003900Y0401348D01*
X0003900Y0402947D02*
X0003800Y0402947D01*
X0003800Y0404545D02*
X0004517Y0404545D01*
X0018883Y0404545D02*
X0030117Y0404545D01*
X0029500Y0402947D02*
X0019500Y0402947D01*
X0019500Y0401348D02*
X0029500Y0401348D01*
X0030078Y0399750D02*
X0018922Y0399750D01*
X0017540Y0398151D02*
X0031460Y0398151D01*
X0032042Y0388560D02*
X0016958Y0388560D01*
X0018793Y0386962D02*
X0030207Y0386962D01*
X0031244Y0380568D02*
X0017756Y0380568D01*
X0006442Y0388560D02*
X0003800Y0388560D01*
X0003800Y0386962D02*
X0004607Y0386962D01*
X0003945Y0385363D02*
X0003800Y0385363D01*
X0003800Y0383765D02*
X0003900Y0383765D01*
X0003800Y0382166D02*
X0004388Y0382166D01*
X0003800Y0380568D02*
X0005644Y0380568D01*
X0026698Y0342203D02*
X0120562Y0342203D01*
X0124011Y0340605D02*
X0027100Y0340605D01*
X0027100Y0339006D02*
X0124218Y0339006D01*
X0135800Y0372575D02*
X0255700Y0372575D01*
X0255708Y0374174D02*
X0135800Y0374174D01*
X0135800Y0375772D02*
X0256370Y0375772D01*
X0258026Y0377371D02*
X0135800Y0377371D01*
X0136057Y0378969D02*
X0140943Y0378969D01*
X0141512Y0378400D02*
X0143300Y0378400D01*
X0143300Y0383000D01*
X0143700Y0383000D01*
X0143700Y0383400D01*
X0148300Y0383400D01*
X0148300Y0385188D01*
X0145488Y0388000D01*
X0143700Y0388000D01*
X0143700Y0383400D01*
X0143300Y0383400D01*
X0143300Y0388000D01*
X0141512Y0388000D01*
X0138700Y0385188D01*
X0138700Y0383400D01*
X0143300Y0383400D01*
X0143300Y0383000D01*
X0138700Y0383000D01*
X0138700Y0381212D01*
X0141512Y0378400D01*
X0143300Y0378969D02*
X0143700Y0378969D01*
X0143700Y0378400D02*
X0145488Y0378400D01*
X0148300Y0381212D01*
X0148300Y0383000D01*
X0143700Y0383000D01*
X0143700Y0378400D01*
X0143700Y0380568D02*
X0143300Y0380568D01*
X0143300Y0382166D02*
X0143700Y0382166D01*
X0143700Y0383765D02*
X0143300Y0383765D01*
X0143300Y0385363D02*
X0143700Y0385363D01*
X0143700Y0386962D02*
X0143300Y0386962D01*
X0143300Y0388400D02*
X0143300Y0393000D01*
X0143700Y0393000D01*
X0143700Y0393400D01*
X0148300Y0393400D01*
X0148300Y0395188D01*
X0145488Y0398000D01*
X0143700Y0398000D01*
X0143700Y0393400D01*
X0143300Y0393400D01*
X0143300Y0398000D01*
X0141512Y0398000D01*
X0138700Y0395188D01*
X0138700Y0393400D01*
X0143300Y0393400D01*
X0143300Y0393000D01*
X0138700Y0393000D01*
X0138700Y0391212D01*
X0141512Y0388400D01*
X0143300Y0388400D01*
X0143300Y0388560D02*
X0143700Y0388560D01*
X0143700Y0388400D02*
X0145488Y0388400D01*
X0148300Y0391212D01*
X0148300Y0393000D01*
X0143700Y0393000D01*
X0143700Y0388400D01*
X0143700Y0390159D02*
X0143300Y0390159D01*
X0143300Y0391757D02*
X0143700Y0391757D01*
X0143700Y0393356D02*
X0148700Y0393356D01*
X0148700Y0394954D02*
X0148300Y0394954D01*
X0148700Y0395188D02*
X0148700Y0391212D01*
X0151512Y0388400D01*
X0155488Y0388400D01*
X0158300Y0391212D01*
X0158300Y0395188D01*
X0155488Y0398000D01*
X0151512Y0398000D01*
X0148700Y0395188D01*
X0150065Y0396553D02*
X0146935Y0396553D01*
X0143700Y0396553D02*
X0143300Y0396553D01*
X0143300Y0394954D02*
X0143700Y0394954D01*
X0143300Y0393356D02*
X0138300Y0393356D01*
X0138300Y0394954D02*
X0138700Y0394954D01*
X0138300Y0395188D02*
X0135488Y0398000D01*
X0131512Y0398000D01*
X0128700Y0395188D01*
X0128700Y0391212D01*
X0131512Y0388400D01*
X0135488Y0388400D01*
X0138300Y0391212D01*
X0138300Y0395188D01*
X0136935Y0396553D02*
X0140065Y0396553D01*
X0138700Y0391757D02*
X0138300Y0391757D01*
X0137247Y0390159D02*
X0139753Y0390159D01*
X0141351Y0388560D02*
X0135649Y0388560D01*
X0136526Y0386962D02*
X0140474Y0386962D01*
X0138875Y0385363D02*
X0138125Y0385363D01*
X0138300Y0383765D02*
X0138700Y0383765D01*
X0138700Y0382166D02*
X0138300Y0382166D01*
X0137656Y0380568D02*
X0139344Y0380568D01*
X0146057Y0378969D02*
X0150943Y0378969D01*
X0151512Y0378400D02*
X0155488Y0378400D01*
X0158300Y0381212D01*
X0158300Y0385188D01*
X0155488Y0388000D01*
X0151512Y0388000D01*
X0148700Y0385188D01*
X0148700Y0381212D01*
X0151512Y0378400D01*
X0149344Y0380568D02*
X0147656Y0380568D01*
X0148300Y0382166D02*
X0148700Y0382166D01*
X0148700Y0383765D02*
X0148300Y0383765D01*
X0148125Y0385363D02*
X0148875Y0385363D01*
X0150474Y0386962D02*
X0146526Y0386962D01*
X0145649Y0388560D02*
X0151351Y0388560D01*
X0149753Y0390159D02*
X0147247Y0390159D01*
X0148300Y0391757D02*
X0148700Y0391757D01*
X0155649Y0388560D02*
X0171200Y0388560D01*
X0171200Y0388712D02*
X0171200Y0387688D01*
X0168700Y0385188D01*
X0168700Y0381212D01*
X0171512Y0378400D01*
X0175488Y0378400D01*
X0178300Y0381212D01*
X0178300Y0385188D01*
X0175800Y0387688D01*
X0175800Y0388712D01*
X0178300Y0391212D01*
X0178300Y0395188D01*
X0175488Y0398000D01*
X0171512Y0398000D01*
X0168700Y0395188D01*
X0168700Y0391212D01*
X0171200Y0388712D01*
X0170474Y0386962D02*
X0156526Y0386962D01*
X0158125Y0385363D02*
X0168875Y0385363D01*
X0168700Y0383765D02*
X0158300Y0383765D01*
X0158300Y0382166D02*
X0168700Y0382166D01*
X0169344Y0380568D02*
X0157656Y0380568D01*
X0156057Y0378969D02*
X0170943Y0378969D01*
X0176057Y0378969D02*
X0180943Y0378969D01*
X0181512Y0378400D02*
X0178700Y0381212D01*
X0178700Y0385188D01*
X0181200Y0387688D01*
X0181200Y0388712D01*
X0178700Y0391212D01*
X0178700Y0395188D01*
X0181512Y0398000D01*
X0185488Y0398000D01*
X0188300Y0395188D01*
X0188300Y0391212D01*
X0185800Y0388712D01*
X0185800Y0387688D01*
X0188300Y0385188D01*
X0188300Y0381212D01*
X0185488Y0378400D01*
X0181512Y0378400D01*
X0179344Y0380568D02*
X0177656Y0380568D01*
X0178300Y0382166D02*
X0178700Y0382166D01*
X0178700Y0383765D02*
X0178300Y0383765D01*
X0178125Y0385363D02*
X0178875Y0385363D01*
X0180474Y0386962D02*
X0176526Y0386962D01*
X0175800Y0388560D02*
X0181200Y0388560D01*
X0179753Y0390159D02*
X0177247Y0390159D01*
X0178300Y0391757D02*
X0178700Y0391757D01*
X0178700Y0393356D02*
X0178300Y0393356D01*
X0178300Y0394954D02*
X0178700Y0394954D01*
X0180065Y0396553D02*
X0176935Y0396553D01*
X0170065Y0396553D02*
X0156935Y0396553D01*
X0158300Y0394954D02*
X0168700Y0394954D01*
X0168700Y0393356D02*
X0158300Y0393356D01*
X0158300Y0391757D02*
X0168700Y0391757D01*
X0169753Y0390159D02*
X0157247Y0390159D01*
X0131351Y0388560D02*
X0125649Y0388560D01*
X0126526Y0386962D02*
X0130474Y0386962D01*
X0128875Y0385363D02*
X0128125Y0385363D01*
X0128300Y0383765D02*
X0128700Y0383765D01*
X0128700Y0382166D02*
X0128300Y0382166D01*
X0127656Y0380568D02*
X0129344Y0380568D01*
X0130943Y0378969D02*
X0126057Y0378969D01*
X0127247Y0390159D02*
X0129753Y0390159D01*
X0128700Y0391757D02*
X0128300Y0391757D01*
X0128300Y0393356D02*
X0128700Y0393356D01*
X0128700Y0394954D02*
X0128300Y0394954D01*
X0126935Y0396553D02*
X0130065Y0396553D01*
X0185800Y0388560D02*
X0191200Y0388560D01*
X0191200Y0388712D02*
X0191200Y0387688D01*
X0188700Y0385188D01*
X0188700Y0381212D01*
X0191512Y0378400D01*
X0195488Y0378400D01*
X0198300Y0381212D01*
X0198300Y0385188D01*
X0195800Y0387688D01*
X0195800Y0388712D01*
X0198300Y0391212D01*
X0198300Y0395188D01*
X0195488Y0398000D01*
X0191512Y0398000D01*
X0188700Y0395188D01*
X0188700Y0391212D01*
X0191200Y0388712D01*
X0190474Y0386962D02*
X0186526Y0386962D01*
X0188125Y0385363D02*
X0188875Y0385363D01*
X0188700Y0383765D02*
X0188300Y0383765D01*
X0188300Y0382166D02*
X0188700Y0382166D01*
X0189344Y0380568D02*
X0187656Y0380568D01*
X0186057Y0378969D02*
X0190943Y0378969D01*
X0196057Y0378969D02*
X0200943Y0378969D01*
X0201512Y0378400D02*
X0205488Y0378400D01*
X0208300Y0381212D01*
X0208300Y0385188D01*
X0205800Y0387688D01*
X0205800Y0388712D01*
X0208300Y0391212D01*
X0208300Y0395188D01*
X0205488Y0398000D01*
X0201512Y0398000D01*
X0198700Y0395188D01*
X0198700Y0391212D01*
X0201200Y0388712D01*
X0201200Y0387688D01*
X0198700Y0385188D01*
X0198700Y0381212D01*
X0201512Y0378400D01*
X0199344Y0380568D02*
X0197656Y0380568D01*
X0198300Y0382166D02*
X0198700Y0382166D01*
X0198700Y0383765D02*
X0198300Y0383765D01*
X0198125Y0385363D02*
X0198875Y0385363D01*
X0200474Y0386962D02*
X0196526Y0386962D01*
X0195800Y0388560D02*
X0201200Y0388560D01*
X0199753Y0390159D02*
X0197247Y0390159D01*
X0198300Y0391757D02*
X0198700Y0391757D01*
X0198700Y0393356D02*
X0198300Y0393356D01*
X0198300Y0394954D02*
X0198700Y0394954D01*
X0200065Y0396553D02*
X0196935Y0396553D01*
X0190065Y0396553D02*
X0186935Y0396553D01*
X0188300Y0394954D02*
X0188700Y0394954D01*
X0188700Y0393356D02*
X0188300Y0393356D01*
X0188300Y0391757D02*
X0188700Y0391757D01*
X0189753Y0390159D02*
X0187247Y0390159D01*
X0205800Y0388560D02*
X0211200Y0388560D01*
X0210474Y0386962D02*
X0206526Y0386962D01*
X0208125Y0385363D02*
X0208875Y0385363D01*
X0208700Y0383765D02*
X0208300Y0383765D01*
X0208300Y0382166D02*
X0208700Y0382166D01*
X0209344Y0380568D02*
X0207656Y0380568D01*
X0206057Y0378969D02*
X0210943Y0378969D01*
X0209753Y0390159D02*
X0207247Y0390159D01*
X0208300Y0391757D02*
X0208700Y0391757D01*
X0208700Y0393356D02*
X0208300Y0393356D01*
X0208300Y0394954D02*
X0208700Y0394954D01*
X0210065Y0396553D02*
X0206935Y0396553D01*
X0222006Y0402947D02*
X0281200Y0402947D01*
X0281200Y0404545D02*
X0044483Y0404545D01*
X0056935Y0396553D02*
X0060065Y0396553D01*
X0058700Y0394954D02*
X0058300Y0394954D01*
X0058300Y0393356D02*
X0058700Y0393356D01*
X0058700Y0391757D02*
X0058300Y0391757D01*
X0057247Y0390159D02*
X0059753Y0390159D01*
X0024629Y0325132D02*
X0022534Y0326000D01*
X0012466Y0326000D01*
X0010371Y0325132D01*
X0008768Y0323529D01*
X0007900Y0321434D01*
X0007900Y0319166D01*
X0008768Y0317071D01*
X0010371Y0315468D01*
X0012466Y0314600D01*
X0022534Y0314600D01*
X0024629Y0315468D01*
X0026232Y0317071D01*
X0027100Y0319166D01*
X0027100Y0321434D01*
X0026232Y0323529D01*
X0024629Y0325132D01*
X0025141Y0324620D02*
X0232211Y0324620D01*
X0232304Y0324396D02*
X0233696Y0323004D01*
X0235515Y0322250D01*
X0237485Y0322250D01*
X0239304Y0323004D01*
X0240696Y0324396D01*
X0241450Y0326215D01*
X0241450Y0328185D01*
X0240696Y0330004D01*
X0239304Y0331396D01*
X0237485Y0332150D01*
X0235515Y0332150D01*
X0233696Y0331396D01*
X0232304Y0330004D01*
X0231550Y0328185D01*
X0231550Y0326215D01*
X0232304Y0324396D01*
X0233678Y0323021D02*
X0026442Y0323021D01*
X0027100Y0321423D02*
X0192697Y0321423D01*
X0193125Y0321600D02*
X0191508Y0320930D01*
X0190270Y0319692D01*
X0189600Y0318075D01*
X0189600Y0316325D01*
X0190270Y0314708D01*
X0191508Y0313470D01*
X0193125Y0312800D01*
X0194875Y0312800D01*
X0196492Y0313470D01*
X0197730Y0314708D01*
X0198400Y0316325D01*
X0198400Y0318075D01*
X0197730Y0319692D01*
X0196492Y0320930D01*
X0194875Y0321600D01*
X0193125Y0321600D01*
X0195303Y0321423D02*
X0211697Y0321423D01*
X0212125Y0321600D02*
X0210508Y0320930D01*
X0209270Y0319692D01*
X0208600Y0318075D01*
X0208600Y0316325D01*
X0209270Y0314708D01*
X0210508Y0313470D01*
X0212125Y0312800D01*
X0213875Y0312800D01*
X0215492Y0313470D01*
X0216730Y0314708D01*
X0217400Y0316325D01*
X0217400Y0318075D01*
X0216730Y0319692D01*
X0215492Y0320930D01*
X0213875Y0321600D01*
X0212125Y0321600D01*
X0214303Y0321423D02*
X0230600Y0321423D01*
X0229822Y0319824D02*
X0216598Y0319824D01*
X0217338Y0318226D02*
X0229938Y0318226D01*
X0229657Y0316627D02*
X0217400Y0316627D01*
X0216863Y0315029D02*
X0227481Y0315029D01*
X0227011Y0313430D02*
X0215397Y0313430D01*
X0210603Y0313430D02*
X0196397Y0313430D01*
X0197863Y0315029D02*
X0209137Y0315029D01*
X0208600Y0316627D02*
X0198400Y0316627D01*
X0198338Y0318226D02*
X0208662Y0318226D01*
X0209402Y0319824D02*
X0197598Y0319824D01*
X0191603Y0313430D02*
X0003800Y0313430D01*
X0003800Y0311832D02*
X0167217Y0311832D01*
X0167532Y0312146D02*
X0166554Y0311168D01*
X0166025Y0309891D01*
X0166025Y0308509D01*
X0166554Y0307232D01*
X0167532Y0306254D01*
X0168809Y0305725D01*
X0169722Y0305725D01*
X0172547Y0302900D01*
X0187262Y0302900D01*
X0187542Y0302224D01*
X0188524Y0301242D01*
X0189806Y0300711D01*
X0191194Y0300711D01*
X0192476Y0301242D01*
X0193458Y0302224D01*
X0193989Y0303506D01*
X0193989Y0304711D01*
X0194194Y0304711D01*
X0195476Y0305242D01*
X0196458Y0306224D01*
X0196989Y0307506D01*
X0196989Y0308894D01*
X0196458Y0310176D01*
X0195476Y0311158D01*
X0194194Y0311689D01*
X0192806Y0311689D01*
X0191524Y0311158D01*
X0191055Y0310689D01*
X0180134Y0310689D01*
X0179476Y0311347D01*
X0178194Y0311878D01*
X0176806Y0311878D01*
X0175524Y0311347D01*
X0174542Y0310365D01*
X0174011Y0309083D01*
X0174011Y0307942D01*
X0172975Y0308978D01*
X0172975Y0309891D01*
X0172446Y0311168D01*
X0171468Y0312146D01*
X0170191Y0312675D01*
X0168809Y0312675D01*
X0167532Y0312146D01*
X0166167Y0310233D02*
X0003800Y0310233D01*
X0003800Y0308635D02*
X0166025Y0308635D01*
X0166749Y0307036D02*
X0003800Y0307036D01*
X0003800Y0305438D02*
X0170010Y0305438D01*
X0171608Y0303839D02*
X0003800Y0303839D01*
X0003800Y0302241D02*
X0187535Y0302241D01*
X0184307Y0300642D02*
X0249270Y0300642D01*
X0248700Y0301212D02*
X0251512Y0298400D01*
X0255488Y0298400D01*
X0258300Y0301212D01*
X0258300Y0305188D01*
X0255488Y0308000D01*
X0251512Y0308000D01*
X0248700Y0305188D01*
X0248700Y0301212D01*
X0248700Y0302241D02*
X0193465Y0302241D01*
X0193989Y0303839D02*
X0248700Y0303839D01*
X0248950Y0305438D02*
X0195672Y0305438D01*
X0196794Y0307036D02*
X0250548Y0307036D01*
X0251277Y0308635D02*
X0196989Y0308635D01*
X0196401Y0310233D02*
X0228545Y0310233D01*
X0227290Y0311832D02*
X0178305Y0311832D01*
X0176695Y0311832D02*
X0171783Y0311832D01*
X0172833Y0310233D02*
X0174487Y0310233D01*
X0174011Y0308635D02*
X0173318Y0308635D01*
X0180487Y0299044D02*
X0121367Y0299044D01*
X0121161Y0299327D02*
X0120627Y0299861D01*
X0120016Y0300305D01*
X0119343Y0300648D01*
X0118624Y0300882D01*
X0117878Y0301000D01*
X0114700Y0301000D01*
X0114700Y0296400D01*
X0122300Y0296400D01*
X0122300Y0296578D01*
X0122182Y0297324D01*
X0121948Y0298043D01*
X0121605Y0298716D01*
X0121161Y0299327D01*
X0122142Y0297445D02*
X0180011Y0297445D01*
X0180284Y0295847D02*
X0122300Y0295847D01*
X0119355Y0300642D02*
X0182693Y0300642D01*
X0189324Y0289453D02*
X0163687Y0289453D01*
X0184493Y0283059D02*
X0121147Y0283059D01*
X0118600Y0281460D02*
X0184011Y0281460D01*
X0184278Y0279862D02*
X0120627Y0279862D01*
X0121841Y0278263D02*
X0185503Y0278263D01*
X0195989Y0275066D02*
X0248700Y0275066D01*
X0250176Y0276665D02*
X0197217Y0276665D01*
X0200414Y0279862D02*
X0250050Y0279862D01*
X0256950Y0279862D02*
X0260050Y0279862D01*
X0258700Y0281460D02*
X0258300Y0281460D01*
X0258300Y0283059D02*
X0258700Y0283059D01*
X0258700Y0284657D02*
X0258300Y0284657D01*
X0257233Y0286256D02*
X0259767Y0286256D01*
X0261366Y0287854D02*
X0255634Y0287854D01*
X0256541Y0289453D02*
X0260459Y0289453D01*
X0258861Y0291051D02*
X0258139Y0291051D01*
X0258300Y0292650D02*
X0258700Y0292650D01*
X0258700Y0294248D02*
X0258300Y0294248D01*
X0257642Y0295847D02*
X0259358Y0295847D01*
X0260957Y0297445D02*
X0256043Y0297445D01*
X0256132Y0299044D02*
X0260868Y0299044D01*
X0259270Y0300642D02*
X0257730Y0300642D01*
X0258300Y0302241D02*
X0258700Y0302241D01*
X0258700Y0303839D02*
X0258300Y0303839D01*
X0258050Y0305438D02*
X0258950Y0305438D01*
X0260548Y0307036D02*
X0256452Y0307036D01*
X0255723Y0308635D02*
X0261277Y0308635D01*
X0261512Y0308400D02*
X0265488Y0308400D01*
X0268300Y0311212D01*
X0268300Y0315188D01*
X0265488Y0318000D01*
X0261512Y0318000D01*
X0258700Y0315188D01*
X0258700Y0311212D01*
X0261512Y0308400D01*
X0259679Y0310233D02*
X0257321Y0310233D01*
X0258300Y0311832D02*
X0258700Y0311832D01*
X0258700Y0313430D02*
X0258300Y0313430D01*
X0258300Y0315029D02*
X0258700Y0315029D01*
X0260139Y0316627D02*
X0256861Y0316627D01*
X0256913Y0319824D02*
X0260087Y0319824D01*
X0258700Y0321423D02*
X0258300Y0321423D01*
X0258300Y0323021D02*
X0258700Y0323021D01*
X0258700Y0324620D02*
X0258300Y0324620D01*
X0257270Y0326218D02*
X0259730Y0326218D01*
X0261329Y0327817D02*
X0257051Y0327817D01*
X0250087Y0319824D02*
X0249800Y0319824D01*
X0249800Y0318226D02*
X0271200Y0318226D01*
X0271200Y0319824D02*
X0266913Y0319824D01*
X0268300Y0321423D02*
X0271200Y0321423D01*
X0271200Y0323021D02*
X0268300Y0323021D01*
X0268300Y0324620D02*
X0271200Y0324620D01*
X0271200Y0326218D02*
X0267270Y0326218D01*
X0266949Y0327817D02*
X0265671Y0327817D01*
X0266861Y0316627D02*
X0271200Y0316627D01*
X0271200Y0315029D02*
X0268300Y0315029D01*
X0268300Y0313430D02*
X0271200Y0313430D01*
X0271200Y0311832D02*
X0268300Y0311832D01*
X0267321Y0310233D02*
X0271200Y0310233D01*
X0270682Y0308635D02*
X0265723Y0308635D01*
X0266452Y0307036D02*
X0269084Y0307036D01*
X0249679Y0310233D02*
X0232455Y0310233D01*
X0239322Y0323021D02*
X0240771Y0323021D01*
X0240789Y0324620D02*
X0241986Y0324620D01*
X0241450Y0326218D02*
X0245200Y0326218D01*
X0245200Y0327817D02*
X0241450Y0327817D01*
X0240940Y0329415D02*
X0245200Y0329415D01*
X0245200Y0331014D02*
X0239686Y0331014D01*
X0238913Y0332612D02*
X0245200Y0332612D01*
X0245200Y0334211D02*
X0240511Y0334211D01*
X0241450Y0335809D02*
X0245200Y0335809D01*
X0245200Y0337408D02*
X0241450Y0337408D01*
X0241450Y0339006D02*
X0245200Y0339006D01*
X0245200Y0340605D02*
X0240095Y0340605D01*
X0245200Y0342203D02*
X0234749Y0342203D01*
X0234645Y0343802D02*
X0232619Y0343802D01*
X0232989Y0345401D02*
X0233047Y0345401D01*
X0234087Y0332612D02*
X0003800Y0332612D01*
X0003800Y0331014D02*
X0233314Y0331014D01*
X0232060Y0329415D02*
X0003800Y0329415D01*
X0003800Y0327817D02*
X0231550Y0327817D01*
X0231550Y0326218D02*
X0003800Y0326218D01*
X0003800Y0324620D02*
X0009859Y0324620D01*
X0008558Y0323021D02*
X0003800Y0323021D01*
X0003800Y0321423D02*
X0007900Y0321423D01*
X0007900Y0319824D02*
X0003800Y0319824D01*
X0003800Y0318226D02*
X0008290Y0318226D01*
X0009212Y0316627D02*
X0003800Y0316627D01*
X0003800Y0315029D02*
X0011431Y0315029D01*
X0003800Y0300642D02*
X0109645Y0300642D01*
X0107633Y0299044D02*
X0003800Y0299044D01*
X0003800Y0297445D02*
X0106858Y0297445D01*
X0106700Y0296000D02*
X0106700Y0295822D01*
X0106818Y0295076D01*
X0107052Y0294357D01*
X0107395Y0293684D01*
X0107839Y0293073D01*
X0108373Y0292539D01*
X0108984Y0292095D01*
X0109657Y0291752D01*
X0110376Y0291518D01*
X0111122Y0291400D01*
X0114300Y0291400D01*
X0114300Y0296000D01*
X0106700Y0296000D01*
X0106700Y0295847D02*
X0003800Y0295847D01*
X0003800Y0294248D02*
X0030887Y0294248D01*
X0031839Y0294798D02*
X0029491Y0293442D01*
X0027573Y0291524D01*
X0026217Y0289176D01*
X0025515Y0286556D01*
X0025515Y0283844D01*
X0026217Y0281224D01*
X0027573Y0278876D01*
X0029491Y0276958D01*
X0031839Y0275602D01*
X0034459Y0274900D01*
X0037171Y0274900D01*
X0039791Y0275602D01*
X0042139Y0276958D01*
X0044057Y0278876D01*
X0045413Y0281224D01*
X0046115Y0283844D01*
X0046115Y0286556D01*
X0045413Y0289176D01*
X0044057Y0291524D01*
X0042139Y0293442D01*
X0039791Y0294798D01*
X0037171Y0295500D01*
X0034459Y0295500D01*
X0031839Y0294798D01*
X0028698Y0292650D02*
X0003800Y0292650D01*
X0003800Y0291051D02*
X0027300Y0291051D01*
X0026377Y0289453D02*
X0003800Y0289453D01*
X0003800Y0287854D02*
X0025863Y0287854D01*
X0025515Y0286256D02*
X0003800Y0286256D01*
X0003800Y0284657D02*
X0025515Y0284657D01*
X0025725Y0283059D02*
X0003800Y0283059D01*
X0003800Y0281460D02*
X0026154Y0281460D01*
X0027004Y0279862D02*
X0003800Y0279862D01*
X0003800Y0278263D02*
X0028186Y0278263D01*
X0029999Y0276665D02*
X0003800Y0276665D01*
X0003800Y0275066D02*
X0033839Y0275066D01*
X0037791Y0275066D02*
X0041523Y0275066D01*
X0041631Y0276665D02*
X0045033Y0276665D01*
X0043444Y0278263D02*
X0051808Y0278263D01*
X0050626Y0279862D02*
X0044626Y0279862D01*
X0045476Y0281460D02*
X0049776Y0281460D01*
X0049347Y0283059D02*
X0045904Y0283059D01*
X0046115Y0284657D02*
X0049137Y0284657D01*
X0049137Y0286256D02*
X0046115Y0286256D01*
X0045767Y0287854D02*
X0049485Y0287854D01*
X0049999Y0289453D02*
X0045253Y0289453D01*
X0044330Y0291051D02*
X0050922Y0291051D01*
X0052320Y0292650D02*
X0042932Y0292650D01*
X0040743Y0294248D02*
X0054509Y0294248D01*
X0064365Y0294248D02*
X0107107Y0294248D01*
X0108262Y0292650D02*
X0066554Y0292650D01*
X0069098Y0281460D02*
X0110400Y0281460D01*
X0109413Y0271869D02*
X0108422Y0271869D01*
X0108784Y0270270D02*
X0106823Y0270270D01*
X0107328Y0268672D02*
X0105225Y0268672D01*
X0106700Y0267073D02*
X0103626Y0267073D01*
X0102028Y0265475D02*
X0106700Y0265475D01*
X0107267Y0263876D02*
X0101300Y0263876D01*
X0101300Y0262278D02*
X0108634Y0262278D01*
X0109771Y0260679D02*
X0100651Y0260679D01*
X0099099Y0259081D02*
X0107593Y0259081D01*
X0107431Y0258919D02*
X0106700Y0257155D01*
X0106700Y0255245D01*
X0107431Y0253481D01*
X0108781Y0252131D01*
X0110545Y0251400D01*
X0118455Y0251400D01*
X0120219Y0252131D01*
X0121569Y0253481D01*
X0122300Y0255245D01*
X0122300Y0257155D01*
X0121569Y0258919D01*
X0120219Y0260269D01*
X0118455Y0261000D01*
X0110545Y0261000D01*
X0108781Y0260269D01*
X0107431Y0258919D01*
X0106836Y0257482D02*
X0098668Y0257482D01*
X0098343Y0257648D02*
X0097624Y0257882D01*
X0096878Y0258000D01*
X0093700Y0258000D01*
X0093700Y0253400D01*
X0093300Y0253400D01*
X0093300Y0253000D01*
X0093700Y0253000D01*
X0093700Y0253400D01*
X0101300Y0253400D01*
X0101300Y0253578D01*
X0101182Y0254324D01*
X0100948Y0255043D01*
X0100605Y0255716D01*
X0100161Y0256327D01*
X0099627Y0256861D01*
X0099016Y0257305D01*
X0098343Y0257648D01*
X0100483Y0255884D02*
X0106700Y0255884D01*
X0107098Y0254285D02*
X0101188Y0254285D01*
X0101300Y0253000D02*
X0093700Y0253000D01*
X0093700Y0248400D01*
X0096878Y0248400D01*
X0097624Y0248518D01*
X0098343Y0248752D01*
X0099016Y0249095D01*
X0099627Y0249539D01*
X0100161Y0250073D01*
X0100605Y0250684D01*
X0100948Y0251357D01*
X0101182Y0252076D01*
X0101300Y0252822D01*
X0101300Y0253000D01*
X0101279Y0252687D02*
X0108225Y0252687D01*
X0108781Y0250269D02*
X0107431Y0248919D01*
X0106700Y0247155D01*
X0106700Y0245245D01*
X0107431Y0243481D01*
X0108781Y0242131D01*
X0110545Y0241400D01*
X0118455Y0241400D01*
X0120219Y0242131D01*
X0121569Y0243481D01*
X0122300Y0245245D01*
X0122300Y0247155D01*
X0121569Y0248919D01*
X0120219Y0250269D01*
X0118455Y0251000D01*
X0110545Y0251000D01*
X0108781Y0250269D01*
X0108002Y0249490D02*
X0099560Y0249490D01*
X0100811Y0251088D02*
X0153700Y0251088D01*
X0153700Y0250444D02*
X0153700Y0251956D01*
X0154279Y0253353D01*
X0155347Y0254421D01*
X0156744Y0255000D01*
X0182256Y0255000D01*
X0183653Y0254421D01*
X0184721Y0253353D01*
X0185300Y0251956D01*
X0185300Y0250444D01*
X0184721Y0249047D01*
X0183653Y0247979D01*
X0182256Y0247400D01*
X0165445Y0247400D01*
X0156744Y0247400D01*
X0155347Y0247979D01*
X0154279Y0249047D01*
X0153700Y0250444D01*
X0154095Y0249490D02*
X0120998Y0249490D01*
X0121995Y0247891D02*
X0155558Y0247891D01*
X0154003Y0252687D02*
X0120775Y0252687D01*
X0121902Y0254285D02*
X0155211Y0254285D01*
X0158438Y0225512D02*
X0122300Y0225512D01*
X0122300Y0225245D02*
X0122300Y0227155D01*
X0121569Y0228919D01*
X0120219Y0230269D01*
X0118455Y0231000D01*
X0110545Y0231000D01*
X0108781Y0230269D01*
X0107431Y0228919D01*
X0106700Y0227155D01*
X0106700Y0225245D01*
X0107431Y0223481D01*
X0108781Y0222131D01*
X0110545Y0221400D01*
X0118455Y0221400D01*
X0120219Y0222131D01*
X0121569Y0223481D01*
X0122300Y0225245D01*
X0121748Y0223914D02*
X0157700Y0223914D01*
X0157753Y0222315D02*
X0120403Y0222315D01*
X0122300Y0227111D02*
X0218764Y0227111D01*
X0218700Y0225512D02*
X0187562Y0225512D01*
X0188300Y0223914D02*
X0219412Y0223914D01*
X0219635Y0228709D02*
X0121656Y0228709D01*
X0120126Y0230308D02*
X0237140Y0230308D01*
X0237365Y0228709D02*
X0238738Y0228709D01*
X0238963Y0227111D02*
X0240337Y0227111D01*
X0240562Y0225512D02*
X0241935Y0225512D01*
X0242160Y0223914D02*
X0243534Y0223914D01*
X0243737Y0222315D02*
X0245132Y0222315D01*
X0244300Y0220717D02*
X0249195Y0220717D01*
X0250794Y0219118D02*
X0244165Y0219118D01*
X0243194Y0217520D02*
X0251031Y0217520D01*
X0249024Y0225512D02*
X0248441Y0225512D01*
X0246842Y0227111D02*
X0250622Y0227111D01*
X0251203Y0228709D02*
X0245243Y0228709D01*
X0243645Y0230308D02*
X0249604Y0230308D01*
X0250214Y0236702D02*
X0246251Y0236702D01*
X0244652Y0238300D02*
X0281200Y0238300D01*
X0281200Y0239899D02*
X0243054Y0239899D01*
X0241800Y0241497D02*
X0281200Y0241497D01*
X0281200Y0243096D02*
X0241800Y0243096D01*
X0241800Y0244694D02*
X0281200Y0244694D01*
X0281200Y0246293D02*
X0241800Y0246293D01*
X0241800Y0247891D02*
X0281200Y0247891D01*
X0281200Y0249490D02*
X0266578Y0249490D01*
X0265488Y0248400D02*
X0268300Y0251212D01*
X0268300Y0255188D01*
X0265488Y0258000D01*
X0261512Y0258000D01*
X0258700Y0255188D01*
X0258700Y0251212D01*
X0261512Y0248400D01*
X0265488Y0248400D01*
X0268177Y0251088D02*
X0281200Y0251088D01*
X0281200Y0252687D02*
X0268300Y0252687D01*
X0268300Y0254285D02*
X0281200Y0254285D01*
X0281200Y0255884D02*
X0267604Y0255884D01*
X0266006Y0257482D02*
X0281200Y0257482D01*
X0281200Y0259081D02*
X0266169Y0259081D01*
X0265488Y0258400D02*
X0261512Y0258400D01*
X0258700Y0261212D01*
X0258700Y0265188D01*
X0261512Y0268000D01*
X0265488Y0268000D01*
X0268300Y0265188D01*
X0268300Y0261212D01*
X0265488Y0258400D01*
X0267768Y0260679D02*
X0281200Y0260679D01*
X0281200Y0262278D02*
X0268300Y0262278D01*
X0268300Y0263876D02*
X0281200Y0263876D01*
X0281200Y0265475D02*
X0268013Y0265475D01*
X0266415Y0267073D02*
X0281200Y0267073D01*
X0281200Y0268672D02*
X0265760Y0268672D01*
X0267359Y0270270D02*
X0281200Y0270270D01*
X0281200Y0271869D02*
X0268300Y0271869D01*
X0268300Y0273468D02*
X0281200Y0273468D01*
X0281200Y0275066D02*
X0268300Y0275066D01*
X0261240Y0268672D02*
X0255760Y0268672D01*
X0256415Y0267073D02*
X0260585Y0267073D01*
X0258987Y0265475D02*
X0258013Y0265475D01*
X0258300Y0263876D02*
X0258700Y0263876D01*
X0258700Y0262278D02*
X0258300Y0262278D01*
X0257768Y0260679D02*
X0259232Y0260679D01*
X0260831Y0259081D02*
X0256169Y0259081D01*
X0255488Y0258000D02*
X0251512Y0258000D01*
X0248700Y0255188D01*
X0248700Y0251212D01*
X0251512Y0248400D01*
X0255488Y0248400D01*
X0258300Y0251212D01*
X0258300Y0255188D01*
X0255488Y0258000D01*
X0256006Y0257482D02*
X0260994Y0257482D01*
X0259396Y0255884D02*
X0257604Y0255884D01*
X0258300Y0254285D02*
X0258700Y0254285D01*
X0258700Y0252687D02*
X0258300Y0252687D01*
X0258177Y0251088D02*
X0258823Y0251088D01*
X0260422Y0249490D02*
X0256578Y0249490D01*
X0250422Y0249490D02*
X0241800Y0249490D01*
X0241800Y0251088D02*
X0248823Y0251088D01*
X0248700Y0252687D02*
X0241800Y0252687D01*
X0241800Y0254285D02*
X0248700Y0254285D01*
X0249396Y0255884D02*
X0241800Y0255884D01*
X0241800Y0257482D02*
X0250994Y0257482D01*
X0250831Y0259081D02*
X0241800Y0259081D01*
X0241800Y0260679D02*
X0249232Y0260679D01*
X0250585Y0267073D02*
X0244879Y0267073D01*
X0243281Y0268672D02*
X0251240Y0268672D01*
X0257359Y0270270D02*
X0259641Y0270270D01*
X0258700Y0271869D02*
X0258300Y0271869D01*
X0258300Y0273468D02*
X0258700Y0273468D01*
X0258700Y0275066D02*
X0258300Y0275066D01*
X0256824Y0276665D02*
X0260176Y0276665D01*
X0248700Y0294248D02*
X0247867Y0294248D01*
X0247975Y0295847D02*
X0249358Y0295847D01*
X0250957Y0297445D02*
X0247169Y0297445D01*
X0250868Y0299044D02*
X0196909Y0299044D01*
X0198507Y0297445D02*
X0223811Y0297445D01*
X0223011Y0295847D02*
X0199550Y0295847D01*
X0200183Y0294248D02*
X0217742Y0294248D01*
X0216324Y0292650D02*
X0200739Y0292650D01*
X0200531Y0291051D02*
X0216011Y0291051D01*
X0216447Y0289453D02*
X0199390Y0289453D01*
X0195110Y0289453D02*
X0193676Y0289453D01*
X0190137Y0315029D02*
X0023569Y0315029D01*
X0025788Y0316627D02*
X0189600Y0316627D01*
X0189662Y0318226D02*
X0026710Y0318226D01*
X0027100Y0319824D02*
X0190402Y0319824D01*
X0221258Y0294248D02*
X0223118Y0294248D01*
X0237478Y0265475D02*
X0239972Y0265475D01*
X0239076Y0263876D02*
X0241571Y0263876D01*
X0240675Y0262278D02*
X0243169Y0262278D01*
X0237200Y0259081D02*
X0121407Y0259081D01*
X0122164Y0257482D02*
X0237200Y0257482D01*
X0237200Y0255884D02*
X0122300Y0255884D01*
X0119229Y0260679D02*
X0235768Y0260679D01*
X0237200Y0254285D02*
X0183789Y0254285D01*
X0184997Y0252687D02*
X0237200Y0252687D01*
X0237200Y0251088D02*
X0185300Y0251088D01*
X0184905Y0249490D02*
X0237200Y0249490D01*
X0237200Y0247891D02*
X0183442Y0247891D01*
X0188247Y0222315D02*
X0233011Y0222315D01*
X0234609Y0220717D02*
X0187391Y0220717D01*
X0201751Y0214323D02*
X0211440Y0214323D01*
X0212922Y0235103D02*
X0122241Y0235103D01*
X0122300Y0236702D02*
X0211407Y0236702D01*
X0211074Y0238300D02*
X0121826Y0238300D01*
X0120589Y0239899D02*
X0211490Y0239899D01*
X0213406Y0241497D02*
X0118690Y0241497D01*
X0121184Y0243096D02*
X0237200Y0243096D01*
X0237200Y0244694D02*
X0122072Y0244694D01*
X0122300Y0246293D02*
X0237200Y0246293D01*
X0237200Y0241497D02*
X0215720Y0241497D01*
X0216204Y0235103D02*
X0232344Y0235103D01*
X0233943Y0233505D02*
X0121579Y0233505D01*
X0119677Y0231906D02*
X0235541Y0231906D01*
X0237251Y0236702D02*
X0239746Y0236702D01*
X0238849Y0235103D02*
X0241344Y0235103D01*
X0240448Y0233505D02*
X0242943Y0233505D01*
X0242046Y0231906D02*
X0244541Y0231906D01*
X0238147Y0238300D02*
X0235652Y0238300D01*
X0237200Y0239899D02*
X0234054Y0239899D01*
X0268300Y0195140D02*
X0281200Y0195140D01*
X0281200Y0193542D02*
X0268300Y0193542D01*
X0268300Y0191943D02*
X0281200Y0191943D01*
X0281200Y0190345D02*
X0267433Y0190345D01*
X0267300Y0188746D02*
X0281200Y0188746D01*
X0281200Y0187148D02*
X0267300Y0187148D01*
X0267939Y0185549D02*
X0281200Y0185549D01*
X0281200Y0183951D02*
X0268300Y0183951D01*
X0268300Y0182352D02*
X0281200Y0182352D01*
X0281200Y0180754D02*
X0267842Y0180754D01*
X0266244Y0179155D02*
X0281200Y0179155D01*
X0281200Y0177557D02*
X0265931Y0177557D01*
X0265488Y0178000D02*
X0263700Y0178000D01*
X0263700Y0173400D01*
X0263300Y0173400D01*
X0263300Y0178000D01*
X0261512Y0178000D01*
X0258700Y0175188D01*
X0258700Y0173400D01*
X0263300Y0173400D01*
X0263300Y0173000D01*
X0258700Y0173000D01*
X0258700Y0171212D01*
X0261512Y0168400D01*
X0263300Y0168400D01*
X0263300Y0173000D01*
X0263700Y0173000D01*
X0263700Y0173400D01*
X0268300Y0173400D01*
X0268300Y0175188D01*
X0265488Y0178000D01*
X0263700Y0177557D02*
X0263300Y0177557D01*
X0263300Y0175958D02*
X0263700Y0175958D01*
X0263700Y0174360D02*
X0263300Y0174360D01*
X0263700Y0173000D02*
X0268300Y0173000D01*
X0268300Y0171212D01*
X0265488Y0168400D01*
X0263700Y0168400D01*
X0263700Y0173000D01*
X0263700Y0172761D02*
X0263300Y0172761D01*
X0263300Y0171163D02*
X0263700Y0171163D01*
X0263700Y0169564D02*
X0263300Y0169564D01*
X0263300Y0167966D02*
X0263700Y0167966D01*
X0263700Y0166367D02*
X0263300Y0166367D01*
X0263300Y0164769D02*
X0263700Y0164769D01*
X0263700Y0161572D02*
X0263300Y0161572D01*
X0263300Y0159973D02*
X0263700Y0159973D01*
X0259939Y0159973D02*
X0257061Y0159973D01*
X0258300Y0161572D02*
X0258700Y0161572D01*
X0258700Y0164769D02*
X0258300Y0164769D01*
X0257121Y0166367D02*
X0259879Y0166367D01*
X0261478Y0167966D02*
X0255522Y0167966D01*
X0253700Y0167966D02*
X0253300Y0167966D01*
X0253300Y0169564D02*
X0253700Y0169564D01*
X0253700Y0171163D02*
X0253300Y0171163D01*
X0253300Y0172761D02*
X0253700Y0172761D01*
X0253700Y0174360D02*
X0253300Y0174360D01*
X0253300Y0175958D02*
X0253700Y0175958D01*
X0253700Y0177557D02*
X0253300Y0177557D01*
X0255931Y0177557D02*
X0261069Y0177557D01*
X0260756Y0179155D02*
X0256244Y0179155D01*
X0257842Y0180754D02*
X0259158Y0180754D01*
X0258700Y0182352D02*
X0258300Y0182352D01*
X0258300Y0183951D02*
X0258700Y0183951D01*
X0259061Y0185549D02*
X0257939Y0185549D01*
X0257300Y0187148D02*
X0259700Y0187148D01*
X0259700Y0188746D02*
X0257300Y0188746D01*
X0257530Y0175958D02*
X0259470Y0175958D01*
X0258700Y0174360D02*
X0258300Y0174360D01*
X0258300Y0172761D02*
X0258700Y0172761D01*
X0258749Y0171163D02*
X0258251Y0171163D01*
X0256652Y0169564D02*
X0260348Y0169564D01*
X0265522Y0167966D02*
X0281200Y0167966D01*
X0281200Y0169564D02*
X0266652Y0169564D01*
X0268251Y0171163D02*
X0281200Y0171163D01*
X0281200Y0172761D02*
X0268300Y0172761D01*
X0268300Y0174360D02*
X0281200Y0174360D01*
X0281200Y0175958D02*
X0267530Y0175958D01*
X0267121Y0166367D02*
X0281200Y0166367D01*
X0281200Y0164769D02*
X0268300Y0164769D01*
X0281200Y0150382D02*
X0003800Y0150382D01*
X0003800Y0148784D02*
X0281200Y0148784D01*
X0253700Y0159973D02*
X0253300Y0159973D01*
X0253300Y0161572D02*
X0253700Y0161572D01*
X0253700Y0164769D02*
X0253300Y0164769D01*
X0253300Y0166367D02*
X0253700Y0166367D01*
X0219879Y0166367D02*
X0217121Y0166367D01*
X0218300Y0164769D02*
X0218700Y0164769D01*
X0218700Y0163170D02*
X0218300Y0163170D01*
X0218300Y0161572D02*
X0218700Y0161572D01*
X0219939Y0159973D02*
X0217061Y0159973D01*
X0114700Y0292650D02*
X0114300Y0292650D01*
X0114300Y0294248D02*
X0114700Y0294248D01*
X0114700Y0295847D02*
X0114300Y0295847D01*
X0114300Y0297445D02*
X0114700Y0297445D01*
X0114700Y0299044D02*
X0114300Y0299044D01*
X0114300Y0300642D02*
X0114700Y0300642D01*
X0093700Y0257482D02*
X0093300Y0257482D01*
X0093300Y0255884D02*
X0093700Y0255884D01*
X0093700Y0254285D02*
X0093300Y0254285D01*
X0093300Y0253000D02*
X0085700Y0253000D01*
X0085700Y0252822D01*
X0085818Y0252076D01*
X0086052Y0251357D01*
X0086395Y0250684D01*
X0086839Y0250073D01*
X0087373Y0249539D01*
X0087984Y0249095D01*
X0088657Y0248752D01*
X0089376Y0248518D01*
X0090122Y0248400D01*
X0093300Y0248400D01*
X0093300Y0253000D01*
X0093300Y0252687D02*
X0093700Y0252687D01*
X0093700Y0251088D02*
X0093300Y0251088D01*
X0093300Y0249490D02*
X0093700Y0249490D01*
X0097717Y0247891D02*
X0107005Y0247891D01*
X0106700Y0246293D02*
X0100195Y0246293D01*
X0101077Y0244694D02*
X0106928Y0244694D01*
X0107816Y0243096D02*
X0101300Y0243096D01*
X0100990Y0241497D02*
X0110310Y0241497D01*
X0108411Y0239899D02*
X0099987Y0239899D01*
X0109323Y0231906D02*
X0074794Y0231906D01*
X0076393Y0230308D02*
X0108874Y0230308D01*
X0107344Y0228709D02*
X0077450Y0228709D01*
X0077450Y0227111D02*
X0106700Y0227111D01*
X0106700Y0225512D02*
X0077450Y0225512D01*
X0076214Y0223914D02*
X0107252Y0223914D01*
X0108597Y0222315D02*
X0074615Y0222315D01*
X0058786Y0223914D02*
X0003800Y0223914D01*
X0003800Y0225512D02*
X0057841Y0225512D01*
X0057215Y0227111D02*
X0003800Y0227111D01*
X0003800Y0228709D02*
X0055617Y0228709D01*
X0054018Y0230308D02*
X0003800Y0230308D01*
X0003800Y0231906D02*
X0052420Y0231906D01*
X0051700Y0233505D02*
X0003800Y0233505D01*
X0003800Y0235103D02*
X0051700Y0235103D01*
X0051700Y0236702D02*
X0003800Y0236702D01*
X0003800Y0238300D02*
X0051700Y0238300D01*
X0051700Y0239899D02*
X0003800Y0239899D01*
X0003800Y0241497D02*
X0051700Y0241497D01*
X0051700Y0243096D02*
X0003800Y0243096D01*
X0003800Y0244694D02*
X0051700Y0244694D01*
X0051700Y0246293D02*
X0003800Y0246293D01*
X0003800Y0247891D02*
X0051700Y0247891D01*
X0051700Y0249490D02*
X0003800Y0249490D01*
X0003800Y0251088D02*
X0051700Y0251088D01*
X0051700Y0252687D02*
X0003800Y0252687D01*
X0003800Y0254285D02*
X0051700Y0254285D01*
X0051700Y0255884D02*
X0003800Y0255884D01*
X0003800Y0257482D02*
X0042985Y0257482D01*
X0040675Y0259081D02*
X0003800Y0259081D01*
X0003800Y0260679D02*
X0039206Y0260679D01*
X0038283Y0262278D02*
X0003800Y0262278D01*
X0003800Y0263876D02*
X0037718Y0263876D01*
X0037326Y0265475D02*
X0003800Y0265475D01*
X0003800Y0267073D02*
X0037326Y0267073D01*
X0037492Y0268672D02*
X0003800Y0268672D01*
X0003800Y0270270D02*
X0037920Y0270270D01*
X0038719Y0271869D02*
X0003800Y0271869D01*
X0003800Y0273468D02*
X0039831Y0273468D01*
X0050219Y0276665D02*
X0053621Y0276665D01*
X0053729Y0275066D02*
X0055637Y0275066D01*
X0055637Y0273468D02*
X0055421Y0273468D01*
X0052408Y0257482D02*
X0052267Y0257482D01*
X0074816Y0255884D02*
X0086517Y0255884D01*
X0085812Y0254285D02*
X0076415Y0254285D01*
X0077450Y0252687D02*
X0085721Y0252687D01*
X0086189Y0251088D02*
X0077450Y0251088D01*
X0077450Y0249490D02*
X0087440Y0249490D01*
X0089283Y0247891D02*
X0076192Y0247891D01*
X0074593Y0246293D02*
X0086805Y0246293D01*
X0038755Y0191943D02*
X0032245Y0191943D01*
X0033624Y0190345D02*
X0037376Y0190345D01*
X0036800Y0188746D02*
X0034200Y0188746D01*
X0034200Y0187148D02*
X0036800Y0187148D01*
X0036800Y0185549D02*
X0034200Y0185549D01*
X0034200Y0183951D02*
X0036800Y0183951D01*
X0036800Y0182352D02*
X0034200Y0182352D01*
X0034079Y0180754D02*
X0036921Y0180754D01*
X0037656Y0179155D02*
X0033344Y0179155D01*
X0025456Y0179155D02*
X0015544Y0179155D01*
X0016279Y0180754D02*
X0024721Y0180754D01*
X0024600Y0182352D02*
X0016400Y0182352D01*
X0016400Y0183951D02*
X0024600Y0183951D01*
X0024600Y0185549D02*
X0016400Y0185549D01*
X0016400Y0187148D02*
X0024600Y0187148D01*
X0024600Y0188746D02*
X0016400Y0188746D01*
X0015824Y0190345D02*
X0025176Y0190345D01*
X0026555Y0191943D02*
X0014445Y0191943D01*
X0008779Y0166367D02*
X0003800Y0166367D01*
X0003800Y0164769D02*
X0007386Y0164769D01*
X0006800Y0163170D02*
X0003800Y0163170D01*
X0003800Y0161572D02*
X0006800Y0161572D01*
X0006800Y0159973D02*
X0003800Y0159973D01*
X0003800Y0158375D02*
X0006800Y0158375D01*
X0006800Y0156776D02*
X0003800Y0156776D01*
X0003800Y0155178D02*
X0006911Y0155178D01*
X0007633Y0153579D02*
X0003800Y0153579D01*
X0003800Y0151981D02*
X0009726Y0151981D01*
X0223300Y0364583D02*
X0223700Y0364583D01*
X0223700Y0366181D02*
X0223300Y0366181D01*
X0223300Y0367780D02*
X0223700Y0367780D01*
X0226554Y0367780D02*
X0230302Y0367780D01*
X0228782Y0366181D02*
X0228132Y0366181D01*
X0236057Y0378969D02*
X0240943Y0378969D01*
X0241512Y0378400D02*
X0245488Y0378400D01*
X0248300Y0381212D01*
X0248300Y0385188D01*
X0245800Y0387688D01*
X0245800Y0388712D01*
X0248300Y0391212D01*
X0248300Y0395188D01*
X0245488Y0398000D01*
X0241512Y0398000D01*
X0238700Y0395188D01*
X0238700Y0391212D01*
X0241200Y0388712D01*
X0241200Y0387688D01*
X0238700Y0385188D01*
X0238700Y0381212D01*
X0241512Y0378400D01*
X0239344Y0380568D02*
X0237656Y0380568D01*
X0238300Y0382166D02*
X0238700Y0382166D01*
X0238700Y0383765D02*
X0238300Y0383765D01*
X0238125Y0385363D02*
X0238875Y0385363D01*
X0240474Y0386962D02*
X0236526Y0386962D01*
X0235800Y0388560D02*
X0241200Y0388560D01*
X0239753Y0390159D02*
X0237247Y0390159D01*
X0238300Y0391757D02*
X0238700Y0391757D01*
X0238700Y0393356D02*
X0238300Y0393356D01*
X0238300Y0394954D02*
X0238700Y0394954D01*
X0240065Y0396553D02*
X0236935Y0396553D01*
X0246935Y0396553D02*
X0257065Y0396553D01*
X0256031Y0394954D02*
X0248300Y0394954D01*
X0248300Y0393356D02*
X0255700Y0393356D01*
X0255902Y0391757D02*
X0248300Y0391757D01*
X0247247Y0390159D02*
X0256753Y0390159D01*
X0259158Y0388560D02*
X0245800Y0388560D01*
X0246526Y0386962D02*
X0257511Y0386962D01*
X0256215Y0385363D02*
X0248125Y0385363D01*
X0248300Y0383765D02*
X0255730Y0383765D01*
X0255700Y0383000D02*
X0255700Y0382822D01*
X0255818Y0382076D01*
X0256052Y0381357D01*
X0256395Y0380684D01*
X0256839Y0380073D01*
X0257373Y0379539D01*
X0257984Y0379095D01*
X0258657Y0378752D01*
X0259376Y0378518D01*
X0260122Y0378400D01*
X0263300Y0378400D01*
X0263300Y0383000D01*
X0255700Y0383000D01*
X0255804Y0382166D02*
X0248300Y0382166D01*
X0247656Y0380568D02*
X0256479Y0380568D01*
X0258230Y0378969D02*
X0246057Y0378969D01*
X0250976Y0370977D02*
X0256225Y0370977D01*
X0257534Y0369378D02*
X0252574Y0369378D01*
X0254173Y0367780D02*
X0259013Y0367780D01*
X0256693Y0366181D02*
X0255772Y0366181D01*
X0263300Y0378969D02*
X0263700Y0378969D01*
X0263700Y0380568D02*
X0263300Y0380568D01*
X0263300Y0382166D02*
X0263700Y0382166D01*
X0263700Y0383765D02*
X0263300Y0383765D01*
X0263300Y0385363D02*
X0263700Y0385363D01*
X0263700Y0386962D02*
X0263300Y0386962D01*
X0267842Y0388560D02*
X0281200Y0388560D01*
X0281200Y0399750D02*
X0225203Y0399750D01*
X0223604Y0401348D02*
X0281200Y0401348D01*
X0250139Y0316627D02*
X0249800Y0316627D01*
D23*
X0244500Y0295200D03*
X0169500Y0309200D03*
X0089384Y0179084D03*
M02*
