G75*
%MOIN*%
%OFA0B0*%
%FSLAX25Y25*%
%IPPOS*%
%LPD*%
%AMOC8*
5,1,8,0,0,1.08239X$1,22.5*
%
%ADD10C,0.13400*%
%ADD11C,0.06000*%
%ADD12C,0.06800*%
%ADD13OC8,0.07100*%
%ADD14C,0.07100*%
%ADD15R,0.08200X0.08200*%
%ADD16C,0.08200*%
%ADD17C,0.17800*%
%ADD18OC8,0.06800*%
%ADD19C,0.08600*%
%ADD20C,0.04146*%
D10*
X0013500Y0126200D03*
X0017500Y0363200D03*
X0218500Y0210200D03*
D11*
X0213000Y0317200D03*
X0194000Y0317200D03*
D12*
X0260500Y0343200D02*
X0266500Y0343200D01*
X0266500Y0353200D02*
X0260500Y0353200D01*
X0260500Y0363200D02*
X0266500Y0363200D01*
X0266500Y0373200D02*
X0260500Y0373200D01*
X0260500Y0383200D02*
X0266500Y0383200D01*
X0266500Y0393200D02*
X0260500Y0393200D01*
X0117500Y0296200D02*
X0111500Y0296200D01*
X0111500Y0286200D02*
X0117500Y0286200D01*
X0117500Y0276200D02*
X0111500Y0276200D01*
X0111500Y0266200D02*
X0117500Y0266200D01*
X0117500Y0256200D02*
X0111500Y0256200D01*
X0111500Y0246200D02*
X0117500Y0246200D01*
X0117500Y0236200D02*
X0111500Y0236200D01*
X0111500Y0226200D02*
X0117500Y0226200D01*
X0096500Y0243200D02*
X0090500Y0243200D01*
X0090500Y0253200D02*
X0096500Y0253200D01*
X0096500Y0263200D02*
X0090500Y0263200D01*
X0090500Y0273200D02*
X0096500Y0273200D01*
X0059400Y0188000D02*
X0059400Y0182000D01*
X0041600Y0182000D02*
X0041600Y0188000D01*
X0029400Y0188000D02*
X0029400Y0182000D01*
X0029400Y0162400D02*
X0029400Y0156400D01*
X0041600Y0156400D02*
X0041600Y0162400D01*
X0059400Y0162400D02*
X0059400Y0156400D01*
X0011600Y0156400D02*
X0011600Y0162400D01*
X0011600Y0182000D02*
X0011600Y0188000D01*
X0008700Y0384300D02*
X0014700Y0384300D01*
X0014700Y0402100D02*
X0008700Y0402100D01*
X0034300Y0402100D02*
X0040300Y0402100D01*
X0040300Y0384300D02*
X0034300Y0384300D01*
D13*
X0072500Y0251200D03*
X0072500Y0227200D03*
X0064500Y0204200D03*
X0236500Y0337200D03*
D14*
X0236500Y0327200D03*
X0062500Y0251200D03*
X0062500Y0227200D03*
X0054500Y0204200D03*
D15*
X0033516Y0140224D03*
D16*
X0043516Y0140224D03*
X0053516Y0140224D03*
X0063516Y0140224D03*
X0073516Y0140224D03*
X0083516Y0140224D03*
X0093516Y0140224D03*
X0103516Y0140224D03*
X0113516Y0140224D03*
X0123516Y0140224D03*
X0133516Y0140224D03*
X0143516Y0140224D03*
X0153516Y0140224D03*
X0163516Y0140224D03*
X0173516Y0140224D03*
X0183516Y0140224D03*
X0223500Y0353200D03*
X0223500Y0363200D03*
X0233500Y0363200D03*
X0233500Y0353200D03*
X0243500Y0353200D03*
X0243500Y0363200D03*
D17*
X0059437Y0285200D03*
X0047626Y0266696D03*
X0035815Y0285200D03*
D18*
X0053500Y0383200D03*
X0053500Y0393200D03*
X0063500Y0393200D03*
X0063500Y0383200D03*
X0073500Y0383200D03*
X0073500Y0393200D03*
X0083500Y0393200D03*
X0083500Y0383200D03*
X0093500Y0383200D03*
X0093500Y0393200D03*
X0103500Y0393200D03*
X0103500Y0383200D03*
X0123500Y0383200D03*
X0123500Y0393200D03*
X0133500Y0393200D03*
X0133500Y0383200D03*
X0143500Y0383200D03*
X0143500Y0393200D03*
X0153500Y0393200D03*
X0153500Y0383200D03*
X0173500Y0383200D03*
X0173500Y0393200D03*
X0183500Y0393200D03*
X0183500Y0383200D03*
X0193500Y0383200D03*
X0193500Y0393200D03*
X0203500Y0393200D03*
X0203500Y0383200D03*
X0213500Y0383200D03*
X0213500Y0393200D03*
X0223500Y0393200D03*
X0223500Y0383200D03*
X0233500Y0383200D03*
X0233500Y0393200D03*
X0243500Y0393200D03*
X0243500Y0383200D03*
X0253500Y0323200D03*
X0253500Y0313200D03*
X0253500Y0303200D03*
X0253500Y0293200D03*
X0253500Y0283200D03*
X0253500Y0273200D03*
X0253500Y0263200D03*
X0253500Y0253200D03*
X0263500Y0253200D03*
X0263500Y0263200D03*
X0263500Y0273200D03*
X0263500Y0283200D03*
X0263500Y0293200D03*
X0263500Y0303200D03*
X0263500Y0313200D03*
X0263500Y0323200D03*
X0263500Y0233200D03*
X0263500Y0223200D03*
X0263500Y0213200D03*
X0263500Y0203200D03*
X0263500Y0193200D03*
X0263500Y0183200D03*
X0263500Y0173200D03*
X0263500Y0163200D03*
X0253500Y0163200D03*
X0253500Y0173200D03*
X0253500Y0183200D03*
X0253500Y0193200D03*
X0253500Y0203200D03*
X0253500Y0213200D03*
X0253500Y0223200D03*
X0253500Y0233200D03*
X0223500Y0173200D03*
X0223500Y0163200D03*
X0213500Y0163200D03*
X0213500Y0173200D03*
X0203500Y0173200D03*
X0203500Y0163200D03*
X0193500Y0163200D03*
X0193500Y0173200D03*
X0183500Y0173200D03*
X0183500Y0163200D03*
X0173500Y0163200D03*
X0173500Y0173200D03*
X0163500Y0173200D03*
X0163500Y0163200D03*
X0153500Y0163200D03*
X0153500Y0173200D03*
X0143500Y0173200D03*
X0143500Y0163200D03*
X0133500Y0163200D03*
X0133500Y0173200D03*
X0113500Y0173200D03*
X0113500Y0163200D03*
X0103500Y0163200D03*
X0103500Y0173200D03*
X0093500Y0173200D03*
X0093500Y0163200D03*
X0083500Y0163200D03*
X0083500Y0173200D03*
D19*
X0021400Y0320300D02*
X0013600Y0320300D01*
X0013600Y0340100D02*
X0021400Y0340100D01*
D20*
X0262839Y0142680D03*
X0262839Y0127720D03*
M02*
