G75*
%MOIN*%
%OFA0B0*%
%FSLAX25Y25*%
%IPPOS*%
%LPD*%
%AMOC8*
5,1,8,0,0,1.08239X$1,22.5*
%
%ADD10C,0.01000*%
%ADD11C,0.00000*%
D10*
X0001500Y0113700D02*
X0001500Y0408200D01*
X0283500Y0408200D01*
X0283500Y0113700D01*
X0001500Y0113700D01*
D11*
X0007200Y0126200D02*
X0007202Y0126358D01*
X0007208Y0126517D01*
X0007218Y0126675D01*
X0007232Y0126832D01*
X0007250Y0126990D01*
X0007271Y0127146D01*
X0007297Y0127303D01*
X0007327Y0127458D01*
X0007360Y0127613D01*
X0007398Y0127767D01*
X0007439Y0127920D01*
X0007484Y0128071D01*
X0007533Y0128222D01*
X0007586Y0128371D01*
X0007642Y0128519D01*
X0007703Y0128666D01*
X0007766Y0128811D01*
X0007834Y0128954D01*
X0007905Y0129095D01*
X0007979Y0129235D01*
X0008057Y0129373D01*
X0008139Y0129509D01*
X0008224Y0129642D01*
X0008312Y0129774D01*
X0008403Y0129903D01*
X0008498Y0130030D01*
X0008596Y0130154D01*
X0008697Y0130276D01*
X0008801Y0130396D01*
X0008907Y0130513D01*
X0009017Y0130627D01*
X0009130Y0130738D01*
X0009245Y0130846D01*
X0009364Y0130952D01*
X0009484Y0131054D01*
X0009607Y0131154D01*
X0009733Y0131250D01*
X0009861Y0131343D01*
X0009992Y0131433D01*
X0010124Y0131519D01*
X0010259Y0131602D01*
X0010396Y0131682D01*
X0010535Y0131758D01*
X0010675Y0131831D01*
X0010818Y0131900D01*
X0010962Y0131966D01*
X0011107Y0132028D01*
X0011255Y0132086D01*
X0011403Y0132141D01*
X0011553Y0132192D01*
X0011704Y0132239D01*
X0011857Y0132282D01*
X0012010Y0132321D01*
X0012164Y0132357D01*
X0012319Y0132388D01*
X0012475Y0132416D01*
X0012632Y0132440D01*
X0012789Y0132460D01*
X0012947Y0132476D01*
X0013104Y0132488D01*
X0013263Y0132496D01*
X0013421Y0132500D01*
X0013579Y0132500D01*
X0013737Y0132496D01*
X0013896Y0132488D01*
X0014053Y0132476D01*
X0014211Y0132460D01*
X0014368Y0132440D01*
X0014525Y0132416D01*
X0014681Y0132388D01*
X0014836Y0132357D01*
X0014990Y0132321D01*
X0015143Y0132282D01*
X0015296Y0132239D01*
X0015447Y0132192D01*
X0015597Y0132141D01*
X0015745Y0132086D01*
X0015893Y0132028D01*
X0016038Y0131966D01*
X0016182Y0131900D01*
X0016325Y0131831D01*
X0016465Y0131758D01*
X0016604Y0131682D01*
X0016741Y0131602D01*
X0016876Y0131519D01*
X0017008Y0131433D01*
X0017139Y0131343D01*
X0017267Y0131250D01*
X0017393Y0131154D01*
X0017516Y0131054D01*
X0017636Y0130952D01*
X0017755Y0130846D01*
X0017870Y0130738D01*
X0017983Y0130627D01*
X0018093Y0130513D01*
X0018199Y0130396D01*
X0018303Y0130276D01*
X0018404Y0130154D01*
X0018502Y0130030D01*
X0018597Y0129903D01*
X0018688Y0129774D01*
X0018776Y0129642D01*
X0018861Y0129509D01*
X0018943Y0129373D01*
X0019021Y0129235D01*
X0019095Y0129095D01*
X0019166Y0128954D01*
X0019234Y0128811D01*
X0019297Y0128666D01*
X0019358Y0128519D01*
X0019414Y0128371D01*
X0019467Y0128222D01*
X0019516Y0128071D01*
X0019561Y0127920D01*
X0019602Y0127767D01*
X0019640Y0127613D01*
X0019673Y0127458D01*
X0019703Y0127303D01*
X0019729Y0127146D01*
X0019750Y0126990D01*
X0019768Y0126832D01*
X0019782Y0126675D01*
X0019792Y0126517D01*
X0019798Y0126358D01*
X0019800Y0126200D01*
X0019798Y0126042D01*
X0019792Y0125883D01*
X0019782Y0125725D01*
X0019768Y0125568D01*
X0019750Y0125410D01*
X0019729Y0125254D01*
X0019703Y0125097D01*
X0019673Y0124942D01*
X0019640Y0124787D01*
X0019602Y0124633D01*
X0019561Y0124480D01*
X0019516Y0124329D01*
X0019467Y0124178D01*
X0019414Y0124029D01*
X0019358Y0123881D01*
X0019297Y0123734D01*
X0019234Y0123589D01*
X0019166Y0123446D01*
X0019095Y0123305D01*
X0019021Y0123165D01*
X0018943Y0123027D01*
X0018861Y0122891D01*
X0018776Y0122758D01*
X0018688Y0122626D01*
X0018597Y0122497D01*
X0018502Y0122370D01*
X0018404Y0122246D01*
X0018303Y0122124D01*
X0018199Y0122004D01*
X0018093Y0121887D01*
X0017983Y0121773D01*
X0017870Y0121662D01*
X0017755Y0121554D01*
X0017636Y0121448D01*
X0017516Y0121346D01*
X0017393Y0121246D01*
X0017267Y0121150D01*
X0017139Y0121057D01*
X0017008Y0120967D01*
X0016876Y0120881D01*
X0016741Y0120798D01*
X0016604Y0120718D01*
X0016465Y0120642D01*
X0016325Y0120569D01*
X0016182Y0120500D01*
X0016038Y0120434D01*
X0015893Y0120372D01*
X0015745Y0120314D01*
X0015597Y0120259D01*
X0015447Y0120208D01*
X0015296Y0120161D01*
X0015143Y0120118D01*
X0014990Y0120079D01*
X0014836Y0120043D01*
X0014681Y0120012D01*
X0014525Y0119984D01*
X0014368Y0119960D01*
X0014211Y0119940D01*
X0014053Y0119924D01*
X0013896Y0119912D01*
X0013737Y0119904D01*
X0013579Y0119900D01*
X0013421Y0119900D01*
X0013263Y0119904D01*
X0013104Y0119912D01*
X0012947Y0119924D01*
X0012789Y0119940D01*
X0012632Y0119960D01*
X0012475Y0119984D01*
X0012319Y0120012D01*
X0012164Y0120043D01*
X0012010Y0120079D01*
X0011857Y0120118D01*
X0011704Y0120161D01*
X0011553Y0120208D01*
X0011403Y0120259D01*
X0011255Y0120314D01*
X0011107Y0120372D01*
X0010962Y0120434D01*
X0010818Y0120500D01*
X0010675Y0120569D01*
X0010535Y0120642D01*
X0010396Y0120718D01*
X0010259Y0120798D01*
X0010124Y0120881D01*
X0009992Y0120967D01*
X0009861Y0121057D01*
X0009733Y0121150D01*
X0009607Y0121246D01*
X0009484Y0121346D01*
X0009364Y0121448D01*
X0009245Y0121554D01*
X0009130Y0121662D01*
X0009017Y0121773D01*
X0008907Y0121887D01*
X0008801Y0122004D01*
X0008697Y0122124D01*
X0008596Y0122246D01*
X0008498Y0122370D01*
X0008403Y0122497D01*
X0008312Y0122626D01*
X0008224Y0122758D01*
X0008139Y0122891D01*
X0008057Y0123027D01*
X0007979Y0123165D01*
X0007905Y0123305D01*
X0007834Y0123446D01*
X0007766Y0123589D01*
X0007703Y0123734D01*
X0007642Y0123881D01*
X0007586Y0124029D01*
X0007533Y0124178D01*
X0007484Y0124329D01*
X0007439Y0124480D01*
X0007398Y0124633D01*
X0007360Y0124787D01*
X0007327Y0124942D01*
X0007297Y0125097D01*
X0007271Y0125254D01*
X0007250Y0125410D01*
X0007232Y0125568D01*
X0007218Y0125725D01*
X0007208Y0125883D01*
X0007202Y0126042D01*
X0007200Y0126200D01*
X0011200Y0363200D02*
X0011202Y0363358D01*
X0011208Y0363517D01*
X0011218Y0363675D01*
X0011232Y0363832D01*
X0011250Y0363990D01*
X0011271Y0364146D01*
X0011297Y0364303D01*
X0011327Y0364458D01*
X0011360Y0364613D01*
X0011398Y0364767D01*
X0011439Y0364920D01*
X0011484Y0365071D01*
X0011533Y0365222D01*
X0011586Y0365371D01*
X0011642Y0365519D01*
X0011703Y0365666D01*
X0011766Y0365811D01*
X0011834Y0365954D01*
X0011905Y0366095D01*
X0011979Y0366235D01*
X0012057Y0366373D01*
X0012139Y0366509D01*
X0012224Y0366642D01*
X0012312Y0366774D01*
X0012403Y0366903D01*
X0012498Y0367030D01*
X0012596Y0367154D01*
X0012697Y0367276D01*
X0012801Y0367396D01*
X0012907Y0367513D01*
X0013017Y0367627D01*
X0013130Y0367738D01*
X0013245Y0367846D01*
X0013364Y0367952D01*
X0013484Y0368054D01*
X0013607Y0368154D01*
X0013733Y0368250D01*
X0013861Y0368343D01*
X0013992Y0368433D01*
X0014124Y0368519D01*
X0014259Y0368602D01*
X0014396Y0368682D01*
X0014535Y0368758D01*
X0014675Y0368831D01*
X0014818Y0368900D01*
X0014962Y0368966D01*
X0015107Y0369028D01*
X0015255Y0369086D01*
X0015403Y0369141D01*
X0015553Y0369192D01*
X0015704Y0369239D01*
X0015857Y0369282D01*
X0016010Y0369321D01*
X0016164Y0369357D01*
X0016319Y0369388D01*
X0016475Y0369416D01*
X0016632Y0369440D01*
X0016789Y0369460D01*
X0016947Y0369476D01*
X0017104Y0369488D01*
X0017263Y0369496D01*
X0017421Y0369500D01*
X0017579Y0369500D01*
X0017737Y0369496D01*
X0017896Y0369488D01*
X0018053Y0369476D01*
X0018211Y0369460D01*
X0018368Y0369440D01*
X0018525Y0369416D01*
X0018681Y0369388D01*
X0018836Y0369357D01*
X0018990Y0369321D01*
X0019143Y0369282D01*
X0019296Y0369239D01*
X0019447Y0369192D01*
X0019597Y0369141D01*
X0019745Y0369086D01*
X0019893Y0369028D01*
X0020038Y0368966D01*
X0020182Y0368900D01*
X0020325Y0368831D01*
X0020465Y0368758D01*
X0020604Y0368682D01*
X0020741Y0368602D01*
X0020876Y0368519D01*
X0021008Y0368433D01*
X0021139Y0368343D01*
X0021267Y0368250D01*
X0021393Y0368154D01*
X0021516Y0368054D01*
X0021636Y0367952D01*
X0021755Y0367846D01*
X0021870Y0367738D01*
X0021983Y0367627D01*
X0022093Y0367513D01*
X0022199Y0367396D01*
X0022303Y0367276D01*
X0022404Y0367154D01*
X0022502Y0367030D01*
X0022597Y0366903D01*
X0022688Y0366774D01*
X0022776Y0366642D01*
X0022861Y0366509D01*
X0022943Y0366373D01*
X0023021Y0366235D01*
X0023095Y0366095D01*
X0023166Y0365954D01*
X0023234Y0365811D01*
X0023297Y0365666D01*
X0023358Y0365519D01*
X0023414Y0365371D01*
X0023467Y0365222D01*
X0023516Y0365071D01*
X0023561Y0364920D01*
X0023602Y0364767D01*
X0023640Y0364613D01*
X0023673Y0364458D01*
X0023703Y0364303D01*
X0023729Y0364146D01*
X0023750Y0363990D01*
X0023768Y0363832D01*
X0023782Y0363675D01*
X0023792Y0363517D01*
X0023798Y0363358D01*
X0023800Y0363200D01*
X0023798Y0363042D01*
X0023792Y0362883D01*
X0023782Y0362725D01*
X0023768Y0362568D01*
X0023750Y0362410D01*
X0023729Y0362254D01*
X0023703Y0362097D01*
X0023673Y0361942D01*
X0023640Y0361787D01*
X0023602Y0361633D01*
X0023561Y0361480D01*
X0023516Y0361329D01*
X0023467Y0361178D01*
X0023414Y0361029D01*
X0023358Y0360881D01*
X0023297Y0360734D01*
X0023234Y0360589D01*
X0023166Y0360446D01*
X0023095Y0360305D01*
X0023021Y0360165D01*
X0022943Y0360027D01*
X0022861Y0359891D01*
X0022776Y0359758D01*
X0022688Y0359626D01*
X0022597Y0359497D01*
X0022502Y0359370D01*
X0022404Y0359246D01*
X0022303Y0359124D01*
X0022199Y0359004D01*
X0022093Y0358887D01*
X0021983Y0358773D01*
X0021870Y0358662D01*
X0021755Y0358554D01*
X0021636Y0358448D01*
X0021516Y0358346D01*
X0021393Y0358246D01*
X0021267Y0358150D01*
X0021139Y0358057D01*
X0021008Y0357967D01*
X0020876Y0357881D01*
X0020741Y0357798D01*
X0020604Y0357718D01*
X0020465Y0357642D01*
X0020325Y0357569D01*
X0020182Y0357500D01*
X0020038Y0357434D01*
X0019893Y0357372D01*
X0019745Y0357314D01*
X0019597Y0357259D01*
X0019447Y0357208D01*
X0019296Y0357161D01*
X0019143Y0357118D01*
X0018990Y0357079D01*
X0018836Y0357043D01*
X0018681Y0357012D01*
X0018525Y0356984D01*
X0018368Y0356960D01*
X0018211Y0356940D01*
X0018053Y0356924D01*
X0017896Y0356912D01*
X0017737Y0356904D01*
X0017579Y0356900D01*
X0017421Y0356900D01*
X0017263Y0356904D01*
X0017104Y0356912D01*
X0016947Y0356924D01*
X0016789Y0356940D01*
X0016632Y0356960D01*
X0016475Y0356984D01*
X0016319Y0357012D01*
X0016164Y0357043D01*
X0016010Y0357079D01*
X0015857Y0357118D01*
X0015704Y0357161D01*
X0015553Y0357208D01*
X0015403Y0357259D01*
X0015255Y0357314D01*
X0015107Y0357372D01*
X0014962Y0357434D01*
X0014818Y0357500D01*
X0014675Y0357569D01*
X0014535Y0357642D01*
X0014396Y0357718D01*
X0014259Y0357798D01*
X0014124Y0357881D01*
X0013992Y0357967D01*
X0013861Y0358057D01*
X0013733Y0358150D01*
X0013607Y0358246D01*
X0013484Y0358346D01*
X0013364Y0358448D01*
X0013245Y0358554D01*
X0013130Y0358662D01*
X0013017Y0358773D01*
X0012907Y0358887D01*
X0012801Y0359004D01*
X0012697Y0359124D01*
X0012596Y0359246D01*
X0012498Y0359370D01*
X0012403Y0359497D01*
X0012312Y0359626D01*
X0012224Y0359758D01*
X0012139Y0359891D01*
X0012057Y0360027D01*
X0011979Y0360165D01*
X0011905Y0360305D01*
X0011834Y0360446D01*
X0011766Y0360589D01*
X0011703Y0360734D01*
X0011642Y0360881D01*
X0011586Y0361029D01*
X0011533Y0361178D01*
X0011484Y0361329D01*
X0011439Y0361480D01*
X0011398Y0361633D01*
X0011360Y0361787D01*
X0011327Y0361942D01*
X0011297Y0362097D01*
X0011271Y0362254D01*
X0011250Y0362410D01*
X0011232Y0362568D01*
X0011218Y0362725D01*
X0011208Y0362883D01*
X0011202Y0363042D01*
X0011200Y0363200D01*
X0212200Y0210200D02*
X0212202Y0210358D01*
X0212208Y0210517D01*
X0212218Y0210675D01*
X0212232Y0210832D01*
X0212250Y0210990D01*
X0212271Y0211146D01*
X0212297Y0211303D01*
X0212327Y0211458D01*
X0212360Y0211613D01*
X0212398Y0211767D01*
X0212439Y0211920D01*
X0212484Y0212071D01*
X0212533Y0212222D01*
X0212586Y0212371D01*
X0212642Y0212519D01*
X0212703Y0212666D01*
X0212766Y0212811D01*
X0212834Y0212954D01*
X0212905Y0213095D01*
X0212979Y0213235D01*
X0213057Y0213373D01*
X0213139Y0213509D01*
X0213224Y0213642D01*
X0213312Y0213774D01*
X0213403Y0213903D01*
X0213498Y0214030D01*
X0213596Y0214154D01*
X0213697Y0214276D01*
X0213801Y0214396D01*
X0213907Y0214513D01*
X0214017Y0214627D01*
X0214130Y0214738D01*
X0214245Y0214846D01*
X0214364Y0214952D01*
X0214484Y0215054D01*
X0214607Y0215154D01*
X0214733Y0215250D01*
X0214861Y0215343D01*
X0214992Y0215433D01*
X0215124Y0215519D01*
X0215259Y0215602D01*
X0215396Y0215682D01*
X0215535Y0215758D01*
X0215675Y0215831D01*
X0215818Y0215900D01*
X0215962Y0215966D01*
X0216107Y0216028D01*
X0216255Y0216086D01*
X0216403Y0216141D01*
X0216553Y0216192D01*
X0216704Y0216239D01*
X0216857Y0216282D01*
X0217010Y0216321D01*
X0217164Y0216357D01*
X0217319Y0216388D01*
X0217475Y0216416D01*
X0217632Y0216440D01*
X0217789Y0216460D01*
X0217947Y0216476D01*
X0218104Y0216488D01*
X0218263Y0216496D01*
X0218421Y0216500D01*
X0218579Y0216500D01*
X0218737Y0216496D01*
X0218896Y0216488D01*
X0219053Y0216476D01*
X0219211Y0216460D01*
X0219368Y0216440D01*
X0219525Y0216416D01*
X0219681Y0216388D01*
X0219836Y0216357D01*
X0219990Y0216321D01*
X0220143Y0216282D01*
X0220296Y0216239D01*
X0220447Y0216192D01*
X0220597Y0216141D01*
X0220745Y0216086D01*
X0220893Y0216028D01*
X0221038Y0215966D01*
X0221182Y0215900D01*
X0221325Y0215831D01*
X0221465Y0215758D01*
X0221604Y0215682D01*
X0221741Y0215602D01*
X0221876Y0215519D01*
X0222008Y0215433D01*
X0222139Y0215343D01*
X0222267Y0215250D01*
X0222393Y0215154D01*
X0222516Y0215054D01*
X0222636Y0214952D01*
X0222755Y0214846D01*
X0222870Y0214738D01*
X0222983Y0214627D01*
X0223093Y0214513D01*
X0223199Y0214396D01*
X0223303Y0214276D01*
X0223404Y0214154D01*
X0223502Y0214030D01*
X0223597Y0213903D01*
X0223688Y0213774D01*
X0223776Y0213642D01*
X0223861Y0213509D01*
X0223943Y0213373D01*
X0224021Y0213235D01*
X0224095Y0213095D01*
X0224166Y0212954D01*
X0224234Y0212811D01*
X0224297Y0212666D01*
X0224358Y0212519D01*
X0224414Y0212371D01*
X0224467Y0212222D01*
X0224516Y0212071D01*
X0224561Y0211920D01*
X0224602Y0211767D01*
X0224640Y0211613D01*
X0224673Y0211458D01*
X0224703Y0211303D01*
X0224729Y0211146D01*
X0224750Y0210990D01*
X0224768Y0210832D01*
X0224782Y0210675D01*
X0224792Y0210517D01*
X0224798Y0210358D01*
X0224800Y0210200D01*
X0224798Y0210042D01*
X0224792Y0209883D01*
X0224782Y0209725D01*
X0224768Y0209568D01*
X0224750Y0209410D01*
X0224729Y0209254D01*
X0224703Y0209097D01*
X0224673Y0208942D01*
X0224640Y0208787D01*
X0224602Y0208633D01*
X0224561Y0208480D01*
X0224516Y0208329D01*
X0224467Y0208178D01*
X0224414Y0208029D01*
X0224358Y0207881D01*
X0224297Y0207734D01*
X0224234Y0207589D01*
X0224166Y0207446D01*
X0224095Y0207305D01*
X0224021Y0207165D01*
X0223943Y0207027D01*
X0223861Y0206891D01*
X0223776Y0206758D01*
X0223688Y0206626D01*
X0223597Y0206497D01*
X0223502Y0206370D01*
X0223404Y0206246D01*
X0223303Y0206124D01*
X0223199Y0206004D01*
X0223093Y0205887D01*
X0222983Y0205773D01*
X0222870Y0205662D01*
X0222755Y0205554D01*
X0222636Y0205448D01*
X0222516Y0205346D01*
X0222393Y0205246D01*
X0222267Y0205150D01*
X0222139Y0205057D01*
X0222008Y0204967D01*
X0221876Y0204881D01*
X0221741Y0204798D01*
X0221604Y0204718D01*
X0221465Y0204642D01*
X0221325Y0204569D01*
X0221182Y0204500D01*
X0221038Y0204434D01*
X0220893Y0204372D01*
X0220745Y0204314D01*
X0220597Y0204259D01*
X0220447Y0204208D01*
X0220296Y0204161D01*
X0220143Y0204118D01*
X0219990Y0204079D01*
X0219836Y0204043D01*
X0219681Y0204012D01*
X0219525Y0203984D01*
X0219368Y0203960D01*
X0219211Y0203940D01*
X0219053Y0203924D01*
X0218896Y0203912D01*
X0218737Y0203904D01*
X0218579Y0203900D01*
X0218421Y0203900D01*
X0218263Y0203904D01*
X0218104Y0203912D01*
X0217947Y0203924D01*
X0217789Y0203940D01*
X0217632Y0203960D01*
X0217475Y0203984D01*
X0217319Y0204012D01*
X0217164Y0204043D01*
X0217010Y0204079D01*
X0216857Y0204118D01*
X0216704Y0204161D01*
X0216553Y0204208D01*
X0216403Y0204259D01*
X0216255Y0204314D01*
X0216107Y0204372D01*
X0215962Y0204434D01*
X0215818Y0204500D01*
X0215675Y0204569D01*
X0215535Y0204642D01*
X0215396Y0204718D01*
X0215259Y0204798D01*
X0215124Y0204881D01*
X0214992Y0204967D01*
X0214861Y0205057D01*
X0214733Y0205150D01*
X0214607Y0205246D01*
X0214484Y0205346D01*
X0214364Y0205448D01*
X0214245Y0205554D01*
X0214130Y0205662D01*
X0214017Y0205773D01*
X0213907Y0205887D01*
X0213801Y0206004D01*
X0213697Y0206124D01*
X0213596Y0206246D01*
X0213498Y0206370D01*
X0213403Y0206497D01*
X0213312Y0206626D01*
X0213224Y0206758D01*
X0213139Y0206891D01*
X0213057Y0207027D01*
X0212979Y0207165D01*
X0212905Y0207305D01*
X0212834Y0207446D01*
X0212766Y0207589D01*
X0212703Y0207734D01*
X0212642Y0207881D01*
X0212586Y0208029D01*
X0212533Y0208178D01*
X0212484Y0208329D01*
X0212439Y0208480D01*
X0212398Y0208633D01*
X0212360Y0208787D01*
X0212327Y0208942D01*
X0212297Y0209097D01*
X0212271Y0209254D01*
X0212250Y0209410D01*
X0212232Y0209568D01*
X0212218Y0209725D01*
X0212208Y0209883D01*
X0212202Y0210042D01*
X0212200Y0210200D01*
X0261166Y0142680D02*
X0261168Y0142761D01*
X0261174Y0142843D01*
X0261184Y0142924D01*
X0261198Y0143004D01*
X0261215Y0143083D01*
X0261237Y0143162D01*
X0261262Y0143239D01*
X0261291Y0143316D01*
X0261324Y0143390D01*
X0261361Y0143463D01*
X0261400Y0143534D01*
X0261444Y0143603D01*
X0261490Y0143670D01*
X0261540Y0143734D01*
X0261593Y0143796D01*
X0261649Y0143856D01*
X0261707Y0143912D01*
X0261769Y0143966D01*
X0261833Y0144017D01*
X0261899Y0144064D01*
X0261967Y0144108D01*
X0262038Y0144149D01*
X0262110Y0144186D01*
X0262185Y0144220D01*
X0262260Y0144250D01*
X0262338Y0144276D01*
X0262416Y0144299D01*
X0262495Y0144317D01*
X0262575Y0144332D01*
X0262656Y0144343D01*
X0262737Y0144350D01*
X0262819Y0144353D01*
X0262900Y0144352D01*
X0262981Y0144347D01*
X0263062Y0144338D01*
X0263143Y0144325D01*
X0263223Y0144308D01*
X0263301Y0144288D01*
X0263379Y0144263D01*
X0263456Y0144235D01*
X0263531Y0144203D01*
X0263604Y0144168D01*
X0263675Y0144129D01*
X0263745Y0144086D01*
X0263812Y0144041D01*
X0263878Y0143992D01*
X0263940Y0143940D01*
X0264000Y0143884D01*
X0264057Y0143826D01*
X0264112Y0143766D01*
X0264163Y0143702D01*
X0264211Y0143637D01*
X0264256Y0143569D01*
X0264298Y0143499D01*
X0264336Y0143427D01*
X0264371Y0143353D01*
X0264402Y0143278D01*
X0264429Y0143201D01*
X0264452Y0143123D01*
X0264472Y0143044D01*
X0264488Y0142964D01*
X0264500Y0142883D01*
X0264508Y0142802D01*
X0264512Y0142721D01*
X0264512Y0142639D01*
X0264508Y0142558D01*
X0264500Y0142477D01*
X0264488Y0142396D01*
X0264472Y0142316D01*
X0264452Y0142237D01*
X0264429Y0142159D01*
X0264402Y0142082D01*
X0264371Y0142007D01*
X0264336Y0141933D01*
X0264298Y0141861D01*
X0264256Y0141791D01*
X0264211Y0141723D01*
X0264163Y0141658D01*
X0264112Y0141594D01*
X0264057Y0141534D01*
X0264000Y0141476D01*
X0263940Y0141420D01*
X0263878Y0141368D01*
X0263812Y0141319D01*
X0263745Y0141274D01*
X0263676Y0141231D01*
X0263604Y0141192D01*
X0263531Y0141157D01*
X0263456Y0141125D01*
X0263379Y0141097D01*
X0263301Y0141072D01*
X0263223Y0141052D01*
X0263143Y0141035D01*
X0263062Y0141022D01*
X0262981Y0141013D01*
X0262900Y0141008D01*
X0262819Y0141007D01*
X0262737Y0141010D01*
X0262656Y0141017D01*
X0262575Y0141028D01*
X0262495Y0141043D01*
X0262416Y0141061D01*
X0262338Y0141084D01*
X0262260Y0141110D01*
X0262185Y0141140D01*
X0262110Y0141174D01*
X0262038Y0141211D01*
X0261967Y0141252D01*
X0261899Y0141296D01*
X0261833Y0141343D01*
X0261769Y0141394D01*
X0261707Y0141448D01*
X0261649Y0141504D01*
X0261593Y0141564D01*
X0261540Y0141626D01*
X0261490Y0141690D01*
X0261444Y0141757D01*
X0261400Y0141826D01*
X0261361Y0141897D01*
X0261324Y0141970D01*
X0261291Y0142044D01*
X0261262Y0142121D01*
X0261237Y0142198D01*
X0261215Y0142277D01*
X0261198Y0142356D01*
X0261184Y0142436D01*
X0261174Y0142517D01*
X0261168Y0142599D01*
X0261166Y0142680D01*
X0261166Y0127720D02*
X0261168Y0127801D01*
X0261174Y0127883D01*
X0261184Y0127964D01*
X0261198Y0128044D01*
X0261215Y0128123D01*
X0261237Y0128202D01*
X0261262Y0128279D01*
X0261291Y0128356D01*
X0261324Y0128430D01*
X0261361Y0128503D01*
X0261400Y0128574D01*
X0261444Y0128643D01*
X0261490Y0128710D01*
X0261540Y0128774D01*
X0261593Y0128836D01*
X0261649Y0128896D01*
X0261707Y0128952D01*
X0261769Y0129006D01*
X0261833Y0129057D01*
X0261899Y0129104D01*
X0261967Y0129148D01*
X0262038Y0129189D01*
X0262110Y0129226D01*
X0262185Y0129260D01*
X0262260Y0129290D01*
X0262338Y0129316D01*
X0262416Y0129339D01*
X0262495Y0129357D01*
X0262575Y0129372D01*
X0262656Y0129383D01*
X0262737Y0129390D01*
X0262819Y0129393D01*
X0262900Y0129392D01*
X0262981Y0129387D01*
X0263062Y0129378D01*
X0263143Y0129365D01*
X0263223Y0129348D01*
X0263301Y0129328D01*
X0263379Y0129303D01*
X0263456Y0129275D01*
X0263531Y0129243D01*
X0263604Y0129208D01*
X0263675Y0129169D01*
X0263745Y0129126D01*
X0263812Y0129081D01*
X0263878Y0129032D01*
X0263940Y0128980D01*
X0264000Y0128924D01*
X0264057Y0128866D01*
X0264112Y0128806D01*
X0264163Y0128742D01*
X0264211Y0128677D01*
X0264256Y0128609D01*
X0264298Y0128539D01*
X0264336Y0128467D01*
X0264371Y0128393D01*
X0264402Y0128318D01*
X0264429Y0128241D01*
X0264452Y0128163D01*
X0264472Y0128084D01*
X0264488Y0128004D01*
X0264500Y0127923D01*
X0264508Y0127842D01*
X0264512Y0127761D01*
X0264512Y0127679D01*
X0264508Y0127598D01*
X0264500Y0127517D01*
X0264488Y0127436D01*
X0264472Y0127356D01*
X0264452Y0127277D01*
X0264429Y0127199D01*
X0264402Y0127122D01*
X0264371Y0127047D01*
X0264336Y0126973D01*
X0264298Y0126901D01*
X0264256Y0126831D01*
X0264211Y0126763D01*
X0264163Y0126698D01*
X0264112Y0126634D01*
X0264057Y0126574D01*
X0264000Y0126516D01*
X0263940Y0126460D01*
X0263878Y0126408D01*
X0263812Y0126359D01*
X0263745Y0126314D01*
X0263676Y0126271D01*
X0263604Y0126232D01*
X0263531Y0126197D01*
X0263456Y0126165D01*
X0263379Y0126137D01*
X0263301Y0126112D01*
X0263223Y0126092D01*
X0263143Y0126075D01*
X0263062Y0126062D01*
X0262981Y0126053D01*
X0262900Y0126048D01*
X0262819Y0126047D01*
X0262737Y0126050D01*
X0262656Y0126057D01*
X0262575Y0126068D01*
X0262495Y0126083D01*
X0262416Y0126101D01*
X0262338Y0126124D01*
X0262260Y0126150D01*
X0262185Y0126180D01*
X0262110Y0126214D01*
X0262038Y0126251D01*
X0261967Y0126292D01*
X0261899Y0126336D01*
X0261833Y0126383D01*
X0261769Y0126434D01*
X0261707Y0126488D01*
X0261649Y0126544D01*
X0261593Y0126604D01*
X0261540Y0126666D01*
X0261490Y0126730D01*
X0261444Y0126797D01*
X0261400Y0126866D01*
X0261361Y0126937D01*
X0261324Y0127010D01*
X0261291Y0127084D01*
X0261262Y0127161D01*
X0261237Y0127238D01*
X0261215Y0127317D01*
X0261198Y0127396D01*
X0261184Y0127476D01*
X0261174Y0127557D01*
X0261168Y0127639D01*
X0261166Y0127720D01*
M02*
